G75*
%MOIN*%
%OFA0B0*%
%FSLAX25Y25*%
%IPPOS*%
%LPD*%
%AMOC8*
5,1,8,0,0,1.08239X$1,22.5*
%
%ADD10R,0.04724X0.03150*%
%ADD11R,0.03150X0.04724*%
%ADD12R,0.09449X0.07087*%
%ADD13OC8,0.05150*%
%ADD14C,0.05150*%
%ADD15R,0.03937X0.21654*%
%ADD16R,0.06299X0.13386*%
%ADD17R,0.24409X0.21260*%
%ADD18R,0.06299X0.03937*%
%ADD19C,0.06000*%
%ADD20C,0.06000*%
%ADD21OC8,0.06000*%
%ADD22R,0.04724X0.04724*%
%ADD23R,0.21000X0.07600*%
%ADD24R,0.03937X0.05512*%
%ADD25R,0.05512X0.03937*%
%ADD26R,0.05118X0.06299*%
%ADD27R,0.06299X0.05118*%
%ADD28C,0.07050*%
%ADD29R,0.02200X0.05000*%
%ADD30R,0.05000X0.02200*%
%ADD31C,0.18898*%
%ADD32C,0.07800*%
%ADD33C,0.01000*%
%ADD34OC8,0.03169*%
%ADD35C,0.01600*%
D10*
X0197379Y0077957D03*
X0197379Y0085043D03*
X0134879Y0135457D03*
X0134879Y0142543D03*
X0191129Y0176707D03*
X0191129Y0183793D03*
X0259879Y0148793D03*
X0259879Y0141707D03*
D11*
X0198422Y0169000D03*
X0191335Y0169000D03*
X0208835Y0049000D03*
X0215922Y0049000D03*
D12*
X0163629Y0046028D03*
X0163629Y0061972D03*
X0086129Y0121028D03*
X0086129Y0136972D03*
D13*
X0298629Y0089000D03*
D14*
X0288629Y0089000D03*
X0278629Y0089000D03*
X0268629Y0089000D03*
D15*
X0215066Y0203163D03*
X0207192Y0203163D03*
D16*
X0197743Y0210250D03*
X0224515Y0210250D03*
D17*
X0164721Y0189000D03*
D18*
X0135981Y0180024D03*
X0135981Y0197976D03*
D19*
X0313129Y0159000D02*
X0319129Y0159000D01*
X0319129Y0149000D02*
X0313129Y0149000D01*
X0313129Y0139000D02*
X0319129Y0139000D01*
X0319129Y0129000D02*
X0313129Y0129000D01*
X0313129Y0119000D02*
X0319129Y0119000D01*
X0321129Y0050750D02*
X0321129Y0044750D01*
X0311129Y0044750D02*
X0311129Y0050750D01*
X0301129Y0050750D02*
X0301129Y0044750D01*
X0301129Y0024500D02*
X0301129Y0018500D01*
X0311129Y0018500D02*
X0311129Y0024500D01*
X0321129Y0024500D02*
X0321129Y0018500D01*
D20*
X0333629Y0074000D03*
D21*
X0323629Y0074000D03*
X0323629Y0084000D03*
X0333629Y0084000D03*
X0333629Y0094000D03*
X0323629Y0094000D03*
X0197379Y0114000D03*
X0187379Y0114000D03*
X0177379Y0114000D03*
X0167379Y0114000D03*
X0157379Y0114000D03*
X0147379Y0114000D03*
X0147379Y0124000D03*
X0157379Y0124000D03*
X0167379Y0124000D03*
X0177379Y0124000D03*
X0187379Y0124000D03*
X0197379Y0124000D03*
D22*
X0171513Y0081500D03*
X0163245Y0081500D03*
X0189495Y0064000D03*
X0197763Y0064000D03*
X0255745Y0067750D03*
X0264013Y0067750D03*
X0267379Y0113616D03*
X0267379Y0121884D03*
D23*
X0242629Y0146500D03*
X0204629Y0146500D03*
D24*
X0128619Y0097081D03*
X0121139Y0097081D03*
X0124879Y0088419D03*
X0183639Y0032081D03*
X0191119Y0032081D03*
X0187379Y0023419D03*
D25*
X0225459Y0167760D03*
X0216798Y0171500D03*
X0225459Y0175240D03*
D26*
X0278639Y0116500D03*
X0286119Y0116500D03*
X0287389Y0065250D03*
X0294869Y0065250D03*
X0256119Y0055250D03*
X0248639Y0055250D03*
D27*
X0191129Y0050240D03*
X0191129Y0042760D03*
X0146129Y0090260D03*
X0146129Y0097740D03*
X0168629Y0152760D03*
X0168629Y0160240D03*
X0256129Y0172760D03*
X0256129Y0180240D03*
D28*
X0030825Y0116185D02*
X0023775Y0116185D01*
X0023775Y0096500D02*
X0030825Y0096500D01*
X0030825Y0076815D02*
X0023775Y0076815D01*
X0023775Y0051185D02*
X0030825Y0051185D01*
X0030825Y0031500D02*
X0023775Y0031500D01*
X0023775Y0011815D02*
X0030825Y0011815D01*
D29*
X0220105Y0079600D03*
X0223255Y0079600D03*
X0226404Y0079600D03*
X0229554Y0079600D03*
X0232704Y0079600D03*
X0235853Y0079600D03*
X0239003Y0079600D03*
X0242152Y0079600D03*
X0242152Y0113400D03*
X0239003Y0113400D03*
X0235853Y0113400D03*
X0232704Y0113400D03*
X0229554Y0113400D03*
X0226404Y0113400D03*
X0223255Y0113400D03*
X0220105Y0113400D03*
D30*
X0214229Y0107524D03*
X0214229Y0104374D03*
X0214229Y0101224D03*
X0214229Y0098075D03*
X0214229Y0094925D03*
X0214229Y0091776D03*
X0214229Y0088626D03*
X0214229Y0085476D03*
X0248029Y0085476D03*
X0248029Y0088626D03*
X0248029Y0091776D03*
X0248029Y0094925D03*
X0248029Y0098075D03*
X0248029Y0101224D03*
X0248029Y0104374D03*
X0248029Y0107524D03*
D31*
X0107772Y0164925D03*
X0089269Y0176736D03*
X0107772Y0188154D03*
D32*
X0065879Y0191100D02*
X0065879Y0198900D01*
X0018879Y0198900D02*
X0018879Y0191100D01*
X0018879Y0150900D02*
X0018879Y0143100D01*
X0042379Y0142900D02*
X0042379Y0135100D01*
X0065879Y0143100D02*
X0065879Y0150900D01*
X0082379Y0107900D02*
X0082379Y0100100D01*
X0105879Y0099900D02*
X0105879Y0092100D01*
X0058879Y0092100D02*
X0058879Y0099900D01*
X0058879Y0051900D02*
X0058879Y0044100D01*
X0105879Y0044100D02*
X0105879Y0051900D01*
D33*
X0009579Y0003700D02*
X0009579Y0219300D01*
X0340179Y0219300D01*
X0340179Y0003700D01*
X0009579Y0003700D01*
X0009579Y0004496D02*
X0340179Y0004496D01*
X0340179Y0005494D02*
X0009579Y0005494D01*
X0009579Y0006493D02*
X0340179Y0006493D01*
X0340179Y0007491D02*
X0033890Y0007491D01*
X0033785Y0007385D02*
X0035255Y0008855D01*
X0035569Y0009615D01*
X0070605Y0009615D01*
X0071894Y0010904D01*
X0101525Y0040535D01*
X0102707Y0039353D01*
X0104765Y0038500D01*
X0106993Y0038500D01*
X0109051Y0039353D01*
X0110626Y0040928D01*
X0111479Y0042986D01*
X0111479Y0053014D01*
X0110626Y0055072D01*
X0109051Y0056647D01*
X0106993Y0057500D01*
X0104765Y0057500D01*
X0102707Y0056647D01*
X0101131Y0055072D01*
X0100279Y0053014D01*
X0100279Y0045511D01*
X0068782Y0014015D01*
X0035569Y0014015D01*
X0035255Y0014775D01*
X0033785Y0016244D01*
X0031864Y0017040D01*
X0022736Y0017040D01*
X0020815Y0016244D01*
X0019345Y0014775D01*
X0018550Y0012854D01*
X0018550Y0010776D01*
X0019345Y0008855D01*
X0020815Y0007385D01*
X0022736Y0006590D01*
X0031864Y0006590D01*
X0033785Y0007385D01*
X0034889Y0008490D02*
X0340179Y0008490D01*
X0340179Y0009488D02*
X0035517Y0009488D01*
X0035376Y0014481D02*
X0069248Y0014481D01*
X0070247Y0015479D02*
X0034550Y0015479D01*
X0033222Y0016478D02*
X0071245Y0016478D01*
X0072244Y0017476D02*
X0009579Y0017476D01*
X0009579Y0016478D02*
X0021378Y0016478D01*
X0020050Y0015479D02*
X0009579Y0015479D01*
X0009579Y0014481D02*
X0019224Y0014481D01*
X0018810Y0013482D02*
X0009579Y0013482D01*
X0009579Y0012484D02*
X0018550Y0012484D01*
X0018550Y0011485D02*
X0009579Y0011485D01*
X0009579Y0010487D02*
X0018670Y0010487D01*
X0019083Y0009488D02*
X0009579Y0009488D01*
X0009579Y0008490D02*
X0019711Y0008490D01*
X0020710Y0007491D02*
X0009579Y0007491D01*
X0009579Y0018475D02*
X0073242Y0018475D01*
X0074241Y0019473D02*
X0009579Y0019473D01*
X0009579Y0020472D02*
X0075239Y0020472D01*
X0076238Y0021470D02*
X0009579Y0021470D01*
X0009579Y0022469D02*
X0077236Y0022469D01*
X0078235Y0023467D02*
X0009579Y0023467D01*
X0009579Y0024466D02*
X0079233Y0024466D01*
X0080232Y0025464D02*
X0009579Y0025464D01*
X0009579Y0026463D02*
X0022282Y0026463D01*
X0022736Y0026275D02*
X0031864Y0026275D01*
X0033785Y0027070D01*
X0035255Y0028540D01*
X0036050Y0030461D01*
X0036050Y0032539D01*
X0035255Y0034460D01*
X0033785Y0035930D01*
X0031864Y0036725D01*
X0022736Y0036725D01*
X0020815Y0035930D01*
X0019345Y0034460D01*
X0018550Y0032539D01*
X0018550Y0030461D01*
X0019345Y0028540D01*
X0020815Y0027070D01*
X0022736Y0026275D01*
X0020424Y0027461D02*
X0009579Y0027461D01*
X0009579Y0028460D02*
X0019426Y0028460D01*
X0018965Y0029458D02*
X0009579Y0029458D01*
X0009579Y0030457D02*
X0018552Y0030457D01*
X0018550Y0031455D02*
X0009579Y0031455D01*
X0009579Y0032454D02*
X0018550Y0032454D01*
X0018928Y0033452D02*
X0009579Y0033452D01*
X0009579Y0034451D02*
X0019342Y0034451D01*
X0020335Y0035449D02*
X0009579Y0035449D01*
X0009579Y0036448D02*
X0022067Y0036448D01*
X0032533Y0036448D02*
X0091215Y0036448D01*
X0090217Y0035449D02*
X0034265Y0035449D01*
X0035258Y0034451D02*
X0089218Y0034451D01*
X0088220Y0033452D02*
X0035672Y0033452D01*
X0036050Y0032454D02*
X0087221Y0032454D01*
X0086223Y0031455D02*
X0036050Y0031455D01*
X0036048Y0030457D02*
X0085224Y0030457D01*
X0084226Y0029458D02*
X0035635Y0029458D01*
X0035174Y0028460D02*
X0083227Y0028460D01*
X0082229Y0027461D02*
X0034176Y0027461D01*
X0032318Y0026463D02*
X0081230Y0026463D01*
X0084457Y0023467D02*
X0186894Y0023467D01*
X0186894Y0023904D02*
X0186894Y0022935D01*
X0183910Y0022935D01*
X0183910Y0020466D01*
X0184012Y0020084D01*
X0184210Y0019742D01*
X0184489Y0019463D01*
X0184831Y0019266D01*
X0185213Y0019163D01*
X0186894Y0019163D01*
X0186894Y0022935D01*
X0187863Y0022935D01*
X0187863Y0019163D01*
X0189545Y0019163D01*
X0189926Y0019266D01*
X0190268Y0019463D01*
X0190548Y0019742D01*
X0190745Y0020084D01*
X0190847Y0020466D01*
X0190847Y0022935D01*
X0187863Y0022935D01*
X0187863Y0023904D01*
X0186894Y0023904D01*
X0186894Y0027675D01*
X0186362Y0027675D01*
X0187307Y0028621D01*
X0187307Y0035541D01*
X0186311Y0036537D01*
X0180966Y0036537D01*
X0179970Y0035541D01*
X0179970Y0034281D01*
X0178487Y0034281D01*
X0170053Y0042714D01*
X0170053Y0050275D01*
X0169057Y0051271D01*
X0158200Y0051271D01*
X0157204Y0050275D01*
X0157204Y0048228D01*
X0156762Y0048228D01*
X0111479Y0093511D01*
X0111479Y0101014D01*
X0110626Y0103072D01*
X0109051Y0104647D01*
X0106993Y0105500D01*
X0104765Y0105500D01*
X0102707Y0104647D01*
X0101131Y0103072D01*
X0100279Y0101014D01*
X0100279Y0090986D01*
X0101131Y0088928D01*
X0102707Y0087353D01*
X0104765Y0086500D01*
X0106993Y0086500D01*
X0109051Y0087353D01*
X0110233Y0088535D01*
X0154940Y0043828D01*
X0157204Y0043828D01*
X0157204Y0041780D01*
X0158200Y0040784D01*
X0165761Y0040784D01*
X0175376Y0031169D01*
X0176664Y0029881D01*
X0179970Y0029881D01*
X0179970Y0028621D01*
X0180966Y0027625D01*
X0185025Y0027625D01*
X0184831Y0027573D01*
X0184489Y0027375D01*
X0184210Y0027096D01*
X0184012Y0026754D01*
X0183910Y0026373D01*
X0183910Y0023904D01*
X0186894Y0023904D01*
X0186894Y0024466D02*
X0187863Y0024466D01*
X0187863Y0023904D02*
X0187863Y0027675D01*
X0188396Y0027675D01*
X0187450Y0028621D01*
X0187450Y0035541D01*
X0188446Y0036537D01*
X0188919Y0036537D01*
X0188919Y0038501D01*
X0187275Y0038501D01*
X0186279Y0039497D01*
X0186279Y0046023D01*
X0186756Y0046500D01*
X0186279Y0046977D01*
X0186279Y0053503D01*
X0187275Y0054499D01*
X0188929Y0054499D01*
X0188929Y0059938D01*
X0186429Y0059938D01*
X0185433Y0060934D01*
X0185433Y0067066D01*
X0186429Y0068062D01*
X0192561Y0068062D01*
X0193557Y0067066D01*
X0193557Y0060934D01*
X0193329Y0060705D01*
X0193329Y0054499D01*
X0194983Y0054499D01*
X0195978Y0053503D01*
X0195978Y0046977D01*
X0195501Y0046500D01*
X0195978Y0046023D01*
X0195978Y0039497D01*
X0194983Y0038501D01*
X0193319Y0038501D01*
X0193319Y0036537D01*
X0193792Y0036537D01*
X0194787Y0035541D01*
X0194787Y0028621D01*
X0193792Y0027625D01*
X0189733Y0027625D01*
X0189926Y0027573D01*
X0190268Y0027375D01*
X0190548Y0027096D01*
X0190745Y0026754D01*
X0190847Y0026373D01*
X0190847Y0023904D01*
X0187863Y0023904D01*
X0187863Y0023467D02*
X0296429Y0023467D01*
X0296429Y0022469D02*
X0190847Y0022469D01*
X0190847Y0021470D02*
X0296429Y0021470D01*
X0296429Y0020472D02*
X0190847Y0020472D01*
X0190278Y0019473D02*
X0296429Y0019473D01*
X0296429Y0018475D02*
X0079465Y0018475D01*
X0080463Y0019473D02*
X0184479Y0019473D01*
X0183910Y0020472D02*
X0081462Y0020472D01*
X0082460Y0021470D02*
X0183910Y0021470D01*
X0183910Y0022469D02*
X0083459Y0022469D01*
X0085456Y0024466D02*
X0183910Y0024466D01*
X0183910Y0025464D02*
X0086454Y0025464D01*
X0087453Y0026463D02*
X0183934Y0026463D01*
X0184638Y0027461D02*
X0088451Y0027461D01*
X0089450Y0028460D02*
X0180131Y0028460D01*
X0179970Y0029458D02*
X0090448Y0029458D01*
X0091447Y0030457D02*
X0176088Y0030457D01*
X0175090Y0031455D02*
X0092445Y0031455D01*
X0093444Y0032454D02*
X0174091Y0032454D01*
X0173093Y0033452D02*
X0094442Y0033452D01*
X0095441Y0034451D02*
X0172094Y0034451D01*
X0171096Y0035449D02*
X0096439Y0035449D01*
X0097438Y0036448D02*
X0170097Y0036448D01*
X0169099Y0037446D02*
X0098436Y0037446D01*
X0099435Y0038445D02*
X0168100Y0038445D01*
X0167102Y0039443D02*
X0109142Y0039443D01*
X0110140Y0040442D02*
X0166103Y0040442D01*
X0170329Y0042439D02*
X0186279Y0042439D01*
X0186279Y0043437D02*
X0170053Y0043437D01*
X0170053Y0044436D02*
X0186279Y0044436D01*
X0186279Y0045434D02*
X0170053Y0045434D01*
X0170053Y0046433D02*
X0186689Y0046433D01*
X0186279Y0047432D02*
X0170053Y0047432D01*
X0170053Y0048430D02*
X0186279Y0048430D01*
X0186279Y0049429D02*
X0170053Y0049429D01*
X0169901Y0050427D02*
X0186279Y0050427D01*
X0186279Y0051426D02*
X0153564Y0051426D01*
X0152566Y0052424D02*
X0186279Y0052424D01*
X0186279Y0053423D02*
X0151567Y0053423D01*
X0150569Y0054421D02*
X0187197Y0054421D01*
X0188929Y0055420D02*
X0149570Y0055420D01*
X0148572Y0056418D02*
X0188929Y0056418D01*
X0188929Y0057417D02*
X0169745Y0057417D01*
X0170053Y0057725D02*
X0170053Y0066220D01*
X0169057Y0067216D01*
X0161497Y0067216D01*
X0153635Y0075077D01*
X0153635Y0076610D01*
X0151712Y0078534D01*
X0148991Y0078534D01*
X0147067Y0076610D01*
X0147067Y0073890D01*
X0148991Y0071966D01*
X0150524Y0071966D01*
X0157204Y0065286D01*
X0157204Y0057725D01*
X0158200Y0056729D01*
X0169057Y0056729D01*
X0170053Y0057725D01*
X0170053Y0058415D02*
X0188929Y0058415D01*
X0188929Y0059414D02*
X0170053Y0059414D01*
X0170053Y0060412D02*
X0185954Y0060412D01*
X0185433Y0061411D02*
X0170053Y0061411D01*
X0170053Y0062409D02*
X0185433Y0062409D01*
X0185433Y0063408D02*
X0170053Y0063408D01*
X0170053Y0064406D02*
X0185433Y0064406D01*
X0185433Y0065405D02*
X0170053Y0065405D01*
X0169870Y0066403D02*
X0185433Y0066403D01*
X0185768Y0067402D02*
X0161311Y0067402D01*
X0160312Y0068400D02*
X0203824Y0068400D01*
X0204174Y0068050D02*
X0237040Y0068050D01*
X0238329Y0069339D01*
X0239914Y0070924D01*
X0239952Y0070962D01*
X0239952Y0069485D01*
X0237067Y0066600D01*
X0201825Y0066600D01*
X0201825Y0067066D01*
X0200829Y0068062D01*
X0194696Y0068062D01*
X0193700Y0067066D01*
X0193700Y0060934D01*
X0194696Y0059938D01*
X0198714Y0059938D01*
X0205563Y0053089D01*
X0205563Y0052068D01*
X0205561Y0052066D01*
X0205561Y0045934D01*
X0206556Y0044938D01*
X0211114Y0044938D01*
X0212110Y0045934D01*
X0212110Y0052066D01*
X0211114Y0053062D01*
X0209963Y0053062D01*
X0209963Y0054911D01*
X0202674Y0062200D01*
X0238890Y0062200D01*
X0240179Y0063489D01*
X0244352Y0067662D01*
X0244352Y0075796D01*
X0244952Y0076396D01*
X0244952Y0082676D01*
X0251233Y0082676D01*
X0251429Y0082872D01*
X0251429Y0078661D01*
X0251302Y0078534D01*
X0249768Y0078534D01*
X0247844Y0076610D01*
X0247844Y0073890D01*
X0249768Y0071966D01*
X0252489Y0071966D01*
X0254413Y0073890D01*
X0254413Y0075423D01*
X0255344Y0076354D01*
X0255344Y0073890D01*
X0257268Y0071966D01*
X0259989Y0071966D01*
X0260179Y0072155D01*
X0260179Y0071045D01*
X0259950Y0070816D01*
X0259950Y0064684D01*
X0260946Y0063688D01*
X0267079Y0063688D01*
X0268075Y0064684D01*
X0268075Y0070816D01*
X0267079Y0071812D01*
X0264579Y0071812D01*
X0264579Y0088523D01*
X0264654Y0088046D01*
X0264852Y0087436D01*
X0265144Y0086864D01*
X0265521Y0086345D01*
X0265974Y0085892D01*
X0266493Y0085515D01*
X0267065Y0085224D01*
X0267675Y0085026D01*
X0268308Y0084925D01*
X0268341Y0084925D01*
X0268341Y0088713D01*
X0268916Y0088713D01*
X0268916Y0089287D01*
X0272704Y0089287D01*
X0272704Y0089321D01*
X0272603Y0089954D01*
X0272405Y0090564D01*
X0272114Y0091136D01*
X0271737Y0091655D01*
X0271283Y0092108D01*
X0270764Y0092485D01*
X0270193Y0092776D01*
X0269583Y0092974D01*
X0268949Y0093075D01*
X0268916Y0093075D01*
X0268916Y0089287D01*
X0268341Y0089287D01*
X0268341Y0093075D01*
X0268308Y0093075D01*
X0267675Y0092974D01*
X0267065Y0092776D01*
X0266493Y0092485D01*
X0265974Y0092108D01*
X0265521Y0091655D01*
X0265144Y0091136D01*
X0264852Y0090564D01*
X0264654Y0089954D01*
X0264579Y0089477D01*
X0264579Y0091161D01*
X0263290Y0092450D01*
X0259865Y0095875D01*
X0299865Y0095875D01*
X0302206Y0098216D01*
X0303739Y0098216D01*
X0305663Y0100140D01*
X0305663Y0101673D01*
X0309579Y0105589D01*
X0309579Y0110589D01*
X0313290Y0114300D01*
X0320064Y0114300D01*
X0321791Y0115016D01*
X0322679Y0115903D01*
X0322679Y0115195D01*
X0321594Y0114110D01*
X0321594Y0112577D01*
X0315179Y0106161D01*
X0315179Y0082411D01*
X0300217Y0067450D01*
X0299128Y0067450D01*
X0299128Y0069104D01*
X0298132Y0070100D01*
X0291606Y0070100D01*
X0291129Y0069623D01*
X0290652Y0070100D01*
X0289589Y0070100D01*
X0289589Y0084771D01*
X0291050Y0085376D01*
X0292253Y0086579D01*
X0292904Y0088150D01*
X0292904Y0089850D01*
X0292253Y0091421D01*
X0291050Y0092624D01*
X0289479Y0093275D01*
X0287778Y0093275D01*
X0286207Y0092624D01*
X0285005Y0091421D01*
X0284354Y0089850D01*
X0284354Y0088150D01*
X0285005Y0086579D01*
X0285189Y0086395D01*
X0285189Y0070100D01*
X0284125Y0070100D01*
X0283130Y0069104D01*
X0283130Y0061396D01*
X0284125Y0060400D01*
X0290652Y0060400D01*
X0291129Y0060877D01*
X0291606Y0060400D01*
X0298132Y0060400D01*
X0299128Y0061396D01*
X0299128Y0063050D01*
X0302040Y0063050D01*
X0317379Y0078389D01*
X0318929Y0076839D01*
X0318929Y0054926D01*
X0318466Y0054734D01*
X0317144Y0053412D01*
X0316429Y0051685D01*
X0316429Y0043815D01*
X0317144Y0042088D01*
X0318466Y0040766D01*
X0318929Y0040574D01*
X0318929Y0028676D01*
X0318466Y0028484D01*
X0317144Y0027162D01*
X0316429Y0025435D01*
X0316429Y0017565D01*
X0317144Y0015838D01*
X0318466Y0014516D01*
X0320194Y0013800D01*
X0322064Y0013800D01*
X0323791Y0014516D01*
X0325113Y0015838D01*
X0325829Y0017565D01*
X0325829Y0025435D01*
X0325113Y0027162D01*
X0323791Y0028484D01*
X0323329Y0028676D01*
X0323329Y0040574D01*
X0323791Y0040766D01*
X0325113Y0042088D01*
X0325829Y0043815D01*
X0325829Y0051685D01*
X0325113Y0053412D01*
X0323791Y0054734D01*
X0323329Y0054926D01*
X0323329Y0069300D01*
X0325576Y0069300D01*
X0328329Y0072053D01*
X0328329Y0075947D01*
X0325576Y0078700D01*
X0323290Y0078700D01*
X0322690Y0079300D01*
X0325576Y0079300D01*
X0328329Y0082053D01*
X0328329Y0085947D01*
X0325576Y0088700D01*
X0321682Y0088700D01*
X0319579Y0086597D01*
X0319579Y0091686D01*
X0321765Y0089500D01*
X0323129Y0089500D01*
X0323129Y0093500D01*
X0324129Y0093500D01*
X0324129Y0094500D01*
X0328129Y0094500D01*
X0328129Y0095864D01*
X0325493Y0098500D01*
X0324129Y0098500D01*
X0324129Y0094500D01*
X0323129Y0094500D01*
X0323129Y0098500D01*
X0321765Y0098500D01*
X0319579Y0096314D01*
X0319579Y0104339D01*
X0324706Y0109466D01*
X0326239Y0109466D01*
X0328163Y0111390D01*
X0328163Y0114110D01*
X0327079Y0115195D01*
X0327079Y0146161D01*
X0323829Y0149411D01*
X0323829Y0149935D01*
X0323113Y0151662D01*
X0321791Y0152984D01*
X0320064Y0153700D01*
X0312194Y0153700D01*
X0310466Y0152984D01*
X0309144Y0151662D01*
X0308429Y0149935D01*
X0308429Y0148065D01*
X0309144Y0146338D01*
X0310466Y0145016D01*
X0312194Y0144300D01*
X0320064Y0144300D01*
X0321791Y0145016D01*
X0321896Y0145121D01*
X0322679Y0144339D01*
X0322679Y0142097D01*
X0321791Y0142984D01*
X0320064Y0143700D01*
X0312194Y0143700D01*
X0310466Y0142984D01*
X0309144Y0141662D01*
X0308429Y0139935D01*
X0308429Y0138065D01*
X0309144Y0136338D01*
X0310466Y0135016D01*
X0312194Y0134300D01*
X0320064Y0134300D01*
X0321791Y0135016D01*
X0322679Y0135903D01*
X0322679Y0132097D01*
X0321791Y0132984D01*
X0320064Y0133700D01*
X0312194Y0133700D01*
X0310466Y0132984D01*
X0309144Y0131662D01*
X0308429Y0129935D01*
X0308429Y0128065D01*
X0309144Y0126338D01*
X0310466Y0125016D01*
X0312194Y0124300D01*
X0320064Y0124300D01*
X0321791Y0125016D01*
X0322679Y0125903D01*
X0322679Y0122097D01*
X0321791Y0122984D01*
X0320064Y0123700D01*
X0312194Y0123700D01*
X0310466Y0122984D01*
X0309144Y0121662D01*
X0308429Y0119935D01*
X0308429Y0118065D01*
X0309133Y0116365D01*
X0306467Y0113700D01*
X0305179Y0112411D01*
X0305179Y0107411D01*
X0302552Y0104784D01*
X0301018Y0104784D01*
X0299094Y0102860D01*
X0299094Y0101327D01*
X0298042Y0100275D01*
X0252229Y0100275D01*
X0252229Y0105324D01*
X0274094Y0105324D01*
X0274094Y0105140D01*
X0276018Y0103216D01*
X0278739Y0103216D01*
X0280663Y0105140D01*
X0280663Y0107860D01*
X0278739Y0109784D01*
X0276018Y0109784D01*
X0275958Y0109724D01*
X0270615Y0109724D01*
X0271441Y0110550D01*
X0271441Y0114300D01*
X0274380Y0114300D01*
X0274380Y0112646D01*
X0275375Y0111650D01*
X0281902Y0111650D01*
X0282520Y0112269D01*
X0282639Y0112150D01*
X0282981Y0111953D01*
X0283362Y0111850D01*
X0285619Y0111850D01*
X0285619Y0116000D01*
X0286619Y0116000D01*
X0286619Y0117000D01*
X0290178Y0117000D01*
X0290178Y0119847D01*
X0290076Y0120229D01*
X0289878Y0120571D01*
X0289599Y0120850D01*
X0289257Y0121047D01*
X0288875Y0121150D01*
X0286619Y0121150D01*
X0286619Y0117000D01*
X0285619Y0117000D01*
X0285619Y0121150D01*
X0283362Y0121150D01*
X0282981Y0121047D01*
X0282639Y0120850D01*
X0282520Y0120731D01*
X0281902Y0121350D01*
X0275375Y0121350D01*
X0274380Y0120354D01*
X0274380Y0118700D01*
X0271323Y0118700D01*
X0271441Y0118817D01*
X0271441Y0124950D01*
X0270445Y0125946D01*
X0269579Y0125946D01*
X0269579Y0132411D01*
X0263252Y0138738D01*
X0263941Y0139428D01*
X0263941Y0139507D01*
X0271261Y0139507D01*
X0290179Y0120589D01*
X0291467Y0119300D01*
X0295217Y0119300D01*
X0296594Y0117923D01*
X0296594Y0116390D01*
X0298518Y0114466D01*
X0301239Y0114466D01*
X0303163Y0116390D01*
X0303163Y0119110D01*
X0301239Y0121034D01*
X0299706Y0121034D01*
X0297040Y0123700D01*
X0293290Y0123700D01*
X0273083Y0143907D01*
X0263941Y0143907D01*
X0263941Y0143986D01*
X0262945Y0144981D01*
X0256812Y0144981D01*
X0255817Y0143986D01*
X0255817Y0139428D01*
X0256506Y0138738D01*
X0251467Y0133700D01*
X0236467Y0133700D01*
X0232877Y0130109D01*
X0231343Y0130109D01*
X0229419Y0128185D01*
X0229419Y0125464D01*
X0230504Y0124380D01*
X0230504Y0117400D01*
X0229604Y0117400D01*
X0229604Y0113450D01*
X0229504Y0113450D01*
X0229504Y0117400D01*
X0228408Y0117400D01*
X0228208Y0117600D01*
X0225455Y0117600D01*
X0225455Y0131465D01*
X0234990Y0141000D01*
X0253833Y0141000D01*
X0254829Y0141996D01*
X0254829Y0146800D01*
X0255817Y0146800D01*
X0255817Y0146514D01*
X0256812Y0145519D01*
X0262945Y0145519D01*
X0263941Y0146514D01*
X0263941Y0151072D01*
X0262945Y0152068D01*
X0256812Y0152068D01*
X0255944Y0151200D01*
X0254633Y0151200D01*
X0253833Y0152000D01*
X0231425Y0152000D01*
X0230429Y0151004D01*
X0230429Y0142661D01*
X0222305Y0134538D01*
X0222305Y0134685D01*
X0215911Y0141079D01*
X0216829Y0141996D01*
X0216829Y0151004D01*
X0215833Y0152000D01*
X0206829Y0152000D01*
X0206829Y0163705D01*
X0201697Y0168836D01*
X0201697Y0172066D01*
X0200701Y0173062D01*
X0196143Y0173062D01*
X0195147Y0172066D01*
X0195147Y0165934D01*
X0196143Y0164938D01*
X0199373Y0164938D01*
X0202429Y0161882D01*
X0202429Y0152000D01*
X0193425Y0152000D01*
X0192429Y0151004D01*
X0192429Y0141996D01*
X0193425Y0141000D01*
X0209767Y0141000D01*
X0217905Y0132862D01*
X0217905Y0117204D01*
X0217305Y0116604D01*
X0217305Y0110324D01*
X0216429Y0110324D01*
X0216429Y0125561D01*
X0209579Y0132411D01*
X0208290Y0133700D01*
X0173967Y0133700D01*
X0168967Y0128700D01*
X0165432Y0128700D01*
X0162679Y0125947D01*
X0162679Y0122053D01*
X0165432Y0119300D01*
X0169326Y0119300D01*
X0172079Y0122053D01*
X0172079Y0125589D01*
X0175790Y0129300D01*
X0206467Y0129300D01*
X0212029Y0123739D01*
X0212029Y0110324D01*
X0211025Y0110324D01*
X0210029Y0109328D01*
X0210029Y0108495D01*
X0208739Y0109784D01*
X0206018Y0109784D01*
X0204094Y0107860D01*
X0204094Y0105140D01*
X0205810Y0103424D01*
X0205559Y0103424D01*
X0199579Y0109404D01*
X0199579Y0109553D01*
X0202079Y0112053D01*
X0202079Y0115947D01*
X0199326Y0118700D01*
X0195432Y0118700D01*
X0192679Y0115947D01*
X0192679Y0112053D01*
X0195179Y0109553D01*
X0195179Y0107582D01*
X0196467Y0106293D01*
X0202486Y0100275D01*
X0198087Y0100275D01*
X0189579Y0108783D01*
X0189579Y0109553D01*
X0192079Y0112053D01*
X0192079Y0115947D01*
X0189326Y0118700D01*
X0185432Y0118700D01*
X0182679Y0115947D01*
X0182679Y0112053D01*
X0185179Y0109553D01*
X0185179Y0106961D01*
X0195014Y0097125D01*
X0190258Y0097125D01*
X0179579Y0107804D01*
X0179579Y0109553D01*
X0182079Y0112053D01*
X0182079Y0115947D01*
X0179326Y0118700D01*
X0175432Y0118700D01*
X0172679Y0115947D01*
X0172679Y0112053D01*
X0175179Y0109553D01*
X0175179Y0105982D01*
X0176467Y0104693D01*
X0187185Y0093976D01*
X0182239Y0093976D01*
X0169579Y0106635D01*
X0169579Y0109553D01*
X0172079Y0112053D01*
X0172079Y0115947D01*
X0169326Y0118700D01*
X0165432Y0118700D01*
X0162679Y0115947D01*
X0162679Y0112053D01*
X0165179Y0109553D01*
X0165179Y0104813D01*
X0166467Y0103524D01*
X0180416Y0089576D01*
X0210029Y0089576D01*
X0210029Y0083672D01*
X0211025Y0082676D01*
X0212029Y0082676D01*
X0212029Y0080511D01*
X0208802Y0077284D01*
X0207268Y0077284D01*
X0205344Y0075360D01*
X0205344Y0073102D01*
X0201441Y0077006D01*
X0201441Y0080236D01*
X0200445Y0081231D01*
X0194312Y0081231D01*
X0193317Y0080236D01*
X0193317Y0080157D01*
X0175967Y0080157D01*
X0175575Y0080549D01*
X0175575Y0084566D01*
X0174579Y0085562D01*
X0168446Y0085562D01*
X0167450Y0084566D01*
X0167450Y0078434D01*
X0168446Y0077438D01*
X0172464Y0077438D01*
X0172856Y0077045D01*
X0174145Y0075757D01*
X0193317Y0075757D01*
X0193317Y0075678D01*
X0194312Y0074682D01*
X0197542Y0074682D01*
X0204174Y0068050D01*
X0202825Y0069399D02*
X0159314Y0069399D01*
X0158315Y0070397D02*
X0201827Y0070397D01*
X0200828Y0071396D02*
X0157317Y0071396D01*
X0156318Y0072394D02*
X0199830Y0072394D01*
X0198831Y0073393D02*
X0155320Y0073393D01*
X0154321Y0074391D02*
X0197833Y0074391D01*
X0193604Y0075390D02*
X0153635Y0075390D01*
X0153635Y0076388D02*
X0173513Y0076388D01*
X0172514Y0077387D02*
X0152859Y0077387D01*
X0151860Y0078385D02*
X0159231Y0078385D01*
X0159183Y0078434D02*
X0160179Y0077438D01*
X0166311Y0077438D01*
X0167307Y0078434D01*
X0167307Y0084566D01*
X0166311Y0085562D01*
X0160179Y0085562D01*
X0159183Y0084566D01*
X0159183Y0083700D01*
X0155800Y0083700D01*
X0150978Y0088521D01*
X0150978Y0093523D01*
X0150501Y0094000D01*
X0150978Y0094477D01*
X0150978Y0101003D01*
X0149983Y0101999D01*
X0142275Y0101999D01*
X0141279Y0101003D01*
X0141279Y0099940D01*
X0132287Y0099940D01*
X0132287Y0100541D01*
X0131292Y0101537D01*
X0125946Y0101537D01*
X0124950Y0100541D01*
X0124950Y0093621D01*
X0125896Y0092675D01*
X0125363Y0092675D01*
X0125363Y0088904D01*
X0124394Y0088904D01*
X0124394Y0092675D01*
X0123862Y0092675D01*
X0124807Y0093621D01*
X0124807Y0100541D01*
X0123811Y0101537D01*
X0119794Y0101537D01*
X0098103Y0123228D01*
X0092553Y0123228D01*
X0092553Y0125275D01*
X0091557Y0126271D01*
X0080700Y0126271D01*
X0079704Y0125275D01*
X0079704Y0124950D01*
X0037040Y0124950D01*
X0022844Y0139146D01*
X0023626Y0139928D01*
X0024479Y0141986D01*
X0024479Y0152014D01*
X0023626Y0154072D01*
X0022051Y0155647D01*
X0019993Y0156500D01*
X0017765Y0156500D01*
X0015707Y0155647D01*
X0014579Y0154520D01*
X0014579Y0187480D01*
X0015707Y0186353D01*
X0017765Y0185500D01*
X0019993Y0185500D01*
X0022051Y0186353D01*
X0023626Y0187928D01*
X0024479Y0189986D01*
X0024479Y0200014D01*
X0023626Y0202072D01*
X0022051Y0203647D01*
X0019993Y0204500D01*
X0017765Y0204500D01*
X0015707Y0203647D01*
X0014131Y0202072D01*
X0013279Y0200014D01*
X0013279Y0195511D01*
X0010179Y0192411D01*
X0010179Y0085589D01*
X0011467Y0084300D01*
X0018550Y0077217D01*
X0018550Y0075776D01*
X0019345Y0073855D01*
X0020815Y0072385D01*
X0022736Y0071590D01*
X0031864Y0071590D01*
X0033785Y0072385D01*
X0035255Y0073855D01*
X0036050Y0075776D01*
X0036050Y0077854D01*
X0035255Y0079775D01*
X0033785Y0081244D01*
X0031864Y0082040D01*
X0022736Y0082040D01*
X0020815Y0081244D01*
X0020780Y0081210D01*
X0014579Y0087411D01*
X0014579Y0139480D01*
X0015707Y0138353D01*
X0017765Y0137500D01*
X0018267Y0137500D01*
X0033929Y0121839D01*
X0035217Y0120550D01*
X0079704Y0120550D01*
X0079704Y0116780D01*
X0080700Y0115784D01*
X0091557Y0115784D01*
X0092553Y0116780D01*
X0092553Y0118828D01*
X0096280Y0118828D01*
X0117470Y0097638D01*
X0117470Y0093621D01*
X0118466Y0092625D01*
X0122525Y0092625D01*
X0122331Y0092573D01*
X0121989Y0092375D01*
X0121710Y0092096D01*
X0121512Y0091754D01*
X0121410Y0091373D01*
X0121410Y0088904D01*
X0124394Y0088904D01*
X0124394Y0087935D01*
X0121410Y0087935D01*
X0121410Y0085466D01*
X0121512Y0085084D01*
X0121710Y0084742D01*
X0121989Y0084463D01*
X0122331Y0084266D01*
X0122713Y0084163D01*
X0124394Y0084163D01*
X0124394Y0087935D01*
X0125363Y0087935D01*
X0125363Y0084163D01*
X0127045Y0084163D01*
X0127426Y0084266D01*
X0127768Y0084463D01*
X0128048Y0084742D01*
X0128245Y0085084D01*
X0128347Y0085466D01*
X0128347Y0087935D01*
X0125363Y0087935D01*
X0125363Y0088904D01*
X0128347Y0088904D01*
X0128347Y0091373D01*
X0128245Y0091754D01*
X0128048Y0092096D01*
X0127768Y0092375D01*
X0127426Y0092573D01*
X0127233Y0092625D01*
X0131292Y0092625D01*
X0132287Y0093621D01*
X0132287Y0095540D01*
X0141279Y0095540D01*
X0141279Y0094477D01*
X0141756Y0094000D01*
X0141279Y0093523D01*
X0141279Y0086997D01*
X0142275Y0086001D01*
X0147277Y0086001D01*
X0152689Y0080589D01*
X0153977Y0079300D01*
X0159183Y0079300D01*
X0159183Y0078434D01*
X0163245Y0081500D02*
X0154889Y0081500D01*
X0146129Y0090260D01*
X0141279Y0090368D02*
X0128347Y0090368D01*
X0128347Y0091366D02*
X0141279Y0091366D01*
X0141279Y0092365D02*
X0127779Y0092365D01*
X0125363Y0092365D02*
X0124394Y0092365D01*
X0124394Y0091366D02*
X0125363Y0091366D01*
X0125363Y0090368D02*
X0124394Y0090368D01*
X0124394Y0089369D02*
X0125363Y0089369D01*
X0125363Y0088370D02*
X0141279Y0088370D01*
X0141279Y0087372D02*
X0128347Y0087372D01*
X0128347Y0086373D02*
X0141902Y0086373D01*
X0141279Y0089369D02*
X0128347Y0089369D01*
X0125363Y0087372D02*
X0124394Y0087372D01*
X0124394Y0088370D02*
X0116620Y0088370D01*
X0117618Y0087372D02*
X0121410Y0087372D01*
X0121410Y0086373D02*
X0118617Y0086373D01*
X0119615Y0085375D02*
X0121435Y0085375D01*
X0122139Y0084376D02*
X0120614Y0084376D01*
X0121612Y0083378D02*
X0149899Y0083378D01*
X0148901Y0084376D02*
X0127618Y0084376D01*
X0128323Y0085375D02*
X0147902Y0085375D01*
X0150898Y0082379D02*
X0122611Y0082379D01*
X0123609Y0081381D02*
X0151896Y0081381D01*
X0152895Y0080382D02*
X0124608Y0080382D01*
X0125606Y0079384D02*
X0153893Y0079384D01*
X0155123Y0084376D02*
X0159183Y0084376D01*
X0159991Y0085375D02*
X0154125Y0085375D01*
X0153126Y0086373D02*
X0193517Y0086373D01*
X0193517Y0086816D02*
X0193517Y0085331D01*
X0197091Y0085331D01*
X0197091Y0088118D01*
X0194819Y0088118D01*
X0194438Y0088016D01*
X0194096Y0087818D01*
X0193816Y0087539D01*
X0193619Y0087197D01*
X0193517Y0086816D01*
X0193720Y0087372D02*
X0152128Y0087372D01*
X0151129Y0088370D02*
X0210029Y0088370D01*
X0210029Y0087372D02*
X0201038Y0087372D01*
X0200941Y0087539D02*
X0200662Y0087818D01*
X0200320Y0088016D01*
X0199938Y0088118D01*
X0197666Y0088118D01*
X0197666Y0085331D01*
X0197091Y0085331D01*
X0197091Y0084756D01*
X0193517Y0084756D01*
X0193517Y0083271D01*
X0193619Y0082890D01*
X0193816Y0082547D01*
X0194096Y0082268D01*
X0194438Y0082071D01*
X0194819Y0081969D01*
X0197091Y0081968D01*
X0197091Y0084756D01*
X0197666Y0084756D01*
X0197666Y0081969D01*
X0199938Y0081969D01*
X0200320Y0082071D01*
X0200662Y0082268D01*
X0200941Y0082547D01*
X0201139Y0082890D01*
X0201241Y0083271D01*
X0201241Y0084756D01*
X0197666Y0084756D01*
X0197666Y0085331D01*
X0201241Y0085331D01*
X0201241Y0086816D01*
X0201139Y0087197D01*
X0200941Y0087539D01*
X0201241Y0086373D02*
X0210029Y0086373D01*
X0210029Y0085375D02*
X0201241Y0085375D01*
X0201241Y0084376D02*
X0210029Y0084376D01*
X0210323Y0083378D02*
X0201241Y0083378D01*
X0200773Y0082379D02*
X0212029Y0082379D01*
X0212029Y0081381D02*
X0175575Y0081381D01*
X0175575Y0082379D02*
X0193984Y0082379D01*
X0193517Y0083378D02*
X0175575Y0083378D01*
X0175575Y0084376D02*
X0193517Y0084376D01*
X0193517Y0085375D02*
X0174766Y0085375D01*
X0171513Y0081500D02*
X0175056Y0077957D01*
X0197379Y0077957D01*
X0205085Y0070250D01*
X0236129Y0070250D01*
X0239003Y0073124D01*
X0239003Y0079600D01*
X0242152Y0079600D02*
X0242152Y0068574D01*
X0237979Y0064400D01*
X0198163Y0064400D01*
X0197763Y0064000D01*
X0207763Y0054000D01*
X0207763Y0049000D01*
X0208835Y0049000D01*
X0205561Y0049429D02*
X0195978Y0049429D01*
X0195978Y0050427D02*
X0205561Y0050427D01*
X0205561Y0051426D02*
X0195978Y0051426D01*
X0195978Y0052424D02*
X0205563Y0052424D01*
X0205229Y0053423D02*
X0195978Y0053423D01*
X0195061Y0054421D02*
X0204230Y0054421D01*
X0203232Y0055420D02*
X0193329Y0055420D01*
X0193329Y0056418D02*
X0202233Y0056418D01*
X0201235Y0057417D02*
X0193329Y0057417D01*
X0193329Y0058415D02*
X0200236Y0058415D01*
X0199238Y0059414D02*
X0193329Y0059414D01*
X0193329Y0060412D02*
X0194222Y0060412D01*
X0193700Y0061411D02*
X0193557Y0061411D01*
X0193557Y0062409D02*
X0193700Y0062409D01*
X0193700Y0063408D02*
X0193557Y0063408D01*
X0193557Y0064406D02*
X0193700Y0064406D01*
X0193700Y0065405D02*
X0193557Y0065405D01*
X0193557Y0066403D02*
X0193700Y0066403D01*
X0194036Y0067402D02*
X0193222Y0067402D01*
X0189495Y0064000D02*
X0191129Y0062366D01*
X0191129Y0050240D01*
X0195978Y0048430D02*
X0205561Y0048430D01*
X0205561Y0047432D02*
X0195978Y0047432D01*
X0195568Y0046433D02*
X0205561Y0046433D01*
X0206060Y0045434D02*
X0195978Y0045434D01*
X0195978Y0044436D02*
X0277203Y0044436D01*
X0276205Y0043437D02*
X0195978Y0043437D01*
X0195978Y0042439D02*
X0275206Y0042439D01*
X0274208Y0041440D02*
X0195978Y0041440D01*
X0195978Y0040442D02*
X0273209Y0040442D01*
X0272211Y0039443D02*
X0195925Y0039443D01*
X0193319Y0038445D02*
X0271212Y0038445D01*
X0270214Y0037446D02*
X0193319Y0037446D01*
X0193880Y0036448D02*
X0269215Y0036448D01*
X0268217Y0035449D02*
X0194787Y0035449D01*
X0194787Y0034451D02*
X0240685Y0034451D01*
X0241018Y0034784D02*
X0239094Y0032860D01*
X0239094Y0030140D01*
X0241018Y0028216D01*
X0243739Y0028216D01*
X0244823Y0029300D01*
X0268290Y0029300D01*
X0292206Y0053216D01*
X0293739Y0053216D01*
X0295663Y0055140D01*
X0295663Y0057860D01*
X0293739Y0059784D01*
X0291018Y0059784D01*
X0289094Y0057860D01*
X0289094Y0056327D01*
X0266467Y0033700D01*
X0244823Y0033700D01*
X0243739Y0034784D01*
X0241018Y0034784D01*
X0239686Y0033452D02*
X0194787Y0033452D01*
X0194787Y0032454D02*
X0239094Y0032454D01*
X0239094Y0031455D02*
X0194787Y0031455D01*
X0194787Y0030457D02*
X0239094Y0030457D01*
X0239776Y0029458D02*
X0194787Y0029458D01*
X0194627Y0028460D02*
X0240774Y0028460D01*
X0243983Y0028460D02*
X0298442Y0028460D01*
X0298466Y0028484D02*
X0297144Y0027162D01*
X0296429Y0025435D01*
X0296429Y0017565D01*
X0297144Y0015838D01*
X0298466Y0014516D01*
X0300194Y0013800D01*
X0302064Y0013800D01*
X0303791Y0014516D01*
X0305113Y0015838D01*
X0305829Y0017565D01*
X0305829Y0025435D01*
X0305113Y0027162D01*
X0303791Y0028484D01*
X0302064Y0029200D01*
X0300194Y0029200D01*
X0298466Y0028484D01*
X0297443Y0027461D02*
X0190120Y0027461D01*
X0190823Y0026463D02*
X0296855Y0026463D01*
X0296441Y0025464D02*
X0190847Y0025464D01*
X0190847Y0024466D02*
X0296429Y0024466D01*
X0296466Y0017476D02*
X0078466Y0017476D01*
X0077468Y0016478D02*
X0296879Y0016478D01*
X0297503Y0015479D02*
X0076469Y0015479D01*
X0075471Y0014481D02*
X0298551Y0014481D01*
X0303707Y0014481D02*
X0309105Y0014481D01*
X0309401Y0014330D02*
X0310075Y0014111D01*
X0310629Y0014023D01*
X0310629Y0021000D01*
X0311629Y0021000D01*
X0311629Y0022000D01*
X0315629Y0022000D01*
X0315629Y0024854D01*
X0315518Y0025554D01*
X0315299Y0026227D01*
X0314977Y0026859D01*
X0314561Y0027432D01*
X0314060Y0027932D01*
X0313487Y0028349D01*
X0312856Y0028670D01*
X0312182Y0028889D01*
X0311629Y0028977D01*
X0311629Y0022000D01*
X0310629Y0022000D01*
X0310629Y0028977D01*
X0310075Y0028889D01*
X0309401Y0028670D01*
X0308770Y0028349D01*
X0308197Y0027932D01*
X0307696Y0027432D01*
X0307280Y0026859D01*
X0306958Y0026227D01*
X0306740Y0025554D01*
X0306629Y0024854D01*
X0306629Y0022000D01*
X0310629Y0022000D01*
X0310629Y0021000D01*
X0306629Y0021000D01*
X0306629Y0018146D01*
X0306740Y0017446D01*
X0306958Y0016773D01*
X0307280Y0016141D01*
X0307696Y0015568D01*
X0308197Y0015068D01*
X0308770Y0014651D01*
X0309401Y0014330D01*
X0310629Y0014481D02*
X0311629Y0014481D01*
X0311629Y0014023D02*
X0312182Y0014111D01*
X0312856Y0014330D01*
X0313487Y0014651D01*
X0314060Y0015068D01*
X0314561Y0015568D01*
X0314977Y0016141D01*
X0315299Y0016773D01*
X0315518Y0017446D01*
X0315629Y0018146D01*
X0315629Y0021000D01*
X0311629Y0021000D01*
X0311629Y0014023D01*
X0311629Y0015479D02*
X0310629Y0015479D01*
X0310629Y0016478D02*
X0311629Y0016478D01*
X0311629Y0017476D02*
X0310629Y0017476D01*
X0310629Y0018475D02*
X0311629Y0018475D01*
X0311629Y0019473D02*
X0310629Y0019473D01*
X0310629Y0020472D02*
X0311629Y0020472D01*
X0311629Y0021470D02*
X0316429Y0021470D01*
X0316429Y0020472D02*
X0315629Y0020472D01*
X0315629Y0019473D02*
X0316429Y0019473D01*
X0316429Y0018475D02*
X0315629Y0018475D01*
X0315523Y0017476D02*
X0316466Y0017476D01*
X0316879Y0016478D02*
X0315149Y0016478D01*
X0314472Y0015479D02*
X0317503Y0015479D01*
X0318551Y0014481D02*
X0313152Y0014481D01*
X0307786Y0015479D02*
X0304755Y0015479D01*
X0305378Y0016478D02*
X0307109Y0016478D01*
X0306735Y0017476D02*
X0305792Y0017476D01*
X0305829Y0018475D02*
X0306629Y0018475D01*
X0306629Y0019473D02*
X0305829Y0019473D01*
X0305829Y0020472D02*
X0306629Y0020472D01*
X0305829Y0021470D02*
X0310629Y0021470D01*
X0310629Y0022469D02*
X0311629Y0022469D01*
X0311629Y0023467D02*
X0310629Y0023467D01*
X0310629Y0024466D02*
X0311629Y0024466D01*
X0311629Y0025464D02*
X0310629Y0025464D01*
X0310629Y0026463D02*
X0311629Y0026463D01*
X0311629Y0027461D02*
X0310629Y0027461D01*
X0310629Y0028460D02*
X0311629Y0028460D01*
X0313269Y0028460D02*
X0318442Y0028460D01*
X0318929Y0029458D02*
X0268448Y0029458D01*
X0269447Y0030457D02*
X0318929Y0030457D01*
X0318929Y0031455D02*
X0270445Y0031455D01*
X0271444Y0032454D02*
X0318929Y0032454D01*
X0318929Y0033452D02*
X0272442Y0033452D01*
X0273441Y0034451D02*
X0318929Y0034451D01*
X0318929Y0035449D02*
X0274439Y0035449D01*
X0275438Y0036448D02*
X0318929Y0036448D01*
X0318929Y0037446D02*
X0276436Y0037446D01*
X0277435Y0038445D02*
X0318929Y0038445D01*
X0318929Y0039443D02*
X0278433Y0039443D01*
X0279432Y0040442D02*
X0299248Y0040442D01*
X0298466Y0040766D02*
X0300194Y0040050D01*
X0302064Y0040050D01*
X0303791Y0040766D01*
X0305113Y0042088D01*
X0305829Y0043815D01*
X0305829Y0051685D01*
X0305113Y0053412D01*
X0303791Y0054734D01*
X0302064Y0055450D01*
X0300194Y0055450D01*
X0298466Y0054734D01*
X0297144Y0053412D01*
X0296429Y0051685D01*
X0296429Y0043815D01*
X0297144Y0042088D01*
X0298466Y0040766D01*
X0297791Y0041440D02*
X0280430Y0041440D01*
X0281429Y0042439D02*
X0296999Y0042439D01*
X0296585Y0043437D02*
X0282427Y0043437D01*
X0283426Y0044436D02*
X0296429Y0044436D01*
X0296429Y0045434D02*
X0284425Y0045434D01*
X0285423Y0046433D02*
X0296429Y0046433D01*
X0296429Y0047432D02*
X0286422Y0047432D01*
X0287420Y0048430D02*
X0296429Y0048430D01*
X0296429Y0049429D02*
X0288419Y0049429D01*
X0289417Y0050427D02*
X0296429Y0050427D01*
X0296429Y0051426D02*
X0290416Y0051426D01*
X0291414Y0052424D02*
X0296735Y0052424D01*
X0297155Y0053423D02*
X0293946Y0053423D01*
X0294944Y0054421D02*
X0298153Y0054421D01*
X0300121Y0055420D02*
X0295663Y0055420D01*
X0295663Y0056418D02*
X0318929Y0056418D01*
X0318929Y0055420D02*
X0302137Y0055420D01*
X0304104Y0054421D02*
X0308526Y0054421D01*
X0308770Y0054599D02*
X0308197Y0054182D01*
X0307696Y0053682D01*
X0307280Y0053109D01*
X0306958Y0052477D01*
X0306740Y0051804D01*
X0306629Y0051104D01*
X0306629Y0048250D01*
X0310629Y0048250D01*
X0310629Y0055227D01*
X0310075Y0055139D01*
X0309401Y0054920D01*
X0308770Y0054599D01*
X0307508Y0053423D02*
X0305103Y0053423D01*
X0305523Y0052424D02*
X0306941Y0052424D01*
X0306680Y0051426D02*
X0305829Y0051426D01*
X0305829Y0050427D02*
X0306629Y0050427D01*
X0306629Y0049429D02*
X0305829Y0049429D01*
X0305829Y0048430D02*
X0306629Y0048430D01*
X0306629Y0047250D02*
X0306629Y0044396D01*
X0306740Y0043696D01*
X0306958Y0043023D01*
X0307280Y0042391D01*
X0307696Y0041818D01*
X0308197Y0041318D01*
X0308770Y0040901D01*
X0309401Y0040580D01*
X0310075Y0040361D01*
X0310629Y0040273D01*
X0310629Y0047250D01*
X0311629Y0047250D01*
X0311629Y0048250D01*
X0315629Y0048250D01*
X0315629Y0051104D01*
X0315518Y0051804D01*
X0315299Y0052477D01*
X0314977Y0053109D01*
X0314561Y0053682D01*
X0314060Y0054182D01*
X0313487Y0054599D01*
X0312856Y0054920D01*
X0312182Y0055139D01*
X0311629Y0055227D01*
X0311629Y0048250D01*
X0310629Y0048250D01*
X0310629Y0047250D01*
X0306629Y0047250D01*
X0306629Y0046433D02*
X0305829Y0046433D01*
X0305829Y0045434D02*
X0306629Y0045434D01*
X0306629Y0044436D02*
X0305829Y0044436D01*
X0305672Y0043437D02*
X0306824Y0043437D01*
X0307256Y0042439D02*
X0305259Y0042439D01*
X0304466Y0041440D02*
X0308074Y0041440D01*
X0309825Y0040442D02*
X0303010Y0040442D01*
X0305829Y0047432D02*
X0310629Y0047432D01*
X0310629Y0048430D02*
X0311629Y0048430D01*
X0311629Y0047432D02*
X0316429Y0047432D01*
X0315629Y0047250D02*
X0311629Y0047250D01*
X0311629Y0040273D01*
X0312182Y0040361D01*
X0312856Y0040580D01*
X0313487Y0040901D01*
X0314060Y0041318D01*
X0314561Y0041818D01*
X0314977Y0042391D01*
X0315299Y0043023D01*
X0315518Y0043696D01*
X0315629Y0044396D01*
X0315629Y0047250D01*
X0315629Y0046433D02*
X0316429Y0046433D01*
X0316429Y0045434D02*
X0315629Y0045434D01*
X0315629Y0044436D02*
X0316429Y0044436D01*
X0316585Y0043437D02*
X0315434Y0043437D01*
X0315002Y0042439D02*
X0316999Y0042439D01*
X0317791Y0041440D02*
X0314183Y0041440D01*
X0312432Y0040442D02*
X0318929Y0040442D01*
X0323329Y0040442D02*
X0340179Y0040442D01*
X0340179Y0041440D02*
X0324466Y0041440D01*
X0325259Y0042439D02*
X0340179Y0042439D01*
X0340179Y0043437D02*
X0325672Y0043437D01*
X0325829Y0044436D02*
X0340179Y0044436D01*
X0340179Y0045434D02*
X0325829Y0045434D01*
X0325829Y0046433D02*
X0340179Y0046433D01*
X0340179Y0047432D02*
X0325829Y0047432D01*
X0325829Y0048430D02*
X0340179Y0048430D01*
X0340179Y0049429D02*
X0325829Y0049429D01*
X0325829Y0050427D02*
X0340179Y0050427D01*
X0340179Y0051426D02*
X0325829Y0051426D01*
X0325523Y0052424D02*
X0340179Y0052424D01*
X0340179Y0053423D02*
X0325103Y0053423D01*
X0324104Y0054421D02*
X0340179Y0054421D01*
X0340179Y0055420D02*
X0323329Y0055420D01*
X0323329Y0056418D02*
X0340179Y0056418D01*
X0340179Y0057417D02*
X0323329Y0057417D01*
X0323329Y0058415D02*
X0340179Y0058415D01*
X0340179Y0059414D02*
X0323329Y0059414D01*
X0323329Y0060412D02*
X0340179Y0060412D01*
X0340179Y0061411D02*
X0323329Y0061411D01*
X0323329Y0062409D02*
X0340179Y0062409D01*
X0340179Y0063408D02*
X0323329Y0063408D01*
X0323329Y0064406D02*
X0340179Y0064406D01*
X0340179Y0065405D02*
X0323329Y0065405D01*
X0323329Y0066403D02*
X0340179Y0066403D01*
X0340179Y0067402D02*
X0323329Y0067402D01*
X0323329Y0068400D02*
X0340179Y0068400D01*
X0340179Y0069399D02*
X0334802Y0069399D01*
X0334564Y0069300D02*
X0336291Y0070016D01*
X0337613Y0071338D01*
X0338329Y0073065D01*
X0338329Y0074935D01*
X0337613Y0076662D01*
X0336291Y0077984D01*
X0334564Y0078700D01*
X0332694Y0078700D01*
X0330966Y0077984D01*
X0329644Y0076662D01*
X0328929Y0074935D01*
X0328929Y0073065D01*
X0329644Y0071338D01*
X0330966Y0070016D01*
X0332694Y0069300D01*
X0334564Y0069300D01*
X0332455Y0069399D02*
X0325674Y0069399D01*
X0326673Y0070397D02*
X0330585Y0070397D01*
X0329620Y0071396D02*
X0327671Y0071396D01*
X0328329Y0072394D02*
X0329207Y0072394D01*
X0328929Y0073393D02*
X0328329Y0073393D01*
X0328329Y0074391D02*
X0328929Y0074391D01*
X0329117Y0075390D02*
X0328329Y0075390D01*
X0327887Y0076388D02*
X0329531Y0076388D01*
X0330369Y0077387D02*
X0326889Y0077387D01*
X0325890Y0078385D02*
X0331934Y0078385D01*
X0331682Y0079300D02*
X0335576Y0079300D01*
X0338329Y0082053D01*
X0338329Y0085947D01*
X0335576Y0088700D01*
X0331682Y0088700D01*
X0328929Y0085947D01*
X0328929Y0082053D01*
X0331682Y0079300D01*
X0331598Y0079384D02*
X0325659Y0079384D01*
X0326658Y0080382D02*
X0330600Y0080382D01*
X0329601Y0081381D02*
X0327656Y0081381D01*
X0328329Y0082379D02*
X0328929Y0082379D01*
X0328929Y0083378D02*
X0328329Y0083378D01*
X0328329Y0084376D02*
X0328929Y0084376D01*
X0328929Y0085375D02*
X0328329Y0085375D01*
X0327902Y0086373D02*
X0329355Y0086373D01*
X0330354Y0087372D02*
X0326904Y0087372D01*
X0325905Y0088370D02*
X0331352Y0088370D01*
X0331682Y0089300D02*
X0335576Y0089300D01*
X0338329Y0092053D01*
X0338329Y0095947D01*
X0335576Y0098700D01*
X0331682Y0098700D01*
X0328929Y0095947D01*
X0328929Y0092053D01*
X0331682Y0089300D01*
X0331613Y0089369D02*
X0319579Y0089369D01*
X0319579Y0090368D02*
X0320897Y0090368D01*
X0319899Y0091366D02*
X0319579Y0091366D01*
X0323129Y0091366D02*
X0324129Y0091366D01*
X0324129Y0090368D02*
X0323129Y0090368D01*
X0324129Y0089500D02*
X0325493Y0089500D01*
X0328129Y0092136D01*
X0328129Y0093500D01*
X0324129Y0093500D01*
X0324129Y0089500D01*
X0326360Y0090368D02*
X0330614Y0090368D01*
X0329616Y0091366D02*
X0327359Y0091366D01*
X0328129Y0092365D02*
X0328929Y0092365D01*
X0328929Y0093363D02*
X0328129Y0093363D01*
X0328929Y0094362D02*
X0324129Y0094362D01*
X0324129Y0095360D02*
X0323129Y0095360D01*
X0323129Y0096359D02*
X0324129Y0096359D01*
X0324129Y0097357D02*
X0323129Y0097357D01*
X0323129Y0098356D02*
X0324129Y0098356D01*
X0325637Y0098356D02*
X0331338Y0098356D01*
X0330339Y0097357D02*
X0326636Y0097357D01*
X0327634Y0096359D02*
X0329341Y0096359D01*
X0328929Y0095360D02*
X0328129Y0095360D01*
X0324129Y0093363D02*
X0323129Y0093363D01*
X0323129Y0092365D02*
X0324129Y0092365D01*
X0321352Y0088370D02*
X0319579Y0088370D01*
X0319579Y0087372D02*
X0320354Y0087372D01*
X0315179Y0087372D02*
X0302904Y0087372D01*
X0302904Y0087229D02*
X0300399Y0084725D01*
X0296858Y0084725D01*
X0294354Y0087229D01*
X0294354Y0090771D01*
X0296858Y0093275D01*
X0300399Y0093275D01*
X0302904Y0090771D01*
X0302904Y0087229D01*
X0302904Y0088370D02*
X0315179Y0088370D01*
X0315179Y0089369D02*
X0302904Y0089369D01*
X0302904Y0090368D02*
X0315179Y0090368D01*
X0315179Y0091366D02*
X0302308Y0091366D01*
X0301310Y0092365D02*
X0315179Y0092365D01*
X0315179Y0093363D02*
X0262377Y0093363D01*
X0263375Y0092365D02*
X0266327Y0092365D01*
X0265311Y0091366D02*
X0264374Y0091366D01*
X0264579Y0090368D02*
X0264789Y0090368D01*
X0264603Y0088370D02*
X0264579Y0088370D01*
X0264579Y0087372D02*
X0264885Y0087372D01*
X0264579Y0086373D02*
X0265500Y0086373D01*
X0264579Y0085375D02*
X0266768Y0085375D01*
X0268341Y0085375D02*
X0268916Y0085375D01*
X0268916Y0084925D02*
X0268949Y0084925D01*
X0269583Y0085026D01*
X0270193Y0085224D01*
X0270764Y0085515D01*
X0271283Y0085892D01*
X0271737Y0086345D01*
X0272114Y0086864D01*
X0272405Y0087436D01*
X0272603Y0088046D01*
X0272704Y0088679D01*
X0272704Y0088713D01*
X0268916Y0088713D01*
X0268916Y0084925D01*
X0268916Y0086373D02*
X0268341Y0086373D01*
X0268341Y0087372D02*
X0268916Y0087372D01*
X0268916Y0088370D02*
X0268341Y0088370D01*
X0268341Y0089369D02*
X0268916Y0089369D01*
X0268916Y0090368D02*
X0268341Y0090368D01*
X0268341Y0091366D02*
X0268916Y0091366D01*
X0268916Y0092365D02*
X0268341Y0092365D01*
X0270930Y0092365D02*
X0275948Y0092365D01*
X0276207Y0092624D02*
X0275005Y0091421D01*
X0274354Y0089850D01*
X0274354Y0088150D01*
X0275005Y0086579D01*
X0276207Y0085376D01*
X0277778Y0084725D01*
X0279479Y0084725D01*
X0281050Y0085376D01*
X0282253Y0086579D01*
X0282904Y0088150D01*
X0282904Y0089850D01*
X0282253Y0091421D01*
X0281050Y0092624D01*
X0279479Y0093275D01*
X0277778Y0093275D01*
X0276207Y0092624D01*
X0274982Y0091366D02*
X0271946Y0091366D01*
X0272469Y0090368D02*
X0274568Y0090368D01*
X0274354Y0089369D02*
X0272696Y0089369D01*
X0272655Y0088370D02*
X0274354Y0088370D01*
X0274676Y0087372D02*
X0272372Y0087372D01*
X0271757Y0086373D02*
X0275210Y0086373D01*
X0276210Y0085375D02*
X0270490Y0085375D01*
X0264579Y0084376D02*
X0285189Y0084376D01*
X0285189Y0083378D02*
X0264579Y0083378D01*
X0264579Y0082379D02*
X0285189Y0082379D01*
X0285189Y0081381D02*
X0264579Y0081381D01*
X0264579Y0080382D02*
X0285189Y0080382D01*
X0285189Y0079384D02*
X0264579Y0079384D01*
X0264579Y0078385D02*
X0285189Y0078385D01*
X0285189Y0077387D02*
X0264579Y0077387D01*
X0264579Y0076388D02*
X0285189Y0076388D01*
X0285189Y0075390D02*
X0264579Y0075390D01*
X0264579Y0074391D02*
X0285189Y0074391D01*
X0285189Y0073393D02*
X0264579Y0073393D01*
X0264579Y0072394D02*
X0285189Y0072394D01*
X0285189Y0071396D02*
X0267495Y0071396D01*
X0268075Y0070397D02*
X0285189Y0070397D01*
X0283425Y0069399D02*
X0268075Y0069399D01*
X0268075Y0068400D02*
X0283130Y0068400D01*
X0283130Y0067402D02*
X0268075Y0067402D01*
X0268075Y0066403D02*
X0283130Y0066403D01*
X0283130Y0065405D02*
X0268075Y0065405D01*
X0267797Y0064406D02*
X0283130Y0064406D01*
X0283130Y0063408D02*
X0257945Y0063408D01*
X0257945Y0063688D02*
X0258811Y0063688D01*
X0259807Y0064684D01*
X0259807Y0070816D01*
X0258811Y0071812D01*
X0252679Y0071812D01*
X0251683Y0070816D01*
X0251683Y0064684D01*
X0252679Y0063688D01*
X0253545Y0063688D01*
X0253545Y0060100D01*
X0252856Y0060100D01*
X0252237Y0059481D01*
X0252119Y0059600D01*
X0251777Y0059797D01*
X0251395Y0059900D01*
X0249139Y0059900D01*
X0249139Y0055750D01*
X0248139Y0055750D01*
X0248139Y0059900D01*
X0245882Y0059900D01*
X0245501Y0059797D01*
X0245159Y0059600D01*
X0244879Y0059321D01*
X0244682Y0058979D01*
X0244580Y0058597D01*
X0244580Y0055750D01*
X0248139Y0055750D01*
X0248139Y0054750D01*
X0249139Y0054750D01*
X0249139Y0050600D01*
X0251395Y0050600D01*
X0251777Y0050703D01*
X0252119Y0050900D01*
X0252237Y0051019D01*
X0252856Y0050400D01*
X0259382Y0050400D01*
X0260378Y0051396D01*
X0260378Y0059104D01*
X0259382Y0060100D01*
X0257945Y0060100D01*
X0257945Y0063688D01*
X0257945Y0062409D02*
X0283130Y0062409D01*
X0283130Y0061411D02*
X0257945Y0061411D01*
X0257945Y0060412D02*
X0284114Y0060412D01*
X0289094Y0057417D02*
X0260378Y0057417D01*
X0260378Y0058415D02*
X0289649Y0058415D01*
X0290648Y0059414D02*
X0260068Y0059414D01*
X0260378Y0056418D02*
X0289094Y0056418D01*
X0288187Y0055420D02*
X0260378Y0055420D01*
X0260378Y0054421D02*
X0287189Y0054421D01*
X0286190Y0053423D02*
X0260378Y0053423D01*
X0260378Y0052424D02*
X0285192Y0052424D01*
X0284193Y0051426D02*
X0260378Y0051426D01*
X0259409Y0050427D02*
X0283195Y0050427D01*
X0282196Y0049429D02*
X0218997Y0049429D01*
X0218997Y0049287D02*
X0218997Y0051560D01*
X0218895Y0051941D01*
X0218697Y0052283D01*
X0218418Y0052562D01*
X0218076Y0052760D01*
X0217694Y0052862D01*
X0216209Y0052862D01*
X0216209Y0049287D01*
X0216210Y0049287D02*
X0218997Y0049287D01*
X0218997Y0048713D02*
X0216210Y0048713D01*
X0216210Y0049287D01*
X0216209Y0049287D02*
X0215635Y0049287D01*
X0215635Y0048713D01*
X0216209Y0048713D01*
X0216209Y0045138D01*
X0217694Y0045138D01*
X0218076Y0045240D01*
X0218418Y0045437D01*
X0218697Y0045717D01*
X0218895Y0046059D01*
X0218997Y0046440D01*
X0218997Y0048713D01*
X0218997Y0048430D02*
X0281198Y0048430D01*
X0280199Y0047432D02*
X0218997Y0047432D01*
X0218995Y0046433D02*
X0279200Y0046433D01*
X0278202Y0045434D02*
X0218413Y0045434D01*
X0216209Y0045434D02*
X0215635Y0045434D01*
X0215635Y0045138D02*
X0215635Y0048713D01*
X0212847Y0048713D01*
X0212847Y0046440D01*
X0212949Y0046059D01*
X0213147Y0045717D01*
X0213426Y0045437D01*
X0213768Y0045240D01*
X0214150Y0045138D01*
X0215635Y0045138D01*
X0215635Y0046433D02*
X0216209Y0046433D01*
X0216209Y0047432D02*
X0215635Y0047432D01*
X0215635Y0048430D02*
X0216209Y0048430D01*
X0216209Y0049429D02*
X0215635Y0049429D01*
X0215635Y0049287D02*
X0215635Y0052862D01*
X0214150Y0052862D01*
X0213768Y0052760D01*
X0213426Y0052562D01*
X0213147Y0052283D01*
X0212949Y0051941D01*
X0212847Y0051560D01*
X0212847Y0049287D01*
X0215635Y0049287D01*
X0215635Y0050427D02*
X0216209Y0050427D01*
X0216209Y0051426D02*
X0215635Y0051426D01*
X0215635Y0052424D02*
X0216209Y0052424D01*
X0218556Y0052424D02*
X0244580Y0052424D01*
X0244580Y0051903D02*
X0244682Y0051521D01*
X0244879Y0051179D01*
X0245159Y0050900D01*
X0245501Y0050703D01*
X0245882Y0050600D01*
X0248139Y0050600D01*
X0248139Y0054750D01*
X0244580Y0054750D01*
X0244580Y0051903D01*
X0244737Y0051426D02*
X0218997Y0051426D01*
X0218997Y0050427D02*
X0252829Y0050427D01*
X0249139Y0051426D02*
X0248139Y0051426D01*
X0248139Y0052424D02*
X0249139Y0052424D01*
X0249139Y0053423D02*
X0248139Y0053423D01*
X0248139Y0054421D02*
X0249139Y0054421D01*
X0248139Y0055420D02*
X0209454Y0055420D01*
X0209963Y0054421D02*
X0244580Y0054421D01*
X0244580Y0053423D02*
X0209963Y0053423D01*
X0211753Y0052424D02*
X0213288Y0052424D01*
X0212847Y0051426D02*
X0212110Y0051426D01*
X0212110Y0050427D02*
X0212847Y0050427D01*
X0212847Y0049429D02*
X0212110Y0049429D01*
X0212110Y0048430D02*
X0212847Y0048430D01*
X0212847Y0047432D02*
X0212110Y0047432D01*
X0212110Y0046433D02*
X0212849Y0046433D01*
X0213431Y0045434D02*
X0211611Y0045434D01*
X0208456Y0056418D02*
X0244580Y0056418D01*
X0244580Y0057417D02*
X0207457Y0057417D01*
X0206459Y0058415D02*
X0244580Y0058415D01*
X0244972Y0059414D02*
X0205460Y0059414D01*
X0204462Y0060412D02*
X0253545Y0060412D01*
X0253545Y0061411D02*
X0203463Y0061411D01*
X0201489Y0067402D02*
X0237869Y0067402D01*
X0237390Y0068400D02*
X0238868Y0068400D01*
X0238389Y0069399D02*
X0239866Y0069399D01*
X0239952Y0070397D02*
X0239387Y0070397D01*
X0236160Y0073393D02*
X0225663Y0073393D01*
X0225663Y0072640D02*
X0225663Y0075360D01*
X0225623Y0075400D01*
X0227750Y0075400D01*
X0231358Y0075400D01*
X0231558Y0075600D01*
X0232654Y0075600D01*
X0232654Y0079550D01*
X0232754Y0079550D01*
X0232754Y0075600D01*
X0233849Y0075600D01*
X0234049Y0075400D01*
X0236803Y0075400D01*
X0236803Y0074035D01*
X0235217Y0072450D01*
X0225473Y0072450D01*
X0225663Y0072640D01*
X0225663Y0074391D02*
X0236803Y0074391D01*
X0236803Y0075390D02*
X0225634Y0075390D01*
X0222379Y0074000D02*
X0220105Y0076274D01*
X0220105Y0079600D01*
X0220105Y0077976D01*
X0223255Y0079600D02*
X0223255Y0082376D01*
X0227379Y0086500D01*
X0229554Y0084325D01*
X0229554Y0079600D01*
X0229879Y0079925D01*
X0232654Y0079650D02*
X0232654Y0083600D01*
X0231754Y0083600D01*
X0231754Y0085236D01*
X0229579Y0087411D01*
X0229579Y0100589D01*
X0233290Y0104300D01*
X0234579Y0105589D01*
X0234579Y0109271D01*
X0234708Y0109400D01*
X0235803Y0109400D01*
X0235803Y0113350D01*
X0235903Y0113350D01*
X0235903Y0109400D01*
X0236999Y0109400D01*
X0237199Y0109200D01*
X0243829Y0109200D01*
X0243829Y0089695D01*
X0242489Y0091034D01*
X0239768Y0091034D01*
X0237844Y0089110D01*
X0237844Y0086390D01*
X0239768Y0084466D01*
X0241302Y0084466D01*
X0241967Y0083800D01*
X0234049Y0083800D01*
X0233849Y0083600D01*
X0232754Y0083600D01*
X0232754Y0079650D01*
X0232654Y0079650D01*
X0232654Y0079384D02*
X0232754Y0079384D01*
X0232754Y0080382D02*
X0232654Y0080382D01*
X0232654Y0081381D02*
X0232754Y0081381D01*
X0232754Y0082379D02*
X0232654Y0082379D01*
X0232654Y0083378D02*
X0232754Y0083378D01*
X0231754Y0084376D02*
X0241391Y0084376D01*
X0243402Y0085476D02*
X0241129Y0087750D01*
X0243402Y0085476D02*
X0248029Y0085476D01*
X0244952Y0082379D02*
X0251429Y0082379D01*
X0251429Y0081381D02*
X0244952Y0081381D01*
X0244952Y0080382D02*
X0251429Y0080382D01*
X0251429Y0079384D02*
X0244952Y0079384D01*
X0244952Y0078385D02*
X0249619Y0078385D01*
X0248621Y0077387D02*
X0244952Y0077387D01*
X0244945Y0076388D02*
X0247844Y0076388D01*
X0247844Y0075390D02*
X0244352Y0075390D01*
X0244352Y0074391D02*
X0247844Y0074391D01*
X0248341Y0073393D02*
X0244352Y0073393D01*
X0244352Y0072394D02*
X0249340Y0072394D01*
X0251683Y0070397D02*
X0244352Y0070397D01*
X0244352Y0069399D02*
X0251683Y0069399D01*
X0251683Y0068400D02*
X0244352Y0068400D01*
X0244092Y0067402D02*
X0251683Y0067402D01*
X0251683Y0066403D02*
X0243093Y0066403D01*
X0242095Y0065405D02*
X0251683Y0065405D01*
X0251960Y0064406D02*
X0241096Y0064406D01*
X0240098Y0063408D02*
X0253545Y0063408D01*
X0253545Y0062409D02*
X0239099Y0062409D01*
X0248139Y0059414D02*
X0249139Y0059414D01*
X0249139Y0058415D02*
X0248139Y0058415D01*
X0248139Y0057417D02*
X0249139Y0057417D01*
X0249139Y0056418D02*
X0248139Y0056418D01*
X0255745Y0055624D02*
X0256119Y0055250D01*
X0255745Y0055624D02*
X0255745Y0067750D01*
X0259807Y0067402D02*
X0259950Y0067402D01*
X0259950Y0068400D02*
X0259807Y0068400D01*
X0259807Y0069399D02*
X0259950Y0069399D01*
X0259950Y0070397D02*
X0259807Y0070397D01*
X0260179Y0071396D02*
X0259228Y0071396D01*
X0256840Y0072394D02*
X0252918Y0072394D01*
X0252262Y0071396D02*
X0244352Y0071396D01*
X0251129Y0075250D02*
X0253629Y0077750D01*
X0253629Y0086500D01*
X0251503Y0088626D01*
X0248029Y0088626D01*
X0248304Y0091500D02*
X0248029Y0091776D01*
X0254603Y0091776D01*
X0258629Y0087750D01*
X0258629Y0075250D01*
X0255344Y0075390D02*
X0254413Y0075390D01*
X0254413Y0074391D02*
X0255344Y0074391D01*
X0255841Y0073393D02*
X0253916Y0073393D01*
X0259807Y0066403D02*
X0259950Y0066403D01*
X0259950Y0065405D02*
X0259807Y0065405D01*
X0259530Y0064406D02*
X0260228Y0064406D01*
X0264013Y0067750D02*
X0262379Y0069384D01*
X0262379Y0090250D01*
X0257704Y0094925D01*
X0248029Y0094925D01*
X0248029Y0098075D02*
X0298954Y0098075D01*
X0302379Y0101500D01*
X0307379Y0106500D01*
X0307379Y0111500D01*
X0314879Y0119000D01*
X0316129Y0119000D01*
X0311273Y0123318D02*
X0297422Y0123318D01*
X0298420Y0122320D02*
X0309802Y0122320D01*
X0309003Y0121321D02*
X0299419Y0121321D01*
X0301951Y0120323D02*
X0308589Y0120323D01*
X0308429Y0119324D02*
X0302949Y0119324D01*
X0303163Y0118326D02*
X0308429Y0118326D01*
X0308734Y0117327D02*
X0303163Y0117327D01*
X0303102Y0116329D02*
X0309096Y0116329D01*
X0308098Y0115330D02*
X0302104Y0115330D01*
X0299879Y0117750D02*
X0296129Y0121500D01*
X0292379Y0121500D01*
X0272172Y0141707D01*
X0259879Y0141707D01*
X0259879Y0139000D01*
X0267379Y0131500D01*
X0267379Y0121884D01*
X0271441Y0122320D02*
X0288448Y0122320D01*
X0289446Y0121321D02*
X0281930Y0121321D01*
X0285619Y0120323D02*
X0286619Y0120323D01*
X0286619Y0119324D02*
X0285619Y0119324D01*
X0285619Y0118326D02*
X0286619Y0118326D01*
X0286619Y0117327D02*
X0285619Y0117327D01*
X0286619Y0116329D02*
X0296655Y0116329D01*
X0296594Y0117327D02*
X0290178Y0117327D01*
X0290178Y0118326D02*
X0296192Y0118326D01*
X0297654Y0115330D02*
X0290178Y0115330D01*
X0290178Y0116000D02*
X0286619Y0116000D01*
X0286619Y0111850D01*
X0288875Y0111850D01*
X0289257Y0111953D01*
X0289599Y0112150D01*
X0289878Y0112429D01*
X0290076Y0112771D01*
X0290178Y0113153D01*
X0290178Y0116000D01*
X0290178Y0114332D02*
X0307099Y0114332D01*
X0306101Y0113333D02*
X0290178Y0113333D01*
X0289784Y0112335D02*
X0305179Y0112335D01*
X0305179Y0111336D02*
X0271441Y0111336D01*
X0271441Y0112335D02*
X0274691Y0112335D01*
X0274380Y0113333D02*
X0271441Y0113333D01*
X0271229Y0110338D02*
X0305179Y0110338D01*
X0305179Y0109339D02*
X0279184Y0109339D01*
X0280183Y0108341D02*
X0305179Y0108341D01*
X0305110Y0107342D02*
X0280663Y0107342D01*
X0280663Y0106344D02*
X0304111Y0106344D01*
X0303113Y0105345D02*
X0280663Y0105345D01*
X0279870Y0104347D02*
X0300581Y0104347D01*
X0299582Y0103348D02*
X0278872Y0103348D01*
X0275886Y0103348D02*
X0252229Y0103348D01*
X0252229Y0102350D02*
X0299094Y0102350D01*
X0299094Y0101351D02*
X0252229Y0101351D01*
X0252229Y0100353D02*
X0298120Y0100353D01*
X0301347Y0097357D02*
X0315179Y0097357D01*
X0315179Y0096359D02*
X0300349Y0096359D01*
X0303879Y0098356D02*
X0315179Y0098356D01*
X0315179Y0099354D02*
X0304877Y0099354D01*
X0305663Y0100353D02*
X0315179Y0100353D01*
X0315179Y0101351D02*
X0305663Y0101351D01*
X0306340Y0102350D02*
X0315179Y0102350D01*
X0315179Y0103348D02*
X0307338Y0103348D01*
X0308337Y0104347D02*
X0315179Y0104347D01*
X0315179Y0105345D02*
X0309335Y0105345D01*
X0309579Y0106344D02*
X0315361Y0106344D01*
X0316360Y0107342D02*
X0309579Y0107342D01*
X0309579Y0108341D02*
X0317358Y0108341D01*
X0318357Y0109339D02*
X0309579Y0109339D01*
X0309579Y0110338D02*
X0319355Y0110338D01*
X0320354Y0111336D02*
X0310326Y0111336D01*
X0311325Y0112335D02*
X0321352Y0112335D01*
X0321594Y0113333D02*
X0312323Y0113333D01*
X0320140Y0114332D02*
X0321816Y0114332D01*
X0322106Y0115330D02*
X0322679Y0115330D01*
X0324879Y0112750D02*
X0317379Y0105250D01*
X0317379Y0081500D01*
X0301129Y0065250D01*
X0294869Y0065250D01*
X0299128Y0068400D02*
X0301168Y0068400D01*
X0302166Y0069399D02*
X0298833Y0069399D01*
X0303165Y0070397D02*
X0289589Y0070397D01*
X0289589Y0071396D02*
X0304163Y0071396D01*
X0305162Y0072394D02*
X0289589Y0072394D01*
X0289589Y0073393D02*
X0306160Y0073393D01*
X0307159Y0074391D02*
X0289589Y0074391D01*
X0289589Y0075390D02*
X0308157Y0075390D01*
X0309156Y0076388D02*
X0289589Y0076388D01*
X0289589Y0077387D02*
X0310154Y0077387D01*
X0311153Y0078385D02*
X0289589Y0078385D01*
X0289589Y0079384D02*
X0312151Y0079384D01*
X0313150Y0080382D02*
X0289589Y0080382D01*
X0289589Y0081381D02*
X0314148Y0081381D01*
X0315147Y0082379D02*
X0289589Y0082379D01*
X0289589Y0083378D02*
X0315179Y0083378D01*
X0315179Y0084376D02*
X0289589Y0084376D01*
X0291048Y0085375D02*
X0296208Y0085375D01*
X0295210Y0086373D02*
X0292048Y0086373D01*
X0292581Y0087372D02*
X0294354Y0087372D01*
X0294354Y0088370D02*
X0292904Y0088370D01*
X0292904Y0089369D02*
X0294354Y0089369D01*
X0294354Y0090368D02*
X0292689Y0090368D01*
X0292276Y0091366D02*
X0294949Y0091366D01*
X0295948Y0092365D02*
X0291310Y0092365D01*
X0288629Y0089000D02*
X0287389Y0087760D01*
X0287389Y0065250D01*
X0290664Y0060412D02*
X0291594Y0060412D01*
X0294110Y0059414D02*
X0318929Y0059414D01*
X0318929Y0060412D02*
X0298144Y0060412D01*
X0299128Y0061411D02*
X0318929Y0061411D01*
X0318929Y0062409D02*
X0299128Y0062409D01*
X0302398Y0063408D02*
X0318929Y0063408D01*
X0318929Y0064406D02*
X0303396Y0064406D01*
X0304395Y0065405D02*
X0318929Y0065405D01*
X0318929Y0066403D02*
X0305393Y0066403D01*
X0306392Y0067402D02*
X0318929Y0067402D01*
X0318929Y0068400D02*
X0307390Y0068400D01*
X0308389Y0069399D02*
X0318929Y0069399D01*
X0318929Y0070397D02*
X0309387Y0070397D01*
X0310386Y0071396D02*
X0318929Y0071396D01*
X0318929Y0072394D02*
X0311384Y0072394D01*
X0312383Y0073393D02*
X0318929Y0073393D01*
X0318929Y0074391D02*
X0313381Y0074391D01*
X0314380Y0075390D02*
X0318929Y0075390D01*
X0318929Y0076388D02*
X0315378Y0076388D01*
X0316377Y0077387D02*
X0318381Y0077387D01*
X0317382Y0078385D02*
X0317375Y0078385D01*
X0317379Y0081500D02*
X0321129Y0077750D01*
X0321129Y0071500D01*
X0323629Y0074000D01*
X0321129Y0071500D02*
X0321129Y0047750D01*
X0321129Y0021500D01*
X0325829Y0021470D02*
X0340179Y0021470D01*
X0340179Y0020472D02*
X0325829Y0020472D01*
X0325829Y0019473D02*
X0340179Y0019473D01*
X0340179Y0018475D02*
X0325829Y0018475D01*
X0325792Y0017476D02*
X0340179Y0017476D01*
X0340179Y0016478D02*
X0325378Y0016478D01*
X0324755Y0015479D02*
X0340179Y0015479D01*
X0340179Y0014481D02*
X0323707Y0014481D01*
X0325829Y0022469D02*
X0340179Y0022469D01*
X0340179Y0023467D02*
X0325829Y0023467D01*
X0325829Y0024466D02*
X0340179Y0024466D01*
X0340179Y0025464D02*
X0325817Y0025464D01*
X0325403Y0026463D02*
X0340179Y0026463D01*
X0340179Y0027461D02*
X0324814Y0027461D01*
X0323816Y0028460D02*
X0340179Y0028460D01*
X0340179Y0029458D02*
X0323329Y0029458D01*
X0323329Y0030457D02*
X0340179Y0030457D01*
X0340179Y0031455D02*
X0323329Y0031455D01*
X0323329Y0032454D02*
X0340179Y0032454D01*
X0340179Y0033452D02*
X0323329Y0033452D01*
X0323329Y0034451D02*
X0340179Y0034451D01*
X0340179Y0035449D02*
X0323329Y0035449D01*
X0323329Y0036448D02*
X0340179Y0036448D01*
X0340179Y0037446D02*
X0323329Y0037446D01*
X0323329Y0038445D02*
X0340179Y0038445D01*
X0340179Y0039443D02*
X0323329Y0039443D01*
X0311629Y0040442D02*
X0310629Y0040442D01*
X0310629Y0041440D02*
X0311629Y0041440D01*
X0311629Y0042439D02*
X0310629Y0042439D01*
X0310629Y0043437D02*
X0311629Y0043437D01*
X0311629Y0044436D02*
X0310629Y0044436D01*
X0310629Y0045434D02*
X0311629Y0045434D01*
X0311629Y0046433D02*
X0310629Y0046433D01*
X0315629Y0048430D02*
X0316429Y0048430D01*
X0316429Y0049429D02*
X0315629Y0049429D01*
X0315629Y0050427D02*
X0316429Y0050427D01*
X0316429Y0051426D02*
X0315578Y0051426D01*
X0315316Y0052424D02*
X0316735Y0052424D01*
X0317155Y0053423D02*
X0314749Y0053423D01*
X0313732Y0054421D02*
X0318153Y0054421D01*
X0318929Y0057417D02*
X0295663Y0057417D01*
X0295108Y0058415D02*
X0318929Y0058415D01*
X0311629Y0054421D02*
X0310629Y0054421D01*
X0310629Y0053423D02*
X0311629Y0053423D01*
X0311629Y0052424D02*
X0310629Y0052424D01*
X0310629Y0051426D02*
X0311629Y0051426D01*
X0311629Y0050427D02*
X0310629Y0050427D01*
X0310629Y0049429D02*
X0311629Y0049429D01*
X0292379Y0056500D02*
X0267379Y0031500D01*
X0242379Y0031500D01*
X0244072Y0034451D02*
X0267218Y0034451D01*
X0303816Y0028460D02*
X0308988Y0028460D01*
X0307726Y0027461D02*
X0304814Y0027461D01*
X0305403Y0026463D02*
X0307078Y0026463D01*
X0306725Y0025464D02*
X0305817Y0025464D01*
X0305829Y0024466D02*
X0306629Y0024466D01*
X0306629Y0023467D02*
X0305829Y0023467D01*
X0305829Y0022469D02*
X0306629Y0022469D01*
X0315629Y0022469D02*
X0316429Y0022469D01*
X0316429Y0023467D02*
X0315629Y0023467D01*
X0315629Y0024466D02*
X0316429Y0024466D01*
X0316441Y0025464D02*
X0315532Y0025464D01*
X0315179Y0026463D02*
X0316855Y0026463D01*
X0317443Y0027461D02*
X0314531Y0027461D01*
X0340179Y0013482D02*
X0074472Y0013482D01*
X0073474Y0012484D02*
X0340179Y0012484D01*
X0340179Y0011485D02*
X0072475Y0011485D01*
X0071477Y0010487D02*
X0340179Y0010487D01*
X0340179Y0070397D02*
X0336673Y0070397D01*
X0337637Y0071396D02*
X0340179Y0071396D01*
X0340179Y0072394D02*
X0338051Y0072394D01*
X0338329Y0073393D02*
X0340179Y0073393D01*
X0340179Y0074391D02*
X0338329Y0074391D01*
X0338140Y0075390D02*
X0340179Y0075390D01*
X0340179Y0076388D02*
X0337727Y0076388D01*
X0336889Y0077387D02*
X0340179Y0077387D01*
X0340179Y0078385D02*
X0335323Y0078385D01*
X0335659Y0079384D02*
X0340179Y0079384D01*
X0340179Y0080382D02*
X0336658Y0080382D01*
X0337656Y0081381D02*
X0340179Y0081381D01*
X0340179Y0082379D02*
X0338329Y0082379D01*
X0338329Y0083378D02*
X0340179Y0083378D01*
X0340179Y0084376D02*
X0338329Y0084376D01*
X0338329Y0085375D02*
X0340179Y0085375D01*
X0340179Y0086373D02*
X0337902Y0086373D01*
X0336904Y0087372D02*
X0340179Y0087372D01*
X0340179Y0088370D02*
X0335905Y0088370D01*
X0335645Y0089369D02*
X0340179Y0089369D01*
X0340179Y0090368D02*
X0336643Y0090368D01*
X0337642Y0091366D02*
X0340179Y0091366D01*
X0340179Y0092365D02*
X0338329Y0092365D01*
X0338329Y0093363D02*
X0340179Y0093363D01*
X0340179Y0094362D02*
X0338329Y0094362D01*
X0338329Y0095360D02*
X0340179Y0095360D01*
X0340179Y0096359D02*
X0337917Y0096359D01*
X0336918Y0097357D02*
X0340179Y0097357D01*
X0340179Y0098356D02*
X0335920Y0098356D01*
X0340179Y0099354D02*
X0319579Y0099354D01*
X0319579Y0098356D02*
X0321620Y0098356D01*
X0320622Y0097357D02*
X0319579Y0097357D01*
X0319579Y0096359D02*
X0319623Y0096359D01*
X0315179Y0095360D02*
X0260380Y0095360D01*
X0261378Y0094362D02*
X0315179Y0094362D01*
X0319579Y0100353D02*
X0340179Y0100353D01*
X0340179Y0101351D02*
X0319579Y0101351D01*
X0319579Y0102350D02*
X0340179Y0102350D01*
X0340179Y0103348D02*
X0319579Y0103348D01*
X0319587Y0104347D02*
X0340179Y0104347D01*
X0340179Y0105345D02*
X0320585Y0105345D01*
X0321584Y0106344D02*
X0340179Y0106344D01*
X0340179Y0107342D02*
X0322582Y0107342D01*
X0323581Y0108341D02*
X0340179Y0108341D01*
X0340179Y0109339D02*
X0324579Y0109339D01*
X0327111Y0110338D02*
X0340179Y0110338D01*
X0340179Y0111336D02*
X0328110Y0111336D01*
X0328163Y0112335D02*
X0340179Y0112335D01*
X0340179Y0113333D02*
X0328163Y0113333D01*
X0327942Y0114332D02*
X0340179Y0114332D01*
X0340179Y0115330D02*
X0327079Y0115330D01*
X0327079Y0116329D02*
X0340179Y0116329D01*
X0340179Y0117327D02*
X0327079Y0117327D01*
X0327079Y0118326D02*
X0340179Y0118326D01*
X0340179Y0119324D02*
X0327079Y0119324D01*
X0327079Y0120323D02*
X0340179Y0120323D01*
X0340179Y0121321D02*
X0327079Y0121321D01*
X0327079Y0122320D02*
X0340179Y0122320D01*
X0340179Y0123318D02*
X0327079Y0123318D01*
X0327079Y0124317D02*
X0340179Y0124317D01*
X0340179Y0125315D02*
X0327079Y0125315D01*
X0327079Y0126314D02*
X0340179Y0126314D01*
X0340179Y0127312D02*
X0327079Y0127312D01*
X0327079Y0128311D02*
X0340179Y0128311D01*
X0340179Y0129309D02*
X0327079Y0129309D01*
X0327079Y0130308D02*
X0340179Y0130308D01*
X0340179Y0131306D02*
X0327079Y0131306D01*
X0327079Y0132305D02*
X0340179Y0132305D01*
X0340179Y0133303D02*
X0327079Y0133303D01*
X0327079Y0134302D02*
X0340179Y0134302D01*
X0340179Y0135301D02*
X0327079Y0135301D01*
X0327079Y0136299D02*
X0340179Y0136299D01*
X0340179Y0137298D02*
X0327079Y0137298D01*
X0327079Y0138296D02*
X0340179Y0138296D01*
X0340179Y0139295D02*
X0327079Y0139295D01*
X0327079Y0140293D02*
X0340179Y0140293D01*
X0340179Y0141292D02*
X0327079Y0141292D01*
X0327079Y0142290D02*
X0340179Y0142290D01*
X0340179Y0143289D02*
X0327079Y0143289D01*
X0327079Y0144287D02*
X0340179Y0144287D01*
X0340179Y0145286D02*
X0327079Y0145286D01*
X0326956Y0146284D02*
X0340179Y0146284D01*
X0340179Y0147283D02*
X0325957Y0147283D01*
X0324959Y0148281D02*
X0340179Y0148281D01*
X0340179Y0149280D02*
X0323960Y0149280D01*
X0323687Y0150278D02*
X0340179Y0150278D01*
X0340179Y0151277D02*
X0323273Y0151277D01*
X0322500Y0152275D02*
X0340179Y0152275D01*
X0340179Y0153274D02*
X0321093Y0153274D01*
X0320856Y0154830D02*
X0321487Y0155151D01*
X0322060Y0155568D01*
X0322561Y0156068D01*
X0322977Y0156641D01*
X0323299Y0157273D01*
X0323518Y0157946D01*
X0323606Y0158500D01*
X0316629Y0158500D01*
X0316629Y0159500D01*
X0323606Y0159500D01*
X0323518Y0160054D01*
X0323299Y0160727D01*
X0322977Y0161359D01*
X0322561Y0161932D01*
X0322060Y0162432D01*
X0321487Y0162849D01*
X0320856Y0163170D01*
X0320182Y0163389D01*
X0319483Y0163500D01*
X0316629Y0163500D01*
X0316629Y0159500D01*
X0315629Y0159500D01*
X0315629Y0163500D01*
X0312775Y0163500D01*
X0312075Y0163389D01*
X0311401Y0163170D01*
X0310770Y0162849D01*
X0310197Y0162432D01*
X0309696Y0161932D01*
X0309280Y0161359D01*
X0308958Y0160727D01*
X0308740Y0160054D01*
X0308652Y0159500D01*
X0315629Y0159500D01*
X0315629Y0158500D01*
X0316629Y0158500D01*
X0316629Y0154500D01*
X0319483Y0154500D01*
X0320182Y0154611D01*
X0320856Y0154830D01*
X0321652Y0155271D02*
X0340179Y0155271D01*
X0340179Y0156269D02*
X0322707Y0156269D01*
X0323297Y0157268D02*
X0340179Y0157268D01*
X0340179Y0158266D02*
X0323569Y0158266D01*
X0323450Y0160263D02*
X0340179Y0160263D01*
X0340179Y0159265D02*
X0316629Y0159265D01*
X0316629Y0160263D02*
X0315629Y0160263D01*
X0315629Y0159265D02*
X0272735Y0159265D01*
X0271737Y0160263D02*
X0308808Y0160263D01*
X0309231Y0161262D02*
X0270738Y0161262D01*
X0269740Y0162260D02*
X0310025Y0162260D01*
X0311674Y0163259D02*
X0268741Y0163259D01*
X0267742Y0164257D02*
X0340179Y0164257D01*
X0340179Y0163259D02*
X0320584Y0163259D01*
X0322232Y0162260D02*
X0340179Y0162260D01*
X0340179Y0161262D02*
X0323027Y0161262D01*
X0316629Y0161262D02*
X0315629Y0161262D01*
X0315629Y0162260D02*
X0316629Y0162260D01*
X0316629Y0163259D02*
X0315629Y0163259D01*
X0315629Y0158500D02*
X0308652Y0158500D01*
X0308740Y0157946D01*
X0308958Y0157273D01*
X0309280Y0156641D01*
X0309696Y0156068D01*
X0310197Y0155568D01*
X0310770Y0155151D01*
X0311401Y0154830D01*
X0312075Y0154611D01*
X0312775Y0154500D01*
X0315629Y0154500D01*
X0315629Y0158500D01*
X0315629Y0158266D02*
X0316629Y0158266D01*
X0316629Y0157268D02*
X0315629Y0157268D01*
X0315629Y0156269D02*
X0316629Y0156269D01*
X0316629Y0155271D02*
X0315629Y0155271D01*
X0311165Y0153274D02*
X0278726Y0153274D01*
X0277728Y0154272D02*
X0340179Y0154272D01*
X0340179Y0165256D02*
X0266744Y0165256D01*
X0265745Y0166254D02*
X0340179Y0166254D01*
X0340179Y0167253D02*
X0264747Y0167253D01*
X0263748Y0168251D02*
X0340179Y0168251D01*
X0340179Y0169250D02*
X0262750Y0169250D01*
X0261751Y0170248D02*
X0340179Y0170248D01*
X0340179Y0171247D02*
X0260978Y0171247D01*
X0260978Y0171022D02*
X0260978Y0176023D01*
X0260360Y0176641D01*
X0260479Y0176760D01*
X0260676Y0177102D01*
X0260778Y0177484D01*
X0260778Y0179740D01*
X0256629Y0179740D01*
X0256629Y0180740D01*
X0260778Y0180740D01*
X0260778Y0182997D01*
X0260676Y0183378D01*
X0260479Y0183720D01*
X0260199Y0183999D01*
X0259857Y0184197D01*
X0259476Y0184299D01*
X0256629Y0184299D01*
X0256629Y0180740D01*
X0255629Y0180740D01*
X0255629Y0184299D01*
X0252782Y0184299D01*
X0252400Y0184197D01*
X0252058Y0183999D01*
X0251779Y0183720D01*
X0251581Y0183378D01*
X0251479Y0182997D01*
X0251479Y0180740D01*
X0255629Y0180740D01*
X0255629Y0179740D01*
X0251479Y0179740D01*
X0251479Y0177484D01*
X0251581Y0177102D01*
X0251779Y0176760D01*
X0251898Y0176641D01*
X0251279Y0176023D01*
X0251279Y0171021D01*
X0250217Y0169960D01*
X0229915Y0169960D01*
X0229915Y0170433D01*
X0228920Y0171428D01*
X0221999Y0171428D01*
X0221254Y0170683D01*
X0221254Y0172886D01*
X0221306Y0172693D01*
X0221503Y0172351D01*
X0221783Y0172071D01*
X0222125Y0171874D01*
X0222506Y0171772D01*
X0224975Y0171772D01*
X0224975Y0174756D01*
X0221204Y0174756D01*
X0221204Y0174223D01*
X0220258Y0175168D01*
X0217566Y0175168D01*
X0217566Y0190637D01*
X0217738Y0190637D01*
X0218734Y0191632D01*
X0218734Y0214694D01*
X0217738Y0215690D01*
X0212393Y0215690D01*
X0211397Y0214694D01*
X0211397Y0191632D01*
X0212393Y0190637D01*
X0212566Y0190637D01*
X0212566Y0174396D01*
X0212342Y0174173D01*
X0212342Y0168827D01*
X0213338Y0167831D01*
X0220258Y0167831D01*
X0221004Y0168577D01*
X0221004Y0165087D01*
X0221999Y0164091D01*
X0228920Y0164091D01*
X0229915Y0165087D01*
X0229915Y0165560D01*
X0252040Y0165560D01*
X0254981Y0168501D01*
X0257277Y0168501D01*
X0282679Y0143099D01*
X0282679Y0141445D01*
X0281594Y0140360D01*
X0281594Y0137640D01*
X0283518Y0135716D01*
X0286239Y0135716D01*
X0288163Y0137640D01*
X0288163Y0140360D01*
X0287079Y0141445D01*
X0287079Y0144921D01*
X0260978Y0171022D01*
X0260978Y0172245D02*
X0340179Y0172245D01*
X0340179Y0173244D02*
X0260978Y0173244D01*
X0260978Y0174242D02*
X0340179Y0174242D01*
X0340179Y0175241D02*
X0260978Y0175241D01*
X0260762Y0176239D02*
X0340179Y0176239D01*
X0340179Y0177238D02*
X0260713Y0177238D01*
X0260778Y0178237D02*
X0340179Y0178237D01*
X0340179Y0179235D02*
X0260778Y0179235D01*
X0260778Y0181232D02*
X0340179Y0181232D01*
X0340179Y0180234D02*
X0256629Y0180234D01*
X0256629Y0181232D02*
X0255629Y0181232D01*
X0255629Y0180234D02*
X0217566Y0180234D01*
X0217566Y0181232D02*
X0251479Y0181232D01*
X0251479Y0182231D02*
X0217566Y0182231D01*
X0217566Y0183229D02*
X0251541Y0183229D01*
X0252514Y0184228D02*
X0217566Y0184228D01*
X0217566Y0185226D02*
X0340179Y0185226D01*
X0340179Y0184228D02*
X0259743Y0184228D01*
X0260716Y0183229D02*
X0340179Y0183229D01*
X0340179Y0182231D02*
X0260778Y0182231D01*
X0256629Y0182231D02*
X0255629Y0182231D01*
X0255629Y0183229D02*
X0256629Y0183229D01*
X0256629Y0184228D02*
X0255629Y0184228D01*
X0251479Y0179235D02*
X0217566Y0179235D01*
X0217566Y0178237D02*
X0221610Y0178237D01*
X0221503Y0178130D02*
X0221306Y0177788D01*
X0221204Y0177406D01*
X0221204Y0175724D01*
X0224975Y0175724D01*
X0224975Y0174756D01*
X0225944Y0174756D01*
X0225944Y0175724D01*
X0229715Y0175724D01*
X0229715Y0177406D01*
X0229613Y0177788D01*
X0229416Y0178130D01*
X0229136Y0178409D01*
X0228794Y0178606D01*
X0228413Y0178709D01*
X0225944Y0178709D01*
X0225944Y0175724D01*
X0224975Y0175724D01*
X0224975Y0178709D01*
X0222506Y0178709D01*
X0222125Y0178606D01*
X0221783Y0178409D01*
X0221503Y0178130D01*
X0221204Y0177238D02*
X0217566Y0177238D01*
X0217566Y0176239D02*
X0221204Y0176239D01*
X0221184Y0174242D02*
X0221204Y0174242D01*
X0221254Y0172245D02*
X0221608Y0172245D01*
X0221818Y0171247D02*
X0221254Y0171247D01*
X0221004Y0168251D02*
X0220678Y0168251D01*
X0221004Y0167253D02*
X0203280Y0167253D01*
X0202282Y0168251D02*
X0212918Y0168251D01*
X0212342Y0169250D02*
X0201697Y0169250D01*
X0201697Y0170248D02*
X0212342Y0170248D01*
X0212342Y0171247D02*
X0201697Y0171247D01*
X0201518Y0172245D02*
X0212342Y0172245D01*
X0212342Y0173244D02*
X0137079Y0173244D01*
X0137079Y0174242D02*
X0187548Y0174242D01*
X0187566Y0174211D02*
X0187846Y0173932D01*
X0188188Y0173734D01*
X0188569Y0173632D01*
X0190841Y0173632D01*
X0190841Y0176419D01*
X0187267Y0176419D01*
X0187267Y0174934D01*
X0187369Y0174553D01*
X0187566Y0174211D01*
X0187267Y0175241D02*
X0137079Y0175241D01*
X0137079Y0176239D02*
X0187267Y0176239D01*
X0187267Y0176994D02*
X0187267Y0178479D01*
X0187369Y0178860D01*
X0187566Y0179203D01*
X0187846Y0179482D01*
X0188188Y0179679D01*
X0188569Y0179781D01*
X0190841Y0179781D01*
X0190841Y0176994D01*
X0190841Y0176419D01*
X0191416Y0176419D01*
X0191416Y0173632D01*
X0193688Y0173632D01*
X0194070Y0173734D01*
X0194412Y0173932D01*
X0194691Y0174211D01*
X0194889Y0174553D01*
X0194991Y0174934D01*
X0194991Y0176419D01*
X0191416Y0176419D01*
X0191416Y0176994D01*
X0190841Y0176994D01*
X0187267Y0176994D01*
X0187267Y0177238D02*
X0177915Y0177238D01*
X0177847Y0177170D02*
X0178126Y0177449D01*
X0178324Y0177791D01*
X0178426Y0178173D01*
X0178426Y0188500D01*
X0165221Y0188500D01*
X0165221Y0176870D01*
X0177123Y0176870D01*
X0177505Y0176972D01*
X0177847Y0177170D01*
X0178426Y0178237D02*
X0187267Y0178237D01*
X0187599Y0179235D02*
X0178426Y0179235D01*
X0178426Y0180234D02*
X0212566Y0180234D01*
X0212566Y0181232D02*
X0194909Y0181232D01*
X0194970Y0181293D02*
X0200169Y0181293D01*
X0201088Y0181674D01*
X0208795Y0189381D01*
X0209498Y0190084D01*
X0209727Y0190637D01*
X0209864Y0190637D01*
X0210860Y0191632D01*
X0210860Y0214694D01*
X0209864Y0215690D01*
X0204519Y0215690D01*
X0203523Y0214694D01*
X0203523Y0191632D01*
X0203749Y0191406D01*
X0198637Y0186293D01*
X0194970Y0186293D01*
X0194195Y0187068D01*
X0193629Y0187068D01*
X0193629Y0194291D01*
X0193248Y0195209D01*
X0192545Y0195913D01*
X0175541Y0212916D01*
X0174838Y0213619D01*
X0173919Y0214000D01*
X0146881Y0214000D01*
X0145963Y0213619D01*
X0145259Y0212916D01*
X0133988Y0201645D01*
X0132127Y0201645D01*
X0131131Y0200649D01*
X0131131Y0196662D01*
X0117418Y0182949D01*
X0117904Y0183957D01*
X0118310Y0185118D01*
X0118584Y0186317D01*
X0118721Y0187539D01*
X0118721Y0187654D01*
X0108272Y0187654D01*
X0108272Y0188654D01*
X0107272Y0188654D01*
X0107272Y0199102D01*
X0107158Y0199102D01*
X0105936Y0198965D01*
X0104737Y0198691D01*
X0103576Y0198285D01*
X0102468Y0197751D01*
X0101427Y0197097D01*
X0100465Y0196330D01*
X0099596Y0195461D01*
X0098829Y0194499D01*
X0098175Y0193458D01*
X0097641Y0192350D01*
X0097235Y0191189D01*
X0096961Y0189990D01*
X0096824Y0188768D01*
X0096824Y0188654D01*
X0107272Y0188654D01*
X0107272Y0187654D01*
X0096824Y0187654D01*
X0096824Y0187539D01*
X0096961Y0186317D01*
X0097235Y0185118D01*
X0097641Y0183957D01*
X0097835Y0183555D01*
X0097445Y0184043D01*
X0096576Y0184913D01*
X0095614Y0185680D01*
X0094573Y0186334D01*
X0093465Y0186868D01*
X0092304Y0187274D01*
X0091105Y0187547D01*
X0089883Y0187685D01*
X0089768Y0187685D01*
X0089768Y0177236D01*
X0088769Y0177236D01*
X0088769Y0187685D01*
X0088654Y0187685D01*
X0087432Y0187547D01*
X0086233Y0187274D01*
X0085072Y0186868D01*
X0083964Y0186334D01*
X0082923Y0185680D01*
X0081961Y0184913D01*
X0081092Y0184043D01*
X0080325Y0183082D01*
X0079671Y0182041D01*
X0079137Y0180933D01*
X0078731Y0179772D01*
X0078457Y0178573D01*
X0078320Y0177351D01*
X0078320Y0177236D01*
X0088768Y0177236D01*
X0088768Y0176236D01*
X0078320Y0176236D01*
X0078320Y0176121D01*
X0078457Y0174899D01*
X0078731Y0173700D01*
X0079137Y0172540D01*
X0079671Y0171432D01*
X0080325Y0170390D01*
X0081092Y0169429D01*
X0081961Y0168559D01*
X0082923Y0167793D01*
X0083964Y0167138D01*
X0085072Y0166605D01*
X0086233Y0166199D01*
X0087432Y0165925D01*
X0088654Y0165787D01*
X0088769Y0165787D01*
X0088769Y0176236D01*
X0089768Y0176236D01*
X0089768Y0165787D01*
X0089883Y0165787D01*
X0091105Y0165925D01*
X0092304Y0166199D01*
X0093465Y0166605D01*
X0094573Y0167138D01*
X0095614Y0167793D01*
X0096576Y0168559D01*
X0097445Y0169429D01*
X0097641Y0169674D01*
X0097383Y0169228D01*
X0096624Y0166393D01*
X0096624Y0163457D01*
X0097383Y0160622D01*
X0098851Y0158080D01*
X0100927Y0156004D01*
X0103469Y0154536D01*
X0106305Y0153776D01*
X0109240Y0153776D01*
X0112076Y0154536D01*
X0114618Y0156004D01*
X0116694Y0158080D01*
X0118161Y0160622D01*
X0118921Y0163457D01*
X0118921Y0166393D01*
X0118161Y0169228D01*
X0116694Y0171771D01*
X0115002Y0173462D01*
X0135848Y0194308D01*
X0139835Y0194308D01*
X0140831Y0195304D01*
X0140831Y0200649D01*
X0140447Y0201033D01*
X0148414Y0209000D01*
X0172387Y0209000D01*
X0188629Y0192758D01*
X0188629Y0187068D01*
X0188062Y0187068D01*
X0187067Y0186072D01*
X0187067Y0181514D01*
X0188062Y0180519D01*
X0194195Y0180519D01*
X0194970Y0181293D01*
X0194070Y0179679D02*
X0193688Y0179781D01*
X0191416Y0179781D01*
X0191416Y0176994D01*
X0194991Y0176994D01*
X0194991Y0178479D01*
X0194889Y0178860D01*
X0194691Y0179203D01*
X0194412Y0179482D01*
X0194070Y0179679D01*
X0194659Y0179235D02*
X0212566Y0179235D01*
X0212566Y0178237D02*
X0194991Y0178237D01*
X0194991Y0177238D02*
X0212566Y0177238D01*
X0212566Y0176239D02*
X0194991Y0176239D01*
X0194991Y0175241D02*
X0212566Y0175241D01*
X0212412Y0174242D02*
X0194709Y0174242D01*
X0193831Y0172562D02*
X0193489Y0172760D01*
X0193108Y0172862D01*
X0191623Y0172862D01*
X0191623Y0169287D01*
X0194410Y0169287D01*
X0194410Y0171560D01*
X0194308Y0171941D01*
X0194111Y0172283D01*
X0193831Y0172562D01*
X0194132Y0172245D02*
X0195326Y0172245D01*
X0195147Y0171247D02*
X0194410Y0171247D01*
X0194410Y0170248D02*
X0195147Y0170248D01*
X0195147Y0169250D02*
X0191623Y0169250D01*
X0191623Y0169287D02*
X0191623Y0168713D01*
X0194410Y0168713D01*
X0194410Y0166440D01*
X0194308Y0166059D01*
X0194111Y0165717D01*
X0193831Y0165438D01*
X0193489Y0165240D01*
X0193108Y0165138D01*
X0191623Y0165138D01*
X0191623Y0168713D01*
X0191048Y0168713D01*
X0188261Y0168713D01*
X0188261Y0166440D01*
X0188363Y0166059D01*
X0188560Y0165717D01*
X0188840Y0165438D01*
X0189182Y0165240D01*
X0189563Y0165138D01*
X0191048Y0165138D01*
X0191048Y0168713D01*
X0191048Y0169287D01*
X0188261Y0169287D01*
X0188261Y0171560D01*
X0188363Y0171941D01*
X0188560Y0172283D01*
X0188840Y0172562D01*
X0189182Y0172760D01*
X0189563Y0172862D01*
X0191048Y0172862D01*
X0191048Y0169287D01*
X0191623Y0169287D01*
X0191048Y0169250D02*
X0137079Y0169250D01*
X0137079Y0170248D02*
X0188261Y0170248D01*
X0188261Y0171247D02*
X0137079Y0171247D01*
X0137079Y0172245D02*
X0188539Y0172245D01*
X0191048Y0172245D02*
X0191623Y0172245D01*
X0191623Y0171247D02*
X0191048Y0171247D01*
X0191048Y0170248D02*
X0191623Y0170248D01*
X0191623Y0168251D02*
X0191048Y0168251D01*
X0191048Y0167253D02*
X0191623Y0167253D01*
X0191623Y0166254D02*
X0191048Y0166254D01*
X0191048Y0165256D02*
X0191623Y0165256D01*
X0193517Y0165256D02*
X0195825Y0165256D01*
X0195147Y0166254D02*
X0194360Y0166254D01*
X0194410Y0167253D02*
X0195147Y0167253D01*
X0195147Y0168251D02*
X0194410Y0168251D01*
X0198422Y0169000D02*
X0204629Y0162793D01*
X0204629Y0146500D01*
X0207379Y0146500D01*
X0220105Y0133774D01*
X0220105Y0113400D01*
X0217305Y0113333D02*
X0216429Y0113333D01*
X0216429Y0112335D02*
X0217305Y0112335D01*
X0217305Y0111336D02*
X0216429Y0111336D01*
X0216429Y0110338D02*
X0217305Y0110338D01*
X0214229Y0107524D02*
X0214229Y0124650D01*
X0207379Y0131500D01*
X0174879Y0131500D01*
X0167379Y0124000D01*
X0164044Y0127312D02*
X0160430Y0127312D01*
X0161429Y0126314D02*
X0163046Y0126314D01*
X0162679Y0125315D02*
X0161879Y0125315D01*
X0161879Y0125864D02*
X0161879Y0124500D01*
X0157879Y0124500D01*
X0157879Y0123500D01*
X0161879Y0123500D01*
X0161879Y0122136D01*
X0159243Y0119500D01*
X0157879Y0119500D01*
X0157879Y0123500D01*
X0156879Y0123500D01*
X0156879Y0119500D01*
X0155515Y0119500D01*
X0152879Y0122136D01*
X0152879Y0123500D01*
X0156879Y0123500D01*
X0156879Y0124500D01*
X0156879Y0128500D01*
X0155515Y0128500D01*
X0152879Y0125864D01*
X0152879Y0124500D01*
X0156879Y0124500D01*
X0157879Y0124500D01*
X0157879Y0128500D01*
X0159243Y0128500D01*
X0161879Y0125864D01*
X0162679Y0124317D02*
X0157879Y0124317D01*
X0157879Y0125315D02*
X0156879Y0125315D01*
X0156879Y0124317D02*
X0152079Y0124317D01*
X0152079Y0125315D02*
X0152879Y0125315D01*
X0152079Y0125947D02*
X0152079Y0122053D01*
X0149326Y0119300D01*
X0145432Y0119300D01*
X0142679Y0122053D01*
X0142679Y0125947D01*
X0145432Y0128700D01*
X0149326Y0128700D01*
X0152079Y0125947D01*
X0151712Y0126314D02*
X0153329Y0126314D01*
X0154327Y0127312D02*
X0150713Y0127312D01*
X0149715Y0128311D02*
X0155326Y0128311D01*
X0156879Y0128311D02*
X0157879Y0128311D01*
X0157879Y0127312D02*
X0156879Y0127312D01*
X0156879Y0126314D02*
X0157879Y0126314D01*
X0159432Y0128311D02*
X0165043Y0128311D01*
X0169577Y0129309D02*
X0032681Y0129309D01*
X0033679Y0128311D02*
X0145043Y0128311D01*
X0144044Y0127312D02*
X0034678Y0127312D01*
X0035676Y0126314D02*
X0143046Y0126314D01*
X0142679Y0125315D02*
X0092513Y0125315D01*
X0092553Y0124317D02*
X0142679Y0124317D01*
X0142679Y0123318D02*
X0092553Y0123318D01*
X0097192Y0121028D02*
X0121139Y0097081D01*
X0124807Y0097357D02*
X0124950Y0097357D01*
X0124950Y0096359D02*
X0124807Y0096359D01*
X0124807Y0095360D02*
X0124950Y0095360D01*
X0124950Y0094362D02*
X0124807Y0094362D01*
X0124549Y0093363D02*
X0125208Y0093363D01*
X0121978Y0092365D02*
X0112625Y0092365D01*
X0111627Y0093363D02*
X0117728Y0093363D01*
X0117470Y0094362D02*
X0111479Y0094362D01*
X0111479Y0095360D02*
X0117470Y0095360D01*
X0117470Y0096359D02*
X0111479Y0096359D01*
X0111479Y0097357D02*
X0117470Y0097357D01*
X0116752Y0098356D02*
X0111479Y0098356D01*
X0111479Y0099354D02*
X0115754Y0099354D01*
X0114755Y0100353D02*
X0111479Y0100353D01*
X0111339Y0101351D02*
X0113757Y0101351D01*
X0112758Y0102350D02*
X0110925Y0102350D01*
X0110350Y0103348D02*
X0111760Y0103348D01*
X0110761Y0104347D02*
X0109352Y0104347D01*
X0109763Y0105345D02*
X0107366Y0105345D01*
X0108764Y0106344D02*
X0087979Y0106344D01*
X0087979Y0107342D02*
X0107766Y0107342D01*
X0106767Y0108341D02*
X0087979Y0108341D01*
X0087979Y0109014D02*
X0087126Y0111072D01*
X0085551Y0112647D01*
X0083493Y0113500D01*
X0081265Y0113500D01*
X0079207Y0112647D01*
X0077631Y0111072D01*
X0076779Y0109014D01*
X0076779Y0098986D01*
X0077631Y0096928D01*
X0079207Y0095353D01*
X0081265Y0094500D01*
X0083493Y0094500D01*
X0085551Y0095353D01*
X0087126Y0096928D01*
X0087979Y0098986D01*
X0087979Y0109014D01*
X0087844Y0109339D02*
X0105769Y0109339D01*
X0104770Y0110338D02*
X0087430Y0110338D01*
X0086862Y0111336D02*
X0103772Y0111336D01*
X0102773Y0112335D02*
X0085864Y0112335D01*
X0083895Y0113333D02*
X0101775Y0113333D01*
X0100776Y0114332D02*
X0035713Y0114332D01*
X0036050Y0115146D02*
X0036050Y0117224D01*
X0035255Y0119145D01*
X0033785Y0120615D01*
X0031864Y0121410D01*
X0022736Y0121410D01*
X0020815Y0120615D01*
X0019345Y0119145D01*
X0018550Y0117224D01*
X0018550Y0115146D01*
X0019345Y0113225D01*
X0020815Y0111755D01*
X0022736Y0110960D01*
X0031864Y0110960D01*
X0033785Y0111755D01*
X0035255Y0113225D01*
X0036050Y0115146D01*
X0036050Y0115330D02*
X0099778Y0115330D01*
X0098779Y0116329D02*
X0092102Y0116329D01*
X0092553Y0117327D02*
X0097781Y0117327D01*
X0096782Y0118326D02*
X0092553Y0118326D01*
X0097192Y0121028D02*
X0086129Y0121028D01*
X0084406Y0122750D01*
X0036129Y0122750D01*
X0018879Y0140000D01*
X0018879Y0147000D01*
X0024479Y0147283D02*
X0038842Y0147283D01*
X0039207Y0147647D02*
X0037631Y0146072D01*
X0036779Y0144014D01*
X0036779Y0133986D01*
X0037631Y0131928D01*
X0039207Y0130353D01*
X0041265Y0129500D01*
X0043493Y0129500D01*
X0045551Y0130353D01*
X0047126Y0131928D01*
X0047979Y0133986D01*
X0047979Y0144014D01*
X0047126Y0146072D01*
X0045551Y0147647D01*
X0043493Y0148500D01*
X0041265Y0148500D01*
X0039207Y0147647D01*
X0040737Y0148281D02*
X0024479Y0148281D01*
X0024479Y0149280D02*
X0060279Y0149280D01*
X0060279Y0150278D02*
X0024479Y0150278D01*
X0024479Y0151277D02*
X0060279Y0151277D01*
X0060279Y0152014D02*
X0060279Y0141986D01*
X0061131Y0139928D01*
X0062707Y0138353D01*
X0064765Y0137500D01*
X0066993Y0137500D01*
X0069051Y0138353D01*
X0070233Y0139535D01*
X0073706Y0136061D01*
X0074995Y0134772D01*
X0079704Y0134772D01*
X0079704Y0132725D01*
X0080700Y0131729D01*
X0091557Y0131729D01*
X0092553Y0132725D01*
X0092553Y0140286D01*
X0092611Y0140343D01*
X0130817Y0140343D01*
X0130817Y0140264D01*
X0131812Y0139269D01*
X0137945Y0139269D01*
X0138941Y0140264D01*
X0138941Y0140343D01*
X0154333Y0140343D01*
X0163290Y0149300D01*
X0163976Y0149300D01*
X0164775Y0148501D01*
X0166429Y0148501D01*
X0166429Y0144339D01*
X0170179Y0140589D01*
X0170179Y0140589D01*
X0171467Y0139300D01*
X0179934Y0139300D01*
X0181018Y0138216D01*
X0183739Y0138216D01*
X0185663Y0140140D01*
X0185663Y0142860D01*
X0183739Y0144784D01*
X0181018Y0144784D01*
X0179934Y0143700D01*
X0173290Y0143700D01*
X0170829Y0146161D01*
X0170829Y0148501D01*
X0172483Y0148501D01*
X0173478Y0149497D01*
X0173478Y0156023D01*
X0173001Y0156500D01*
X0173478Y0156977D01*
X0173478Y0157289D01*
X0174094Y0156673D01*
X0174094Y0155140D01*
X0176018Y0153216D01*
X0178739Y0153216D01*
X0180663Y0155140D01*
X0180663Y0157860D01*
X0178739Y0159784D01*
X0177206Y0159784D01*
X0174550Y0162440D01*
X0173478Y0162440D01*
X0173478Y0163503D01*
X0172483Y0164499D01*
X0164775Y0164499D01*
X0163779Y0163503D01*
X0163779Y0156977D01*
X0164256Y0156500D01*
X0163779Y0156023D01*
X0163779Y0153700D01*
X0161467Y0153700D01*
X0160179Y0152411D01*
X0152511Y0144743D01*
X0138941Y0144743D01*
X0138941Y0144822D01*
X0137945Y0145818D01*
X0137079Y0145818D01*
X0137079Y0176355D01*
X0139835Y0176355D01*
X0140831Y0177351D01*
X0140831Y0182696D01*
X0139835Y0183692D01*
X0132127Y0183692D01*
X0131131Y0182696D01*
X0131131Y0177351D01*
X0132127Y0176355D01*
X0132679Y0176355D01*
X0132679Y0145818D01*
X0131812Y0145818D01*
X0130817Y0144822D01*
X0130817Y0144743D01*
X0090788Y0144743D01*
X0089500Y0143455D01*
X0088261Y0142216D01*
X0080700Y0142216D01*
X0079704Y0141220D01*
X0079704Y0139172D01*
X0076818Y0139172D01*
X0071479Y0144511D01*
X0071479Y0152014D01*
X0070626Y0154072D01*
X0069051Y0155647D01*
X0066993Y0156500D01*
X0064765Y0156500D01*
X0062707Y0155647D01*
X0061131Y0154072D01*
X0060279Y0152014D01*
X0060387Y0152275D02*
X0024370Y0152275D01*
X0023957Y0153274D02*
X0060801Y0153274D01*
X0061331Y0154272D02*
X0023426Y0154272D01*
X0022428Y0155271D02*
X0062330Y0155271D01*
X0064208Y0156269D02*
X0020550Y0156269D01*
X0017208Y0156269D02*
X0014579Y0156269D01*
X0014579Y0155271D02*
X0015330Y0155271D01*
X0014579Y0157268D02*
X0099663Y0157268D01*
X0098743Y0158266D02*
X0014579Y0158266D01*
X0014579Y0159265D02*
X0098167Y0159265D01*
X0097590Y0160263D02*
X0014579Y0160263D01*
X0014579Y0161262D02*
X0097212Y0161262D01*
X0096944Y0162260D02*
X0014579Y0162260D01*
X0014579Y0163259D02*
X0096677Y0163259D01*
X0096624Y0164257D02*
X0014579Y0164257D01*
X0014579Y0165256D02*
X0096624Y0165256D01*
X0096624Y0166254D02*
X0092463Y0166254D01*
X0094755Y0167253D02*
X0096854Y0167253D01*
X0097122Y0168251D02*
X0096189Y0168251D01*
X0097266Y0169250D02*
X0097396Y0169250D01*
X0099195Y0172115D02*
X0099400Y0172540D01*
X0099806Y0173700D01*
X0100080Y0174899D01*
X0100217Y0176121D01*
X0100217Y0176236D01*
X0089769Y0176236D01*
X0089769Y0177236D01*
X0100217Y0177236D01*
X0100217Y0177351D01*
X0100080Y0178573D01*
X0099806Y0179772D01*
X0099400Y0180933D01*
X0099206Y0181335D01*
X0099596Y0180846D01*
X0100465Y0179977D01*
X0101427Y0179210D01*
X0102468Y0178556D01*
X0103576Y0178022D01*
X0104737Y0177616D01*
X0105936Y0177342D01*
X0107158Y0177205D01*
X0107272Y0177205D01*
X0107272Y0187653D01*
X0108272Y0187653D01*
X0108272Y0177205D01*
X0108387Y0177205D01*
X0109609Y0177342D01*
X0110808Y0177616D01*
X0111969Y0178022D01*
X0112977Y0178508D01*
X0110268Y0175799D01*
X0109240Y0176074D01*
X0106305Y0176074D01*
X0103469Y0175314D01*
X0100927Y0173846D01*
X0099195Y0172115D01*
X0099258Y0172245D02*
X0099326Y0172245D01*
X0099646Y0173244D02*
X0100324Y0173244D01*
X0099930Y0174242D02*
X0101613Y0174242D01*
X0100118Y0175241D02*
X0103342Y0175241D01*
X0103131Y0178237D02*
X0100118Y0178237D01*
X0100217Y0177238D02*
X0106862Y0177238D01*
X0107272Y0177238D02*
X0108272Y0177238D01*
X0108683Y0177238D02*
X0111707Y0177238D01*
X0112414Y0178237D02*
X0112706Y0178237D01*
X0110709Y0176239D02*
X0089769Y0176239D01*
X0089768Y0175241D02*
X0088769Y0175241D01*
X0088768Y0176239D02*
X0014579Y0176239D01*
X0014579Y0175241D02*
X0078419Y0175241D01*
X0078607Y0174242D02*
X0014579Y0174242D01*
X0014579Y0173244D02*
X0078891Y0173244D01*
X0079279Y0172245D02*
X0014579Y0172245D01*
X0014579Y0171247D02*
X0079787Y0171247D01*
X0080438Y0170248D02*
X0014579Y0170248D01*
X0014579Y0169250D02*
X0081271Y0169250D01*
X0082348Y0168251D02*
X0014579Y0168251D01*
X0014579Y0167253D02*
X0083782Y0167253D01*
X0086074Y0166254D02*
X0014579Y0166254D01*
X0010179Y0166254D02*
X0009579Y0166254D01*
X0009579Y0165256D02*
X0010179Y0165256D01*
X0010179Y0164257D02*
X0009579Y0164257D01*
X0009579Y0163259D02*
X0010179Y0163259D01*
X0010179Y0162260D02*
X0009579Y0162260D01*
X0009579Y0161262D02*
X0010179Y0161262D01*
X0010179Y0160263D02*
X0009579Y0160263D01*
X0009579Y0159265D02*
X0010179Y0159265D01*
X0010179Y0158266D02*
X0009579Y0158266D01*
X0009579Y0157268D02*
X0010179Y0157268D01*
X0010179Y0156269D02*
X0009579Y0156269D01*
X0009579Y0155271D02*
X0010179Y0155271D01*
X0010179Y0154272D02*
X0009579Y0154272D01*
X0009579Y0153274D02*
X0010179Y0153274D01*
X0010179Y0152275D02*
X0009579Y0152275D01*
X0009579Y0151277D02*
X0010179Y0151277D01*
X0010179Y0150278D02*
X0009579Y0150278D01*
X0009579Y0149280D02*
X0010179Y0149280D01*
X0010179Y0148281D02*
X0009579Y0148281D01*
X0009579Y0147283D02*
X0010179Y0147283D01*
X0010179Y0146284D02*
X0009579Y0146284D01*
X0009579Y0145286D02*
X0010179Y0145286D01*
X0010179Y0144287D02*
X0009579Y0144287D01*
X0009579Y0143289D02*
X0010179Y0143289D01*
X0010179Y0142290D02*
X0009579Y0142290D01*
X0009579Y0141292D02*
X0010179Y0141292D01*
X0010179Y0140293D02*
X0009579Y0140293D01*
X0009579Y0139295D02*
X0010179Y0139295D01*
X0010179Y0138296D02*
X0009579Y0138296D01*
X0009579Y0137298D02*
X0010179Y0137298D01*
X0010179Y0136299D02*
X0009579Y0136299D01*
X0009579Y0135301D02*
X0010179Y0135301D01*
X0010179Y0134302D02*
X0009579Y0134302D01*
X0009579Y0133303D02*
X0010179Y0133303D01*
X0010179Y0132305D02*
X0009579Y0132305D01*
X0009579Y0131306D02*
X0010179Y0131306D01*
X0010179Y0130308D02*
X0009579Y0130308D01*
X0009579Y0129309D02*
X0010179Y0129309D01*
X0010179Y0128311D02*
X0009579Y0128311D01*
X0009579Y0127312D02*
X0010179Y0127312D01*
X0010179Y0126314D02*
X0009579Y0126314D01*
X0009579Y0125315D02*
X0010179Y0125315D01*
X0010179Y0124317D02*
X0009579Y0124317D01*
X0009579Y0123318D02*
X0010179Y0123318D01*
X0010179Y0122320D02*
X0009579Y0122320D01*
X0009579Y0121321D02*
X0010179Y0121321D01*
X0010179Y0120323D02*
X0009579Y0120323D01*
X0009579Y0119324D02*
X0010179Y0119324D01*
X0010179Y0118326D02*
X0009579Y0118326D01*
X0009579Y0117327D02*
X0010179Y0117327D01*
X0010179Y0116329D02*
X0009579Y0116329D01*
X0009579Y0115330D02*
X0010179Y0115330D01*
X0010179Y0114332D02*
X0009579Y0114332D01*
X0009579Y0113333D02*
X0010179Y0113333D01*
X0010179Y0112335D02*
X0009579Y0112335D01*
X0009579Y0111336D02*
X0010179Y0111336D01*
X0010179Y0110338D02*
X0009579Y0110338D01*
X0009579Y0109339D02*
X0010179Y0109339D01*
X0010179Y0108341D02*
X0009579Y0108341D01*
X0009579Y0107342D02*
X0010179Y0107342D01*
X0010179Y0106344D02*
X0009579Y0106344D01*
X0009579Y0105345D02*
X0010179Y0105345D01*
X0010179Y0104347D02*
X0009579Y0104347D01*
X0009579Y0103348D02*
X0010179Y0103348D01*
X0010179Y0102350D02*
X0009579Y0102350D01*
X0009579Y0101351D02*
X0010179Y0101351D01*
X0010179Y0100353D02*
X0009579Y0100353D01*
X0009579Y0099354D02*
X0010179Y0099354D01*
X0010179Y0098356D02*
X0009579Y0098356D01*
X0009579Y0097357D02*
X0010179Y0097357D01*
X0010179Y0096359D02*
X0009579Y0096359D01*
X0009579Y0095360D02*
X0010179Y0095360D01*
X0010179Y0094362D02*
X0009579Y0094362D01*
X0009579Y0093363D02*
X0010179Y0093363D01*
X0010179Y0092365D02*
X0009579Y0092365D01*
X0009579Y0091366D02*
X0010179Y0091366D01*
X0010179Y0090368D02*
X0009579Y0090368D01*
X0009579Y0089369D02*
X0010179Y0089369D01*
X0010179Y0088370D02*
X0009579Y0088370D01*
X0009579Y0087372D02*
X0010179Y0087372D01*
X0010179Y0086373D02*
X0009579Y0086373D01*
X0009579Y0085375D02*
X0010393Y0085375D01*
X0009579Y0084376D02*
X0011391Y0084376D01*
X0012390Y0083378D02*
X0009579Y0083378D01*
X0009579Y0082379D02*
X0013388Y0082379D01*
X0014387Y0081381D02*
X0009579Y0081381D01*
X0009579Y0080382D02*
X0015385Y0080382D01*
X0016384Y0079384D02*
X0009579Y0079384D01*
X0009579Y0078385D02*
X0017382Y0078385D01*
X0018381Y0077387D02*
X0009579Y0077387D01*
X0009579Y0076388D02*
X0018550Y0076388D01*
X0018710Y0075390D02*
X0009579Y0075390D01*
X0009579Y0074391D02*
X0019123Y0074391D01*
X0019808Y0073393D02*
X0009579Y0073393D01*
X0009579Y0072394D02*
X0020806Y0072394D01*
X0022064Y0076815D02*
X0012379Y0086500D01*
X0012379Y0191500D01*
X0015879Y0195000D01*
X0018879Y0195000D01*
X0024479Y0195211D02*
X0060279Y0195211D01*
X0060279Y0194213D02*
X0024479Y0194213D01*
X0024479Y0193214D02*
X0060279Y0193214D01*
X0060279Y0192216D02*
X0024479Y0192216D01*
X0024479Y0191217D02*
X0060279Y0191217D01*
X0060279Y0190219D02*
X0024479Y0190219D01*
X0024161Y0189220D02*
X0060596Y0189220D01*
X0060279Y0189986D02*
X0061131Y0187928D01*
X0062707Y0186353D01*
X0064765Y0185500D01*
X0066993Y0185500D01*
X0069051Y0186353D01*
X0070626Y0187928D01*
X0071479Y0189986D01*
X0071479Y0200014D01*
X0070626Y0202072D01*
X0069051Y0203647D01*
X0066993Y0204500D01*
X0064765Y0204500D01*
X0062707Y0203647D01*
X0061131Y0202072D01*
X0060279Y0200014D01*
X0060279Y0189986D01*
X0061010Y0188222D02*
X0023748Y0188222D01*
X0022921Y0187223D02*
X0061836Y0187223D01*
X0063015Y0186225D02*
X0021742Y0186225D01*
X0016015Y0186225D02*
X0014579Y0186225D01*
X0014579Y0187223D02*
X0014836Y0187223D01*
X0014579Y0185226D02*
X0082354Y0185226D01*
X0081276Y0184228D02*
X0014579Y0184228D01*
X0014579Y0183229D02*
X0080442Y0183229D01*
X0079790Y0182231D02*
X0014579Y0182231D01*
X0014579Y0181232D02*
X0079281Y0181232D01*
X0078893Y0180234D02*
X0014579Y0180234D01*
X0014579Y0179235D02*
X0078608Y0179235D01*
X0078419Y0178237D02*
X0014579Y0178237D01*
X0014579Y0177238D02*
X0078320Y0177238D01*
X0088769Y0177238D02*
X0089768Y0177238D01*
X0089768Y0178237D02*
X0088769Y0178237D01*
X0088769Y0179235D02*
X0089768Y0179235D01*
X0089768Y0180234D02*
X0088769Y0180234D01*
X0088769Y0181232D02*
X0089768Y0181232D01*
X0089768Y0182231D02*
X0088769Y0182231D01*
X0088769Y0183229D02*
X0089768Y0183229D01*
X0089768Y0184228D02*
X0088769Y0184228D01*
X0088769Y0185226D02*
X0089768Y0185226D01*
X0089768Y0186225D02*
X0088769Y0186225D01*
X0088769Y0187223D02*
X0089768Y0187223D01*
X0092449Y0187223D02*
X0096859Y0187223D01*
X0096982Y0186225D02*
X0094747Y0186225D01*
X0096183Y0185226D02*
X0097210Y0185226D01*
X0097261Y0184228D02*
X0097546Y0184228D01*
X0099256Y0181232D02*
X0099288Y0181232D01*
X0099644Y0180234D02*
X0100208Y0180234D01*
X0099929Y0179235D02*
X0101395Y0179235D01*
X0107272Y0179235D02*
X0108272Y0179235D01*
X0108272Y0178237D02*
X0107272Y0178237D01*
X0107272Y0180234D02*
X0108272Y0180234D01*
X0108272Y0181232D02*
X0107272Y0181232D01*
X0107272Y0182231D02*
X0108272Y0182231D01*
X0108272Y0183229D02*
X0107272Y0183229D01*
X0107272Y0184228D02*
X0108272Y0184228D01*
X0108272Y0185226D02*
X0107272Y0185226D01*
X0107272Y0186225D02*
X0108272Y0186225D01*
X0108272Y0187223D02*
X0107272Y0187223D01*
X0107272Y0188222D02*
X0070748Y0188222D01*
X0071161Y0189220D02*
X0096875Y0189220D01*
X0097013Y0190219D02*
X0071479Y0190219D01*
X0071479Y0191217D02*
X0097245Y0191217D01*
X0097594Y0192216D02*
X0071479Y0192216D01*
X0071479Y0193214D02*
X0098057Y0193214D01*
X0098649Y0194213D02*
X0071479Y0194213D01*
X0071479Y0195211D02*
X0099397Y0195211D01*
X0100345Y0196210D02*
X0071479Y0196210D01*
X0071479Y0197208D02*
X0101604Y0197208D01*
X0103414Y0198207D02*
X0071479Y0198207D01*
X0071479Y0199205D02*
X0131131Y0199205D01*
X0131131Y0198207D02*
X0112131Y0198207D01*
X0111969Y0198285D02*
X0110808Y0198691D01*
X0109609Y0198965D01*
X0108387Y0199102D01*
X0108272Y0199102D01*
X0108272Y0188654D01*
X0118721Y0188654D01*
X0118721Y0188768D01*
X0118584Y0189990D01*
X0118310Y0191189D01*
X0117904Y0192350D01*
X0117370Y0193458D01*
X0116716Y0194499D01*
X0115949Y0195461D01*
X0115080Y0196330D01*
X0114118Y0197097D01*
X0113077Y0197751D01*
X0111969Y0198285D01*
X0113941Y0197208D02*
X0131131Y0197208D01*
X0130679Y0196210D02*
X0115200Y0196210D01*
X0116148Y0195211D02*
X0129680Y0195211D01*
X0128682Y0194213D02*
X0116896Y0194213D01*
X0117488Y0193214D02*
X0127683Y0193214D01*
X0126685Y0192216D02*
X0117951Y0192216D01*
X0118300Y0191217D02*
X0125686Y0191217D01*
X0124688Y0190219D02*
X0118531Y0190219D01*
X0118670Y0189220D02*
X0123689Y0189220D01*
X0122691Y0188222D02*
X0108272Y0188222D01*
X0108272Y0189220D02*
X0107272Y0189220D01*
X0107272Y0190219D02*
X0108272Y0190219D01*
X0108272Y0191217D02*
X0107272Y0191217D01*
X0107272Y0192216D02*
X0108272Y0192216D01*
X0108272Y0193214D02*
X0107272Y0193214D01*
X0107272Y0194213D02*
X0108272Y0194213D01*
X0108272Y0195211D02*
X0107272Y0195211D01*
X0107272Y0196210D02*
X0108272Y0196210D01*
X0108272Y0197208D02*
X0107272Y0197208D01*
X0107272Y0198207D02*
X0108272Y0198207D01*
X0118686Y0187223D02*
X0121692Y0187223D01*
X0120694Y0186225D02*
X0118563Y0186225D01*
X0118335Y0185226D02*
X0119695Y0185226D01*
X0118697Y0184228D02*
X0117998Y0184228D01*
X0117698Y0183229D02*
X0117553Y0183229D01*
X0121774Y0180234D02*
X0131131Y0180234D01*
X0131131Y0181232D02*
X0122772Y0181232D01*
X0123771Y0182231D02*
X0131131Y0182231D01*
X0131664Y0183229D02*
X0124769Y0183229D01*
X0125768Y0184228D02*
X0151017Y0184228D01*
X0151017Y0185226D02*
X0126766Y0185226D01*
X0127765Y0186225D02*
X0151017Y0186225D01*
X0151017Y0187223D02*
X0128763Y0187223D01*
X0129762Y0188222D02*
X0151017Y0188222D01*
X0151017Y0188500D02*
X0151017Y0178173D01*
X0151119Y0177791D01*
X0151316Y0177449D01*
X0151596Y0177170D01*
X0151938Y0176972D01*
X0152319Y0176870D01*
X0164221Y0176870D01*
X0164221Y0188500D01*
X0151017Y0188500D01*
X0151017Y0189500D02*
X0164221Y0189500D01*
X0164221Y0188500D01*
X0165221Y0188500D01*
X0165221Y0189500D01*
X0164221Y0189500D01*
X0164221Y0201130D01*
X0152319Y0201130D01*
X0151938Y0201028D01*
X0151596Y0200830D01*
X0151316Y0200551D01*
X0151119Y0200209D01*
X0151017Y0199827D01*
X0151017Y0189500D01*
X0151017Y0190219D02*
X0131759Y0190219D01*
X0132757Y0191217D02*
X0151017Y0191217D01*
X0151017Y0192216D02*
X0133756Y0192216D01*
X0134754Y0193214D02*
X0151017Y0193214D01*
X0151017Y0194213D02*
X0135753Y0194213D01*
X0140738Y0195211D02*
X0151017Y0195211D01*
X0151017Y0196210D02*
X0140831Y0196210D01*
X0140831Y0197208D02*
X0151017Y0197208D01*
X0151017Y0198207D02*
X0140831Y0198207D01*
X0140831Y0199205D02*
X0151017Y0199205D01*
X0151117Y0200204D02*
X0140831Y0200204D01*
X0140617Y0201202D02*
X0180184Y0201202D01*
X0181183Y0200204D02*
X0178325Y0200204D01*
X0178324Y0200209D02*
X0178126Y0200551D01*
X0177847Y0200830D01*
X0177505Y0201028D01*
X0177123Y0201130D01*
X0165221Y0201130D01*
X0165221Y0189500D01*
X0178426Y0189500D01*
X0178426Y0199827D01*
X0178324Y0200209D01*
X0178426Y0199205D02*
X0182181Y0199205D01*
X0183180Y0198207D02*
X0178426Y0198207D01*
X0178426Y0197208D02*
X0184178Y0197208D01*
X0185177Y0196210D02*
X0178426Y0196210D01*
X0178426Y0195211D02*
X0186175Y0195211D01*
X0187174Y0194213D02*
X0178426Y0194213D01*
X0178426Y0193214D02*
X0188172Y0193214D01*
X0188629Y0192216D02*
X0178426Y0192216D01*
X0178426Y0191217D02*
X0188629Y0191217D01*
X0188629Y0190219D02*
X0178426Y0190219D01*
X0178426Y0188222D02*
X0188629Y0188222D01*
X0188629Y0189220D02*
X0165221Y0189220D01*
X0165221Y0188222D02*
X0164221Y0188222D01*
X0164221Y0189220D02*
X0130760Y0189220D01*
X0140298Y0183229D02*
X0151017Y0183229D01*
X0151017Y0182231D02*
X0140831Y0182231D01*
X0140831Y0181232D02*
X0151017Y0181232D01*
X0151017Y0180234D02*
X0140831Y0180234D01*
X0140831Y0179235D02*
X0151017Y0179235D01*
X0151017Y0178237D02*
X0140831Y0178237D01*
X0140718Y0177238D02*
X0151527Y0177238D01*
X0164221Y0177238D02*
X0165221Y0177238D01*
X0165221Y0178237D02*
X0164221Y0178237D01*
X0164221Y0179235D02*
X0165221Y0179235D01*
X0165221Y0180234D02*
X0164221Y0180234D01*
X0164221Y0181232D02*
X0165221Y0181232D01*
X0165221Y0182231D02*
X0164221Y0182231D01*
X0164221Y0183229D02*
X0165221Y0183229D01*
X0165221Y0184228D02*
X0164221Y0184228D01*
X0164221Y0185226D02*
X0165221Y0185226D01*
X0165221Y0186225D02*
X0164221Y0186225D01*
X0164221Y0187223D02*
X0165221Y0187223D01*
X0165221Y0190219D02*
X0164221Y0190219D01*
X0164221Y0191217D02*
X0165221Y0191217D01*
X0165221Y0192216D02*
X0164221Y0192216D01*
X0164221Y0193214D02*
X0165221Y0193214D01*
X0165221Y0194213D02*
X0164221Y0194213D01*
X0164221Y0195211D02*
X0165221Y0195211D01*
X0165221Y0196210D02*
X0164221Y0196210D01*
X0164221Y0197208D02*
X0165221Y0197208D01*
X0165221Y0198207D02*
X0164221Y0198207D01*
X0164221Y0199205D02*
X0165221Y0199205D01*
X0165221Y0200204D02*
X0164221Y0200204D01*
X0174193Y0207193D02*
X0146608Y0207193D01*
X0147606Y0208192D02*
X0173195Y0208192D01*
X0175192Y0206195D02*
X0145609Y0206195D01*
X0144611Y0205196D02*
X0176190Y0205196D01*
X0177189Y0204198D02*
X0143612Y0204198D01*
X0142614Y0203199D02*
X0178187Y0203199D01*
X0179186Y0202201D02*
X0141615Y0202201D01*
X0136541Y0204198D02*
X0067722Y0204198D01*
X0069499Y0203199D02*
X0135542Y0203199D01*
X0134544Y0202201D02*
X0070498Y0202201D01*
X0070987Y0201202D02*
X0131685Y0201202D01*
X0131131Y0200204D02*
X0071400Y0200204D01*
X0064035Y0204198D02*
X0020722Y0204198D01*
X0022499Y0203199D02*
X0062258Y0203199D01*
X0061260Y0202201D02*
X0023498Y0202201D01*
X0023987Y0201202D02*
X0060771Y0201202D01*
X0060357Y0200204D02*
X0024400Y0200204D01*
X0024479Y0199205D02*
X0060279Y0199205D01*
X0060279Y0198207D02*
X0024479Y0198207D01*
X0024479Y0197208D02*
X0060279Y0197208D01*
X0060279Y0196210D02*
X0024479Y0196210D01*
X0017035Y0204198D02*
X0009579Y0204198D01*
X0009579Y0205196D02*
X0137540Y0205196D01*
X0138538Y0206195D02*
X0009579Y0206195D01*
X0009579Y0207193D02*
X0139537Y0207193D01*
X0140535Y0208192D02*
X0009579Y0208192D01*
X0009579Y0209190D02*
X0141534Y0209190D01*
X0142532Y0210189D02*
X0009579Y0210189D01*
X0009579Y0211187D02*
X0143531Y0211187D01*
X0144529Y0212186D02*
X0009579Y0212186D01*
X0009579Y0213184D02*
X0145528Y0213184D01*
X0175273Y0213184D02*
X0192893Y0213184D01*
X0192893Y0212186D02*
X0176272Y0212186D01*
X0175541Y0212916D02*
X0175541Y0212916D01*
X0177270Y0211187D02*
X0192893Y0211187D01*
X0192893Y0210189D02*
X0178269Y0210189D01*
X0179267Y0209190D02*
X0192893Y0209190D01*
X0192893Y0208192D02*
X0180266Y0208192D01*
X0181264Y0207193D02*
X0192893Y0207193D01*
X0192893Y0206195D02*
X0182263Y0206195D01*
X0183261Y0205196D02*
X0192893Y0205196D01*
X0192893Y0204198D02*
X0184260Y0204198D01*
X0185258Y0203199D02*
X0192893Y0203199D01*
X0192893Y0202853D02*
X0193889Y0201857D01*
X0201597Y0201857D01*
X0202593Y0202853D01*
X0202593Y0217647D01*
X0201597Y0218643D01*
X0193889Y0218643D01*
X0192893Y0217647D01*
X0192893Y0202853D01*
X0193545Y0202201D02*
X0186257Y0202201D01*
X0187255Y0201202D02*
X0203523Y0201202D01*
X0203523Y0200204D02*
X0188254Y0200204D01*
X0189252Y0199205D02*
X0203523Y0199205D01*
X0203523Y0198207D02*
X0190251Y0198207D01*
X0191249Y0197208D02*
X0203523Y0197208D01*
X0203523Y0196210D02*
X0192248Y0196210D01*
X0192545Y0195913D02*
X0192545Y0195913D01*
X0193246Y0195211D02*
X0203523Y0195211D01*
X0203523Y0194213D02*
X0193629Y0194213D01*
X0193629Y0193214D02*
X0203523Y0193214D01*
X0203523Y0192216D02*
X0193629Y0192216D01*
X0193629Y0191217D02*
X0203560Y0191217D01*
X0202562Y0190219D02*
X0193629Y0190219D01*
X0193629Y0189220D02*
X0201563Y0189220D01*
X0200565Y0188222D02*
X0193629Y0188222D01*
X0193629Y0187223D02*
X0199566Y0187223D01*
X0203642Y0184228D02*
X0212566Y0184228D01*
X0212566Y0185226D02*
X0204640Y0185226D01*
X0205639Y0186225D02*
X0212566Y0186225D01*
X0212566Y0187223D02*
X0206637Y0187223D01*
X0207636Y0188222D02*
X0212566Y0188222D01*
X0212566Y0189220D02*
X0208634Y0189220D01*
X0209554Y0190219D02*
X0212566Y0190219D01*
X0211813Y0191217D02*
X0210445Y0191217D01*
X0210860Y0192216D02*
X0211397Y0192216D01*
X0211397Y0193214D02*
X0210860Y0193214D01*
X0210860Y0194213D02*
X0211397Y0194213D01*
X0211397Y0195211D02*
X0210860Y0195211D01*
X0210860Y0196210D02*
X0211397Y0196210D01*
X0211397Y0197208D02*
X0210860Y0197208D01*
X0210860Y0198207D02*
X0211397Y0198207D01*
X0211397Y0199205D02*
X0210860Y0199205D01*
X0210860Y0200204D02*
X0211397Y0200204D01*
X0211397Y0201202D02*
X0210860Y0201202D01*
X0210860Y0202201D02*
X0211397Y0202201D01*
X0211397Y0203199D02*
X0210860Y0203199D01*
X0210860Y0204198D02*
X0211397Y0204198D01*
X0211397Y0205196D02*
X0210860Y0205196D01*
X0210860Y0206195D02*
X0211397Y0206195D01*
X0211397Y0207193D02*
X0210860Y0207193D01*
X0210860Y0208192D02*
X0211397Y0208192D01*
X0211397Y0209190D02*
X0210860Y0209190D01*
X0210860Y0210189D02*
X0211397Y0210189D01*
X0211397Y0211187D02*
X0210860Y0211187D01*
X0210860Y0212186D02*
X0211397Y0212186D01*
X0211397Y0213184D02*
X0210860Y0213184D01*
X0210860Y0214183D02*
X0211397Y0214183D01*
X0211884Y0215181D02*
X0210373Y0215181D01*
X0204010Y0215181D02*
X0202593Y0215181D01*
X0202593Y0214183D02*
X0203523Y0214183D01*
X0203523Y0213184D02*
X0202593Y0213184D01*
X0202593Y0212186D02*
X0203523Y0212186D01*
X0203523Y0211187D02*
X0202593Y0211187D01*
X0202593Y0210189D02*
X0203523Y0210189D01*
X0203523Y0209190D02*
X0202593Y0209190D01*
X0202593Y0208192D02*
X0203523Y0208192D01*
X0203523Y0207193D02*
X0202593Y0207193D01*
X0202593Y0206195D02*
X0203523Y0206195D01*
X0203523Y0205196D02*
X0202593Y0205196D01*
X0202593Y0204198D02*
X0203523Y0204198D01*
X0203523Y0203199D02*
X0202593Y0203199D01*
X0201940Y0202201D02*
X0203523Y0202201D01*
X0218734Y0202201D02*
X0220317Y0202201D01*
X0220661Y0201857D02*
X0228368Y0201857D01*
X0229364Y0202853D01*
X0229364Y0217647D01*
X0228368Y0218643D01*
X0220661Y0218643D01*
X0219665Y0217647D01*
X0219665Y0202853D01*
X0220661Y0201857D01*
X0219665Y0203199D02*
X0218734Y0203199D01*
X0218734Y0204198D02*
X0219665Y0204198D01*
X0219665Y0205196D02*
X0218734Y0205196D01*
X0218734Y0206195D02*
X0219665Y0206195D01*
X0219665Y0207193D02*
X0218734Y0207193D01*
X0218734Y0208192D02*
X0219665Y0208192D01*
X0219665Y0209190D02*
X0218734Y0209190D01*
X0218734Y0210189D02*
X0219665Y0210189D01*
X0219665Y0211187D02*
X0218734Y0211187D01*
X0218734Y0212186D02*
X0219665Y0212186D01*
X0219665Y0213184D02*
X0218734Y0213184D01*
X0218734Y0214183D02*
X0219665Y0214183D01*
X0219665Y0215181D02*
X0218247Y0215181D01*
X0219665Y0216180D02*
X0202593Y0216180D01*
X0202593Y0217178D02*
X0219665Y0217178D01*
X0220195Y0218177D02*
X0202063Y0218177D01*
X0193423Y0218177D02*
X0009579Y0218177D01*
X0009579Y0219175D02*
X0340179Y0219175D01*
X0340179Y0218177D02*
X0228834Y0218177D01*
X0229364Y0217178D02*
X0340179Y0217178D01*
X0340179Y0216180D02*
X0229364Y0216180D01*
X0229364Y0215181D02*
X0340179Y0215181D01*
X0340179Y0214183D02*
X0229364Y0214183D01*
X0229364Y0213184D02*
X0340179Y0213184D01*
X0340179Y0212186D02*
X0229364Y0212186D01*
X0229364Y0211187D02*
X0340179Y0211187D01*
X0340179Y0210189D02*
X0229364Y0210189D01*
X0229364Y0209190D02*
X0340179Y0209190D01*
X0340179Y0208192D02*
X0229364Y0208192D01*
X0229364Y0207193D02*
X0340179Y0207193D01*
X0340179Y0206195D02*
X0229364Y0206195D01*
X0229364Y0205196D02*
X0340179Y0205196D01*
X0340179Y0204198D02*
X0229364Y0204198D01*
X0229364Y0203199D02*
X0340179Y0203199D01*
X0340179Y0202201D02*
X0228712Y0202201D01*
X0218734Y0201202D02*
X0340179Y0201202D01*
X0340179Y0200204D02*
X0218734Y0200204D01*
X0218734Y0199205D02*
X0340179Y0199205D01*
X0340179Y0198207D02*
X0218734Y0198207D01*
X0218734Y0197208D02*
X0340179Y0197208D01*
X0340179Y0196210D02*
X0218734Y0196210D01*
X0218734Y0195211D02*
X0340179Y0195211D01*
X0340179Y0194213D02*
X0218734Y0194213D01*
X0218734Y0193214D02*
X0340179Y0193214D01*
X0340179Y0192216D02*
X0218734Y0192216D01*
X0218319Y0191217D02*
X0340179Y0191217D01*
X0340179Y0190219D02*
X0217566Y0190219D01*
X0217566Y0189220D02*
X0340179Y0189220D01*
X0340179Y0188222D02*
X0217566Y0188222D01*
X0217566Y0187223D02*
X0340179Y0187223D01*
X0340179Y0186225D02*
X0217566Y0186225D01*
X0212566Y0183229D02*
X0202643Y0183229D01*
X0201645Y0182231D02*
X0212566Y0182231D01*
X0217566Y0175241D02*
X0224975Y0175241D01*
X0225944Y0175241D02*
X0251279Y0175241D01*
X0251279Y0174242D02*
X0229715Y0174242D01*
X0229715Y0174756D02*
X0229715Y0173074D01*
X0229613Y0172693D01*
X0229416Y0172351D01*
X0229136Y0172071D01*
X0228794Y0171874D01*
X0228413Y0171772D01*
X0225944Y0171772D01*
X0225944Y0174756D01*
X0229715Y0174756D01*
X0229715Y0176239D02*
X0251496Y0176239D01*
X0251545Y0177238D02*
X0229715Y0177238D01*
X0229309Y0178237D02*
X0251479Y0178237D01*
X0251279Y0173244D02*
X0229715Y0173244D01*
X0229310Y0172245D02*
X0251279Y0172245D01*
X0251279Y0171247D02*
X0229101Y0171247D01*
X0229915Y0170248D02*
X0250506Y0170248D01*
X0251129Y0167760D02*
X0256129Y0172760D01*
X0284879Y0144010D01*
X0284879Y0139000D01*
X0287232Y0141292D02*
X0308991Y0141292D01*
X0308577Y0140293D02*
X0288163Y0140293D01*
X0288163Y0139295D02*
X0308429Y0139295D01*
X0308429Y0138296D02*
X0288163Y0138296D01*
X0287821Y0137298D02*
X0308747Y0137298D01*
X0309183Y0136299D02*
X0286822Y0136299D01*
X0282935Y0136299D02*
X0280691Y0136299D01*
X0281689Y0135301D02*
X0310181Y0135301D01*
X0312189Y0134302D02*
X0282688Y0134302D01*
X0283687Y0133303D02*
X0311237Y0133303D01*
X0309787Y0132305D02*
X0284685Y0132305D01*
X0285684Y0131306D02*
X0308997Y0131306D01*
X0308583Y0130308D02*
X0286682Y0130308D01*
X0287681Y0129309D02*
X0308429Y0129309D01*
X0308429Y0128311D02*
X0288679Y0128311D01*
X0289678Y0127312D02*
X0308741Y0127312D01*
X0309168Y0126314D02*
X0290676Y0126314D01*
X0291675Y0125315D02*
X0310167Y0125315D01*
X0312153Y0124317D02*
X0292673Y0124317D01*
X0287449Y0123318D02*
X0271441Y0123318D01*
X0271441Y0124317D02*
X0286451Y0124317D01*
X0285452Y0125315D02*
X0271076Y0125315D01*
X0269579Y0126314D02*
X0284454Y0126314D01*
X0283455Y0127312D02*
X0269579Y0127312D01*
X0269579Y0128311D02*
X0282457Y0128311D01*
X0281458Y0129309D02*
X0269579Y0129309D01*
X0269579Y0130308D02*
X0280459Y0130308D01*
X0279461Y0131306D02*
X0269579Y0131306D01*
X0269579Y0132305D02*
X0278462Y0132305D01*
X0277464Y0133303D02*
X0268687Y0133303D01*
X0267688Y0134302D02*
X0276465Y0134302D01*
X0275467Y0135301D02*
X0266689Y0135301D01*
X0265691Y0136299D02*
X0274468Y0136299D01*
X0273470Y0137298D02*
X0264692Y0137298D01*
X0263694Y0138296D02*
X0272471Y0138296D01*
X0271473Y0139295D02*
X0263808Y0139295D01*
X0259879Y0139000D02*
X0252379Y0131500D01*
X0237379Y0131500D01*
X0232704Y0126825D01*
X0232704Y0113400D01*
X0232379Y0113075D01*
X0232379Y0106500D01*
X0227379Y0101500D01*
X0222379Y0106500D01*
X0226404Y0110526D01*
X0226404Y0113400D01*
X0229504Y0113350D02*
X0229604Y0113350D01*
X0229604Y0109400D01*
X0230179Y0109400D01*
X0230179Y0107411D01*
X0227379Y0104611D01*
X0225490Y0106500D01*
X0228190Y0109200D01*
X0228208Y0109200D01*
X0228408Y0109400D01*
X0229504Y0109400D01*
X0229504Y0113350D01*
X0229504Y0113333D02*
X0229604Y0113333D01*
X0229604Y0112335D02*
X0229504Y0112335D01*
X0229504Y0111336D02*
X0229604Y0111336D01*
X0229604Y0110338D02*
X0229504Y0110338D01*
X0230179Y0109339D02*
X0228348Y0109339D01*
X0227331Y0108341D02*
X0230179Y0108341D01*
X0230110Y0107342D02*
X0226332Y0107342D01*
X0225646Y0106344D02*
X0229111Y0106344D01*
X0228113Y0105345D02*
X0226645Y0105345D01*
X0227379Y0101500D02*
X0227379Y0086500D01*
X0229618Y0087372D02*
X0237844Y0087372D01*
X0237844Y0088370D02*
X0229579Y0088370D01*
X0229579Y0089369D02*
X0238103Y0089369D01*
X0239102Y0090368D02*
X0229579Y0090368D01*
X0229579Y0091366D02*
X0243829Y0091366D01*
X0243829Y0090368D02*
X0243156Y0090368D01*
X0243829Y0092365D02*
X0229579Y0092365D01*
X0229579Y0093363D02*
X0243829Y0093363D01*
X0243829Y0094362D02*
X0229579Y0094362D01*
X0229579Y0095360D02*
X0243829Y0095360D01*
X0243829Y0096359D02*
X0229579Y0096359D01*
X0229579Y0097357D02*
X0243829Y0097357D01*
X0243829Y0098356D02*
X0229579Y0098356D01*
X0229579Y0099354D02*
X0243829Y0099354D01*
X0243829Y0100353D02*
X0229579Y0100353D01*
X0230341Y0101351D02*
X0243829Y0101351D01*
X0243829Y0102350D02*
X0231340Y0102350D01*
X0232338Y0103348D02*
X0243829Y0103348D01*
X0243829Y0104347D02*
X0233337Y0104347D01*
X0234335Y0105345D02*
X0243829Y0105345D01*
X0243829Y0106344D02*
X0234579Y0106344D01*
X0234579Y0107342D02*
X0243829Y0107342D01*
X0243829Y0108341D02*
X0234579Y0108341D01*
X0234647Y0109339D02*
X0237059Y0109339D01*
X0235903Y0110338D02*
X0235803Y0110338D01*
X0235803Y0111336D02*
X0235903Y0111336D01*
X0235903Y0112335D02*
X0235803Y0112335D01*
X0235803Y0113333D02*
X0235903Y0113333D01*
X0235903Y0113450D02*
X0235803Y0113450D01*
X0235803Y0117400D01*
X0234904Y0117400D01*
X0234904Y0124380D01*
X0235988Y0125464D01*
X0235988Y0126998D01*
X0238290Y0129300D01*
X0253290Y0129300D01*
X0254579Y0130589D01*
X0259879Y0135889D01*
X0265179Y0130589D01*
X0265179Y0125946D01*
X0264312Y0125946D01*
X0263317Y0124950D01*
X0263317Y0118817D01*
X0264312Y0117822D01*
X0268473Y0117822D01*
X0268330Y0117678D01*
X0264312Y0117678D01*
X0263317Y0116683D01*
X0263317Y0110550D01*
X0264143Y0109724D01*
X0251833Y0109724D01*
X0251233Y0110324D01*
X0244952Y0110324D01*
X0244952Y0115962D01*
X0247206Y0118216D01*
X0248739Y0118216D01*
X0250663Y0120140D01*
X0250663Y0122860D01*
X0248739Y0124784D01*
X0246018Y0124784D01*
X0244094Y0122860D01*
X0244094Y0121327D01*
X0241203Y0118435D01*
X0241203Y0119055D01*
X0242287Y0120140D01*
X0242287Y0122860D01*
X0240363Y0124784D01*
X0237642Y0124784D01*
X0235719Y0122860D01*
X0235719Y0120140D01*
X0236803Y0119055D01*
X0236803Y0117400D01*
X0235903Y0117400D01*
X0235903Y0113450D01*
X0235903Y0114332D02*
X0235803Y0114332D01*
X0235803Y0115330D02*
X0235903Y0115330D01*
X0235903Y0116329D02*
X0235803Y0116329D01*
X0235803Y0117327D02*
X0235903Y0117327D01*
X0236803Y0118326D02*
X0234904Y0118326D01*
X0234904Y0119324D02*
X0236534Y0119324D01*
X0235719Y0120323D02*
X0234904Y0120323D01*
X0234904Y0121321D02*
X0235719Y0121321D01*
X0235719Y0122320D02*
X0234904Y0122320D01*
X0234904Y0123318D02*
X0236177Y0123318D01*
X0237175Y0124317D02*
X0234904Y0124317D01*
X0235839Y0125315D02*
X0263682Y0125315D01*
X0263317Y0124317D02*
X0249206Y0124317D01*
X0250205Y0123318D02*
X0263317Y0123318D01*
X0263317Y0122320D02*
X0250663Y0122320D01*
X0250663Y0121321D02*
X0263317Y0121321D01*
X0263317Y0120323D02*
X0250663Y0120323D01*
X0249848Y0119324D02*
X0263317Y0119324D01*
X0263808Y0118326D02*
X0248849Y0118326D01*
X0246317Y0117327D02*
X0263961Y0117327D01*
X0263317Y0116329D02*
X0245319Y0116329D01*
X0244952Y0115330D02*
X0263317Y0115330D01*
X0263317Y0114332D02*
X0244952Y0114332D01*
X0244952Y0113333D02*
X0263317Y0113333D01*
X0263317Y0112335D02*
X0244952Y0112335D01*
X0244952Y0111336D02*
X0263317Y0111336D01*
X0263529Y0110338D02*
X0244952Y0110338D01*
X0242152Y0113400D02*
X0242152Y0116274D01*
X0247379Y0121500D01*
X0244089Y0121321D02*
X0242287Y0121321D01*
X0242287Y0120323D02*
X0243090Y0120323D01*
X0242092Y0119324D02*
X0241472Y0119324D01*
X0242287Y0122320D02*
X0244094Y0122320D01*
X0244552Y0123318D02*
X0241829Y0123318D01*
X0240830Y0124317D02*
X0245551Y0124317D01*
X0239003Y0121500D02*
X0239003Y0113400D01*
X0230504Y0118326D02*
X0225455Y0118326D01*
X0225455Y0119324D02*
X0230504Y0119324D01*
X0230504Y0120323D02*
X0225455Y0120323D01*
X0225455Y0121321D02*
X0230504Y0121321D01*
X0230504Y0122320D02*
X0225455Y0122320D01*
X0225455Y0123318D02*
X0230504Y0123318D01*
X0230504Y0124317D02*
X0225455Y0124317D01*
X0225455Y0125315D02*
X0229568Y0125315D01*
X0229419Y0126314D02*
X0225455Y0126314D01*
X0225455Y0127312D02*
X0229419Y0127312D01*
X0229545Y0128311D02*
X0225455Y0128311D01*
X0225455Y0129309D02*
X0230544Y0129309D01*
X0233075Y0130308D02*
X0225455Y0130308D01*
X0225455Y0131306D02*
X0234074Y0131306D01*
X0235072Y0132305D02*
X0226295Y0132305D01*
X0227294Y0133303D02*
X0236071Y0133303D01*
X0231288Y0137298D02*
X0255065Y0137298D01*
X0256064Y0138296D02*
X0232286Y0138296D01*
X0233285Y0139295D02*
X0255950Y0139295D01*
X0255817Y0140293D02*
X0234283Y0140293D01*
X0230429Y0143289D02*
X0216829Y0143289D01*
X0216829Y0144287D02*
X0230429Y0144287D01*
X0230429Y0145286D02*
X0216829Y0145286D01*
X0216829Y0146284D02*
X0230429Y0146284D01*
X0230429Y0147283D02*
X0216829Y0147283D01*
X0216829Y0148281D02*
X0230429Y0148281D01*
X0230429Y0149280D02*
X0216829Y0149280D01*
X0216829Y0150278D02*
X0230429Y0150278D01*
X0230701Y0151277D02*
X0216556Y0151277D01*
X0216829Y0142290D02*
X0230058Y0142290D01*
X0229059Y0141292D02*
X0216124Y0141292D01*
X0216697Y0140293D02*
X0228061Y0140293D01*
X0227062Y0139295D02*
X0217695Y0139295D01*
X0218694Y0138296D02*
X0226064Y0138296D01*
X0225065Y0137298D02*
X0219692Y0137298D01*
X0220691Y0136299D02*
X0224067Y0136299D01*
X0223068Y0135301D02*
X0221689Y0135301D01*
X0217464Y0133303D02*
X0208687Y0133303D01*
X0209685Y0132305D02*
X0217905Y0132305D01*
X0217905Y0131306D02*
X0210684Y0131306D01*
X0211682Y0130308D02*
X0217905Y0130308D01*
X0217905Y0129309D02*
X0212681Y0129309D01*
X0213679Y0128311D02*
X0217905Y0128311D01*
X0217905Y0127312D02*
X0214678Y0127312D01*
X0215676Y0126314D02*
X0217905Y0126314D01*
X0217905Y0125315D02*
X0216429Y0125315D01*
X0216429Y0124317D02*
X0217905Y0124317D01*
X0217905Y0123318D02*
X0216429Y0123318D01*
X0216429Y0122320D02*
X0217905Y0122320D01*
X0217905Y0121321D02*
X0216429Y0121321D01*
X0216429Y0120323D02*
X0217905Y0120323D01*
X0217905Y0119324D02*
X0216429Y0119324D01*
X0216429Y0118326D02*
X0217905Y0118326D01*
X0217905Y0117327D02*
X0216429Y0117327D01*
X0216429Y0116329D02*
X0217305Y0116329D01*
X0217305Y0115330D02*
X0216429Y0115330D01*
X0216429Y0114332D02*
X0217305Y0114332D01*
X0223255Y0113400D02*
X0223255Y0132376D01*
X0237379Y0146500D01*
X0242629Y0146500D01*
X0249879Y0146500D01*
X0252379Y0149000D01*
X0259672Y0149000D01*
X0259879Y0148793D01*
X0263941Y0149280D02*
X0276498Y0149280D01*
X0277496Y0148281D02*
X0263941Y0148281D01*
X0263941Y0147283D02*
X0278495Y0147283D01*
X0279493Y0146284D02*
X0263711Y0146284D01*
X0263639Y0144287D02*
X0281490Y0144287D01*
X0280492Y0145286D02*
X0254829Y0145286D01*
X0254829Y0146284D02*
X0256047Y0146284D01*
X0256118Y0144287D02*
X0254829Y0144287D01*
X0254829Y0143289D02*
X0255817Y0143289D01*
X0255817Y0142290D02*
X0254829Y0142290D01*
X0254124Y0141292D02*
X0255817Y0141292D01*
X0254067Y0136299D02*
X0230289Y0136299D01*
X0229291Y0135301D02*
X0253068Y0135301D01*
X0252069Y0134302D02*
X0228292Y0134302D01*
X0236302Y0127312D02*
X0265179Y0127312D01*
X0265179Y0126314D02*
X0235988Y0126314D01*
X0237301Y0128311D02*
X0265179Y0128311D01*
X0265179Y0129309D02*
X0253299Y0129309D01*
X0254298Y0130308D02*
X0265179Y0130308D01*
X0264461Y0131306D02*
X0255296Y0131306D01*
X0256295Y0132305D02*
X0263462Y0132305D01*
X0262464Y0133303D02*
X0257293Y0133303D01*
X0258292Y0134302D02*
X0261465Y0134302D01*
X0260467Y0135301D02*
X0259291Y0135301D01*
X0273701Y0143289D02*
X0282489Y0143289D01*
X0282679Y0142290D02*
X0274700Y0142290D01*
X0275698Y0141292D02*
X0282526Y0141292D01*
X0281594Y0140293D02*
X0276697Y0140293D01*
X0277695Y0139295D02*
X0281594Y0139295D01*
X0281594Y0138296D02*
X0278694Y0138296D01*
X0279692Y0137298D02*
X0281937Y0137298D01*
X0287079Y0142290D02*
X0309772Y0142290D01*
X0311201Y0143289D02*
X0287079Y0143289D01*
X0287079Y0144287D02*
X0322679Y0144287D01*
X0322679Y0143289D02*
X0321057Y0143289D01*
X0322485Y0142290D02*
X0322679Y0142290D01*
X0324879Y0145250D02*
X0321129Y0149000D01*
X0316129Y0149000D01*
X0310196Y0145286D02*
X0286714Y0145286D01*
X0285716Y0146284D02*
X0309198Y0146284D01*
X0308753Y0147283D02*
X0284717Y0147283D01*
X0283719Y0148281D02*
X0308429Y0148281D01*
X0308429Y0149280D02*
X0282720Y0149280D01*
X0281722Y0150278D02*
X0308571Y0150278D01*
X0308985Y0151277D02*
X0280723Y0151277D01*
X0279725Y0152275D02*
X0309757Y0152275D01*
X0310606Y0155271D02*
X0276729Y0155271D01*
X0275731Y0156269D02*
X0309550Y0156269D01*
X0308961Y0157268D02*
X0274732Y0157268D01*
X0273734Y0158266D02*
X0308689Y0158266D01*
X0324879Y0145250D02*
X0324879Y0112750D01*
X0322679Y0122320D02*
X0322456Y0122320D01*
X0322679Y0123318D02*
X0320985Y0123318D01*
X0320104Y0124317D02*
X0322679Y0124317D01*
X0322679Y0125315D02*
X0322091Y0125315D01*
X0322471Y0132305D02*
X0322679Y0132305D01*
X0322679Y0133303D02*
X0321021Y0133303D01*
X0320068Y0134302D02*
X0322679Y0134302D01*
X0322679Y0135301D02*
X0322076Y0135301D01*
X0291443Y0119324D02*
X0290178Y0119324D01*
X0290021Y0120323D02*
X0290445Y0120323D01*
X0286619Y0115330D02*
X0285619Y0115330D01*
X0285619Y0114332D02*
X0286619Y0114332D01*
X0286619Y0113333D02*
X0285619Y0113333D01*
X0285619Y0112335D02*
X0286619Y0112335D01*
X0278639Y0116500D02*
X0270263Y0116500D01*
X0267379Y0113616D01*
X0271441Y0119324D02*
X0274380Y0119324D01*
X0274380Y0120323D02*
X0271441Y0120323D01*
X0271441Y0121321D02*
X0275347Y0121321D01*
X0276355Y0107524D02*
X0277379Y0106500D01*
X0276355Y0107524D02*
X0248029Y0107524D01*
X0248255Y0107750D01*
X0252229Y0104347D02*
X0274887Y0104347D01*
X0281310Y0092365D02*
X0285948Y0092365D01*
X0284982Y0091366D02*
X0282276Y0091366D01*
X0282689Y0090368D02*
X0284568Y0090368D01*
X0284354Y0089369D02*
X0282904Y0089369D01*
X0282904Y0088370D02*
X0284354Y0088370D01*
X0284676Y0087372D02*
X0282581Y0087372D01*
X0282048Y0086373D02*
X0285189Y0086373D01*
X0285189Y0085375D02*
X0281048Y0085375D01*
X0301049Y0085375D02*
X0315179Y0085375D01*
X0315179Y0086373D02*
X0302048Y0086373D01*
X0238859Y0085375D02*
X0231615Y0085375D01*
X0230617Y0086373D02*
X0237861Y0086373D01*
X0232754Y0078385D02*
X0232654Y0078385D01*
X0232654Y0077387D02*
X0232754Y0077387D01*
X0232754Y0076388D02*
X0232654Y0076388D01*
X0219879Y0087750D02*
X0219003Y0088626D01*
X0214229Y0088626D01*
X0214229Y0091776D02*
X0181327Y0091776D01*
X0167379Y0105724D01*
X0167379Y0114000D01*
X0162679Y0114332D02*
X0162079Y0114332D01*
X0162079Y0115330D02*
X0162679Y0115330D01*
X0162079Y0115947D02*
X0159326Y0118700D01*
X0155432Y0118700D01*
X0152679Y0115947D01*
X0152679Y0114911D01*
X0151267Y0113500D01*
X0147879Y0113500D01*
X0147879Y0114500D01*
X0151879Y0114500D01*
X0151879Y0115864D01*
X0149243Y0118500D01*
X0147879Y0118500D01*
X0147879Y0114500D01*
X0146879Y0114500D01*
X0146879Y0118500D01*
X0145515Y0118500D01*
X0142879Y0115864D01*
X0142879Y0114500D01*
X0146879Y0114500D01*
X0146879Y0113500D01*
X0142879Y0113500D01*
X0142879Y0112136D01*
X0145515Y0109500D01*
X0145734Y0109500D01*
X0144094Y0107860D01*
X0144094Y0105140D01*
X0146018Y0103216D01*
X0148739Y0103216D01*
X0150663Y0105140D01*
X0150663Y0106673D01*
X0154361Y0110371D01*
X0155432Y0109300D01*
X0159326Y0109300D01*
X0162079Y0112053D01*
X0162079Y0115947D01*
X0161697Y0116329D02*
X0163061Y0116329D01*
X0164059Y0117327D02*
X0160698Y0117327D01*
X0159700Y0118326D02*
X0165058Y0118326D01*
X0165408Y0119324D02*
X0149350Y0119324D01*
X0149417Y0118326D02*
X0155058Y0118326D01*
X0154059Y0117327D02*
X0150415Y0117327D01*
X0151414Y0116329D02*
X0153061Y0116329D01*
X0152679Y0115330D02*
X0151879Y0115330D01*
X0152099Y0114332D02*
X0147879Y0114332D01*
X0147879Y0115330D02*
X0146879Y0115330D01*
X0146879Y0114332D02*
X0106999Y0114332D01*
X0107997Y0113333D02*
X0142879Y0113333D01*
X0142879Y0112335D02*
X0108996Y0112335D01*
X0109994Y0111336D02*
X0143679Y0111336D01*
X0144677Y0110338D02*
X0110993Y0110338D01*
X0111991Y0109339D02*
X0145573Y0109339D01*
X0144575Y0108341D02*
X0112990Y0108341D01*
X0113988Y0107342D02*
X0144094Y0107342D01*
X0144094Y0106344D02*
X0114987Y0106344D01*
X0115985Y0105345D02*
X0144094Y0105345D01*
X0144887Y0104347D02*
X0116984Y0104347D01*
X0117982Y0103348D02*
X0145886Y0103348D01*
X0148872Y0103348D02*
X0166644Y0103348D01*
X0167642Y0102350D02*
X0118981Y0102350D01*
X0123997Y0101351D02*
X0125761Y0101351D01*
X0124950Y0100353D02*
X0124807Y0100353D01*
X0124807Y0099354D02*
X0124950Y0099354D01*
X0124950Y0098356D02*
X0124807Y0098356D01*
X0128619Y0097081D02*
X0129278Y0097740D01*
X0146129Y0097740D01*
X0146139Y0097740D01*
X0147379Y0096500D01*
X0150978Y0096359D02*
X0173633Y0096359D01*
X0172635Y0097357D02*
X0150978Y0097357D01*
X0150978Y0098356D02*
X0171636Y0098356D01*
X0170638Y0099354D02*
X0150978Y0099354D01*
X0150978Y0100353D02*
X0169639Y0100353D01*
X0168641Y0101351D02*
X0150631Y0101351D01*
X0149870Y0104347D02*
X0165645Y0104347D01*
X0165179Y0105345D02*
X0150663Y0105345D01*
X0150663Y0106344D02*
X0165179Y0106344D01*
X0165179Y0107342D02*
X0151332Y0107342D01*
X0152331Y0108341D02*
X0165179Y0108341D01*
X0165179Y0109339D02*
X0159365Y0109339D01*
X0160363Y0110338D02*
X0164394Y0110338D01*
X0163396Y0111336D02*
X0161362Y0111336D01*
X0162079Y0112335D02*
X0162679Y0112335D01*
X0162679Y0113333D02*
X0162079Y0113333D01*
X0157379Y0114000D02*
X0154879Y0114000D01*
X0147379Y0106500D01*
X0153329Y0109339D02*
X0155393Y0109339D01*
X0154394Y0110338D02*
X0154328Y0110338D01*
X0147879Y0116329D02*
X0146879Y0116329D01*
X0146879Y0117327D02*
X0147879Y0117327D01*
X0147879Y0118326D02*
X0146879Y0118326D01*
X0145341Y0118326D02*
X0103005Y0118326D01*
X0104003Y0117327D02*
X0144342Y0117327D01*
X0143344Y0116329D02*
X0105002Y0116329D01*
X0106000Y0115330D02*
X0142879Y0115330D01*
X0145408Y0119324D02*
X0102006Y0119324D01*
X0101008Y0120323D02*
X0144409Y0120323D01*
X0143411Y0121321D02*
X0100009Y0121321D01*
X0099011Y0122320D02*
X0142679Y0122320D01*
X0150348Y0120323D02*
X0154692Y0120323D01*
X0153693Y0121321D02*
X0151347Y0121321D01*
X0152079Y0122320D02*
X0152879Y0122320D01*
X0152879Y0123318D02*
X0152079Y0123318D01*
X0156879Y0123318D02*
X0157879Y0123318D01*
X0157879Y0122320D02*
X0156879Y0122320D01*
X0156879Y0121321D02*
X0157879Y0121321D01*
X0157879Y0120323D02*
X0156879Y0120323D01*
X0160066Y0120323D02*
X0164409Y0120323D01*
X0163411Y0121321D02*
X0161064Y0121321D01*
X0161879Y0122320D02*
X0162679Y0122320D01*
X0162679Y0123318D02*
X0161879Y0123318D01*
X0169350Y0119324D02*
X0175408Y0119324D01*
X0175432Y0119300D02*
X0179326Y0119300D01*
X0182079Y0122053D01*
X0182079Y0125947D01*
X0179326Y0128700D01*
X0175432Y0128700D01*
X0172679Y0125947D01*
X0172679Y0122053D01*
X0175432Y0119300D01*
X0175058Y0118326D02*
X0169700Y0118326D01*
X0170698Y0117327D02*
X0174059Y0117327D01*
X0173061Y0116329D02*
X0171697Y0116329D01*
X0172079Y0115330D02*
X0172679Y0115330D01*
X0172679Y0114332D02*
X0172079Y0114332D01*
X0172079Y0113333D02*
X0172679Y0113333D01*
X0172679Y0112335D02*
X0172079Y0112335D01*
X0171362Y0111336D02*
X0173396Y0111336D01*
X0174394Y0110338D02*
X0170363Y0110338D01*
X0169579Y0109339D02*
X0175179Y0109339D01*
X0175179Y0108341D02*
X0169579Y0108341D01*
X0169579Y0107342D02*
X0175179Y0107342D01*
X0175179Y0106344D02*
X0169871Y0106344D01*
X0170869Y0105345D02*
X0175815Y0105345D01*
X0176814Y0104347D02*
X0171868Y0104347D01*
X0172866Y0103348D02*
X0177812Y0103348D01*
X0178811Y0102350D02*
X0173865Y0102350D01*
X0174863Y0101351D02*
X0179809Y0101351D01*
X0180808Y0100353D02*
X0175862Y0100353D01*
X0176860Y0099354D02*
X0181806Y0099354D01*
X0182805Y0098356D02*
X0177859Y0098356D01*
X0178857Y0097357D02*
X0183803Y0097357D01*
X0184802Y0096359D02*
X0179856Y0096359D01*
X0180854Y0095360D02*
X0185800Y0095360D01*
X0186799Y0094362D02*
X0181853Y0094362D01*
X0178626Y0091366D02*
X0150978Y0091366D01*
X0150978Y0090368D02*
X0179624Y0090368D01*
X0177627Y0092365D02*
X0150978Y0092365D01*
X0150978Y0093363D02*
X0176629Y0093363D01*
X0175630Y0094362D02*
X0150863Y0094362D01*
X0150978Y0095360D02*
X0174632Y0095360D01*
X0185033Y0102350D02*
X0189790Y0102350D01*
X0188791Y0103348D02*
X0184035Y0103348D01*
X0183036Y0104347D02*
X0187793Y0104347D01*
X0186794Y0105345D02*
X0182038Y0105345D01*
X0181039Y0106344D02*
X0185796Y0106344D01*
X0185179Y0107342D02*
X0180041Y0107342D01*
X0179579Y0108341D02*
X0185179Y0108341D01*
X0185179Y0109339D02*
X0179579Y0109339D01*
X0180363Y0110338D02*
X0184394Y0110338D01*
X0183396Y0111336D02*
X0181362Y0111336D01*
X0182079Y0112335D02*
X0182679Y0112335D01*
X0182679Y0113333D02*
X0182079Y0113333D01*
X0182079Y0114332D02*
X0182679Y0114332D01*
X0182679Y0115330D02*
X0182079Y0115330D01*
X0181697Y0116329D02*
X0183061Y0116329D01*
X0184059Y0117327D02*
X0180698Y0117327D01*
X0179700Y0118326D02*
X0185058Y0118326D01*
X0185432Y0119300D02*
X0189326Y0119300D01*
X0192079Y0122053D01*
X0192079Y0125947D01*
X0189326Y0128700D01*
X0185432Y0128700D01*
X0182679Y0125947D01*
X0182679Y0122053D01*
X0185432Y0119300D01*
X0185408Y0119324D02*
X0179350Y0119324D01*
X0180348Y0120323D02*
X0184409Y0120323D01*
X0183411Y0121321D02*
X0181347Y0121321D01*
X0182079Y0122320D02*
X0182679Y0122320D01*
X0182679Y0123318D02*
X0182079Y0123318D01*
X0182079Y0124317D02*
X0182679Y0124317D01*
X0182679Y0125315D02*
X0182079Y0125315D01*
X0181712Y0126314D02*
X0183046Y0126314D01*
X0184044Y0127312D02*
X0180713Y0127312D01*
X0179715Y0128311D02*
X0185043Y0128311D01*
X0189715Y0128311D02*
X0195326Y0128311D01*
X0195515Y0128500D02*
X0192879Y0125864D01*
X0192879Y0124500D01*
X0196879Y0124500D01*
X0196879Y0128500D01*
X0195515Y0128500D01*
X0196879Y0128311D02*
X0197879Y0128311D01*
X0197879Y0128500D02*
X0199243Y0128500D01*
X0201879Y0125864D01*
X0201879Y0124500D01*
X0197879Y0124500D01*
X0197879Y0123500D01*
X0201879Y0123500D01*
X0201879Y0122136D01*
X0199243Y0119500D01*
X0197879Y0119500D01*
X0197879Y0123500D01*
X0196879Y0123500D01*
X0196879Y0119500D01*
X0195515Y0119500D01*
X0192879Y0122136D01*
X0192879Y0123500D01*
X0196879Y0123500D01*
X0196879Y0124500D01*
X0197879Y0124500D01*
X0197879Y0128500D01*
X0197879Y0127312D02*
X0196879Y0127312D01*
X0196879Y0126314D02*
X0197879Y0126314D01*
X0197879Y0125315D02*
X0196879Y0125315D01*
X0196879Y0124317D02*
X0192079Y0124317D01*
X0192079Y0125315D02*
X0192879Y0125315D01*
X0193329Y0126314D02*
X0191712Y0126314D01*
X0190713Y0127312D02*
X0194327Y0127312D01*
X0197879Y0124317D02*
X0211451Y0124317D01*
X0212029Y0123318D02*
X0201879Y0123318D01*
X0201879Y0122320D02*
X0212029Y0122320D01*
X0212029Y0121321D02*
X0201064Y0121321D01*
X0200066Y0120323D02*
X0212029Y0120323D01*
X0212029Y0119324D02*
X0189350Y0119324D01*
X0189700Y0118326D02*
X0195058Y0118326D01*
X0194059Y0117327D02*
X0190698Y0117327D01*
X0191697Y0116329D02*
X0193061Y0116329D01*
X0192679Y0115330D02*
X0192079Y0115330D01*
X0192079Y0114332D02*
X0192679Y0114332D01*
X0192679Y0113333D02*
X0192079Y0113333D01*
X0192079Y0112335D02*
X0192679Y0112335D01*
X0193396Y0111336D02*
X0191362Y0111336D01*
X0190363Y0110338D02*
X0194394Y0110338D01*
X0195179Y0109339D02*
X0189579Y0109339D01*
X0190021Y0108341D02*
X0195179Y0108341D01*
X0195418Y0107342D02*
X0191020Y0107342D01*
X0192018Y0106344D02*
X0196417Y0106344D01*
X0197415Y0105345D02*
X0193017Y0105345D01*
X0194015Y0104347D02*
X0198414Y0104347D01*
X0199412Y0103348D02*
X0195014Y0103348D01*
X0196012Y0102350D02*
X0200411Y0102350D01*
X0201409Y0101351D02*
X0197011Y0101351D01*
X0198009Y0100353D02*
X0202408Y0100353D01*
X0204647Y0101224D02*
X0197379Y0108493D01*
X0197379Y0114000D01*
X0202079Y0114332D02*
X0212029Y0114332D01*
X0212029Y0115330D02*
X0202079Y0115330D01*
X0201697Y0116329D02*
X0212029Y0116329D01*
X0212029Y0117327D02*
X0200698Y0117327D01*
X0199700Y0118326D02*
X0212029Y0118326D01*
X0212029Y0113333D02*
X0202079Y0113333D01*
X0202079Y0112335D02*
X0212029Y0112335D01*
X0212029Y0111336D02*
X0201362Y0111336D01*
X0200363Y0110338D02*
X0212029Y0110338D01*
X0210040Y0109339D02*
X0209184Y0109339D01*
X0207379Y0106500D02*
X0209505Y0104374D01*
X0214229Y0104374D01*
X0214229Y0101224D02*
X0204647Y0101224D01*
X0204636Y0104347D02*
X0204887Y0104347D01*
X0204094Y0105345D02*
X0203638Y0105345D01*
X0204094Y0106344D02*
X0202639Y0106344D01*
X0201641Y0107342D02*
X0204094Y0107342D01*
X0204575Y0108341D02*
X0200642Y0108341D01*
X0199644Y0109339D02*
X0205573Y0109339D01*
X0197176Y0098075D02*
X0187379Y0107872D01*
X0187379Y0114000D01*
X0190348Y0120323D02*
X0194692Y0120323D01*
X0193693Y0121321D02*
X0191347Y0121321D01*
X0192079Y0122320D02*
X0192879Y0122320D01*
X0192879Y0123318D02*
X0192079Y0123318D01*
X0196879Y0123318D02*
X0197879Y0123318D01*
X0197879Y0122320D02*
X0196879Y0122320D01*
X0196879Y0121321D02*
X0197879Y0121321D01*
X0197879Y0120323D02*
X0196879Y0120323D01*
X0201879Y0125315D02*
X0210452Y0125315D01*
X0209454Y0126314D02*
X0201429Y0126314D01*
X0200430Y0127312D02*
X0208455Y0127312D01*
X0207457Y0128311D02*
X0199432Y0128311D01*
X0211473Y0139295D02*
X0184818Y0139295D01*
X0185663Y0140293D02*
X0210474Y0140293D01*
X0212471Y0138296D02*
X0183819Y0138296D01*
X0180938Y0138296D02*
X0138051Y0138296D01*
X0138162Y0138232D02*
X0137820Y0138429D01*
X0137438Y0138531D01*
X0135166Y0138531D01*
X0135166Y0135744D01*
X0134591Y0135744D01*
X0134591Y0135169D01*
X0131017Y0135169D01*
X0131017Y0133684D01*
X0131119Y0133303D01*
X0131316Y0132961D01*
X0131596Y0132682D01*
X0131938Y0132484D01*
X0132319Y0132382D01*
X0134591Y0132382D01*
X0134591Y0135169D01*
X0135166Y0135169D01*
X0135166Y0132382D01*
X0137438Y0132382D01*
X0137820Y0132484D01*
X0138162Y0132682D01*
X0138441Y0132961D01*
X0138639Y0133303D01*
X0138741Y0133684D01*
X0138741Y0135169D01*
X0135166Y0135169D01*
X0135166Y0135744D01*
X0138741Y0135744D01*
X0138741Y0137229D01*
X0138639Y0137610D01*
X0138441Y0137953D01*
X0138162Y0138232D01*
X0137971Y0139295D02*
X0179940Y0139295D01*
X0182379Y0141500D02*
X0172379Y0141500D01*
X0168629Y0145250D01*
X0168629Y0152760D01*
X0167369Y0151500D01*
X0162379Y0151500D01*
X0153422Y0142543D01*
X0134879Y0142543D01*
X0091700Y0142543D01*
X0086129Y0136972D01*
X0075906Y0136972D01*
X0065879Y0147000D01*
X0060279Y0147283D02*
X0045916Y0147283D01*
X0046914Y0146284D02*
X0060279Y0146284D01*
X0060279Y0145286D02*
X0047452Y0145286D01*
X0047866Y0144287D02*
X0060279Y0144287D01*
X0060279Y0143289D02*
X0047979Y0143289D01*
X0047979Y0142290D02*
X0060279Y0142290D01*
X0060566Y0141292D02*
X0047979Y0141292D01*
X0047979Y0140293D02*
X0060980Y0140293D01*
X0061765Y0139295D02*
X0047979Y0139295D01*
X0047979Y0138296D02*
X0062843Y0138296D01*
X0068914Y0138296D02*
X0071471Y0138296D01*
X0070473Y0139295D02*
X0069993Y0139295D01*
X0072470Y0137298D02*
X0047979Y0137298D01*
X0047979Y0136299D02*
X0073468Y0136299D01*
X0074467Y0135301D02*
X0047979Y0135301D01*
X0047979Y0134302D02*
X0079704Y0134302D01*
X0079704Y0133303D02*
X0047696Y0133303D01*
X0047282Y0132305D02*
X0080124Y0132305D01*
X0079745Y0125315D02*
X0036675Y0125315D01*
X0033448Y0122320D02*
X0014579Y0122320D01*
X0014579Y0123318D02*
X0032449Y0123318D01*
X0031451Y0124317D02*
X0014579Y0124317D01*
X0014579Y0125315D02*
X0030452Y0125315D01*
X0029454Y0126314D02*
X0014579Y0126314D01*
X0014579Y0127312D02*
X0028455Y0127312D01*
X0027457Y0128311D02*
X0014579Y0128311D01*
X0014579Y0129309D02*
X0026458Y0129309D01*
X0025459Y0130308D02*
X0014579Y0130308D01*
X0014579Y0131306D02*
X0024461Y0131306D01*
X0023462Y0132305D02*
X0014579Y0132305D01*
X0014579Y0133303D02*
X0022464Y0133303D01*
X0021465Y0134302D02*
X0014579Y0134302D01*
X0014579Y0135301D02*
X0020467Y0135301D01*
X0019468Y0136299D02*
X0014579Y0136299D01*
X0014579Y0137298D02*
X0018470Y0137298D01*
X0015843Y0138296D02*
X0014579Y0138296D01*
X0014579Y0139295D02*
X0014765Y0139295D01*
X0022993Y0139295D02*
X0036779Y0139295D01*
X0036779Y0140293D02*
X0023777Y0140293D01*
X0024191Y0141292D02*
X0036779Y0141292D01*
X0036779Y0142290D02*
X0024479Y0142290D01*
X0024479Y0143289D02*
X0036779Y0143289D01*
X0036892Y0144287D02*
X0024479Y0144287D01*
X0024479Y0145286D02*
X0037306Y0145286D01*
X0037843Y0146284D02*
X0024479Y0146284D01*
X0023694Y0138296D02*
X0036779Y0138296D01*
X0036779Y0137298D02*
X0024692Y0137298D01*
X0025691Y0136299D02*
X0036779Y0136299D01*
X0036779Y0135301D02*
X0026689Y0135301D01*
X0027688Y0134302D02*
X0036779Y0134302D01*
X0037061Y0133303D02*
X0028687Y0133303D01*
X0029685Y0132305D02*
X0037475Y0132305D01*
X0038253Y0131306D02*
X0030684Y0131306D01*
X0031682Y0130308D02*
X0039314Y0130308D01*
X0045443Y0130308D02*
X0170575Y0130308D01*
X0171574Y0131306D02*
X0046505Y0131306D01*
X0034446Y0121321D02*
X0032078Y0121321D01*
X0034076Y0120323D02*
X0079704Y0120323D01*
X0079704Y0119324D02*
X0035075Y0119324D01*
X0035594Y0118326D02*
X0079704Y0118326D01*
X0079704Y0117327D02*
X0036007Y0117327D01*
X0036050Y0116329D02*
X0080156Y0116329D01*
X0080862Y0113333D02*
X0035299Y0113333D01*
X0034364Y0112335D02*
X0078894Y0112335D01*
X0077895Y0111336D02*
X0032773Y0111336D01*
X0021827Y0111336D02*
X0014579Y0111336D01*
X0014579Y0110338D02*
X0077327Y0110338D01*
X0076913Y0109339D02*
X0014579Y0109339D01*
X0014579Y0108341D02*
X0076779Y0108341D01*
X0076779Y0107342D02*
X0014579Y0107342D01*
X0014579Y0106344D02*
X0076779Y0106344D01*
X0076779Y0105345D02*
X0060366Y0105345D01*
X0059993Y0105500D02*
X0057765Y0105500D01*
X0055707Y0104647D01*
X0054131Y0103072D01*
X0053279Y0101014D01*
X0053279Y0090986D01*
X0054131Y0088928D01*
X0055707Y0087353D01*
X0057765Y0086500D01*
X0059993Y0086500D01*
X0062051Y0087353D01*
X0063626Y0088928D01*
X0064479Y0090986D01*
X0064479Y0101014D01*
X0063626Y0103072D01*
X0062051Y0104647D01*
X0059993Y0105500D01*
X0057391Y0105345D02*
X0014579Y0105345D01*
X0014579Y0104347D02*
X0055406Y0104347D01*
X0054407Y0103348D02*
X0014579Y0103348D01*
X0014579Y0102350D02*
X0053832Y0102350D01*
X0053418Y0101351D02*
X0032767Y0101351D01*
X0031864Y0101725D02*
X0033785Y0100930D01*
X0035255Y0099460D01*
X0036050Y0097539D01*
X0036050Y0095461D01*
X0035255Y0093540D01*
X0033785Y0092070D01*
X0031864Y0091275D01*
X0022736Y0091275D01*
X0020815Y0092070D01*
X0019345Y0093540D01*
X0018550Y0095461D01*
X0018550Y0097539D01*
X0019345Y0099460D01*
X0020815Y0100930D01*
X0022736Y0101725D01*
X0031864Y0101725D01*
X0034362Y0100353D02*
X0053279Y0100353D01*
X0053279Y0099354D02*
X0035298Y0099354D01*
X0035712Y0098356D02*
X0053279Y0098356D01*
X0053279Y0097357D02*
X0036050Y0097357D01*
X0036050Y0096359D02*
X0053279Y0096359D01*
X0053279Y0095360D02*
X0036008Y0095360D01*
X0035595Y0094362D02*
X0053279Y0094362D01*
X0053279Y0093363D02*
X0035077Y0093363D01*
X0034079Y0092365D02*
X0053279Y0092365D01*
X0053279Y0091366D02*
X0032084Y0091366D01*
X0022516Y0091366D02*
X0014579Y0091366D01*
X0014579Y0090368D02*
X0053535Y0090368D01*
X0053949Y0089369D02*
X0014579Y0089369D01*
X0014579Y0088370D02*
X0054689Y0088370D01*
X0055687Y0087372D02*
X0014618Y0087372D01*
X0015617Y0086373D02*
X0112394Y0086373D01*
X0113393Y0085375D02*
X0016615Y0085375D01*
X0017614Y0084376D02*
X0114391Y0084376D01*
X0115390Y0083378D02*
X0018612Y0083378D01*
X0019611Y0082379D02*
X0116388Y0082379D01*
X0117387Y0081381D02*
X0033455Y0081381D01*
X0034647Y0080382D02*
X0118385Y0080382D01*
X0119384Y0079384D02*
X0035416Y0079384D01*
X0035830Y0078385D02*
X0120382Y0078385D01*
X0121381Y0077387D02*
X0036050Y0077387D01*
X0036050Y0076388D02*
X0122379Y0076388D01*
X0123378Y0075390D02*
X0035890Y0075390D01*
X0035477Y0074391D02*
X0124376Y0074391D01*
X0125375Y0073393D02*
X0034792Y0073393D01*
X0033794Y0072394D02*
X0126373Y0072394D01*
X0127372Y0071396D02*
X0009579Y0071396D01*
X0009579Y0070397D02*
X0128370Y0070397D01*
X0129369Y0069399D02*
X0009579Y0069399D01*
X0009579Y0068400D02*
X0130367Y0068400D01*
X0131366Y0067402D02*
X0009579Y0067402D01*
X0009579Y0066403D02*
X0132364Y0066403D01*
X0133363Y0065405D02*
X0009579Y0065405D01*
X0009579Y0064406D02*
X0134361Y0064406D01*
X0135360Y0063408D02*
X0009579Y0063408D01*
X0009579Y0062409D02*
X0136358Y0062409D01*
X0137357Y0061411D02*
X0009579Y0061411D01*
X0009579Y0060412D02*
X0138355Y0060412D01*
X0139354Y0059414D02*
X0009579Y0059414D01*
X0009579Y0058415D02*
X0140352Y0058415D01*
X0141351Y0057417D02*
X0107194Y0057417D01*
X0109280Y0056418D02*
X0142349Y0056418D01*
X0143348Y0055420D02*
X0110279Y0055420D01*
X0110896Y0054421D02*
X0144346Y0054421D01*
X0145345Y0053423D02*
X0111309Y0053423D01*
X0111479Y0052424D02*
X0146343Y0052424D01*
X0147342Y0051426D02*
X0111479Y0051426D01*
X0111479Y0050427D02*
X0148340Y0050427D01*
X0149339Y0049429D02*
X0111479Y0049429D01*
X0111479Y0048430D02*
X0150337Y0048430D01*
X0151336Y0047432D02*
X0111479Y0047432D01*
X0111479Y0046433D02*
X0152334Y0046433D01*
X0153333Y0045434D02*
X0111479Y0045434D01*
X0111479Y0044436D02*
X0154331Y0044436D01*
X0155851Y0046028D02*
X0105879Y0096000D01*
X0100279Y0096359D02*
X0086557Y0096359D01*
X0087304Y0097357D02*
X0100279Y0097357D01*
X0100279Y0098356D02*
X0087718Y0098356D01*
X0087979Y0099354D02*
X0100279Y0099354D01*
X0100279Y0100353D02*
X0087979Y0100353D01*
X0087979Y0101351D02*
X0100418Y0101351D01*
X0100832Y0102350D02*
X0087979Y0102350D01*
X0087979Y0103348D02*
X0101407Y0103348D01*
X0102406Y0104347D02*
X0087979Y0104347D01*
X0087979Y0105345D02*
X0104391Y0105345D01*
X0100279Y0095360D02*
X0085558Y0095360D01*
X0079199Y0095360D02*
X0064479Y0095360D01*
X0064479Y0094362D02*
X0100279Y0094362D01*
X0100279Y0093363D02*
X0064479Y0093363D01*
X0064479Y0092365D02*
X0100279Y0092365D01*
X0100279Y0091366D02*
X0064479Y0091366D01*
X0064223Y0090368D02*
X0100535Y0090368D01*
X0100949Y0089369D02*
X0063809Y0089369D01*
X0063069Y0088370D02*
X0101689Y0088370D01*
X0102687Y0087372D02*
X0062070Y0087372D01*
X0064479Y0096359D02*
X0078201Y0096359D01*
X0077453Y0097357D02*
X0064479Y0097357D01*
X0064479Y0098356D02*
X0077040Y0098356D01*
X0076779Y0099354D02*
X0064479Y0099354D01*
X0064479Y0100353D02*
X0076779Y0100353D01*
X0076779Y0101351D02*
X0064339Y0101351D01*
X0063925Y0102350D02*
X0076779Y0102350D01*
X0076779Y0103348D02*
X0063350Y0103348D01*
X0062352Y0104347D02*
X0076779Y0104347D01*
X0109070Y0087372D02*
X0111395Y0087372D01*
X0110397Y0088370D02*
X0110069Y0088370D01*
X0114622Y0090368D02*
X0121410Y0090368D01*
X0121410Y0091366D02*
X0113624Y0091366D01*
X0115621Y0089369D02*
X0121410Y0089369D01*
X0124394Y0086373D02*
X0125363Y0086373D01*
X0125363Y0085375D02*
X0124394Y0085375D01*
X0124394Y0084376D02*
X0125363Y0084376D01*
X0126605Y0078385D02*
X0148842Y0078385D01*
X0147843Y0077387D02*
X0127603Y0077387D01*
X0128602Y0076388D02*
X0147067Y0076388D01*
X0147067Y0075390D02*
X0129600Y0075390D01*
X0130599Y0074391D02*
X0147067Y0074391D01*
X0147564Y0073393D02*
X0131597Y0073393D01*
X0132596Y0072394D02*
X0148562Y0072394D01*
X0151094Y0071396D02*
X0133594Y0071396D01*
X0134593Y0070397D02*
X0152093Y0070397D01*
X0153091Y0069399D02*
X0135591Y0069399D01*
X0136590Y0068400D02*
X0154090Y0068400D01*
X0155088Y0067402D02*
X0137588Y0067402D01*
X0138587Y0066403D02*
X0156087Y0066403D01*
X0157085Y0065405D02*
X0139585Y0065405D01*
X0140584Y0064406D02*
X0157204Y0064406D01*
X0157204Y0063408D02*
X0141582Y0063408D01*
X0142581Y0062409D02*
X0157204Y0062409D01*
X0157204Y0061411D02*
X0143579Y0061411D01*
X0144578Y0060412D02*
X0157204Y0060412D01*
X0157204Y0059414D02*
X0145576Y0059414D01*
X0146575Y0058415D02*
X0157204Y0058415D01*
X0157513Y0057417D02*
X0147573Y0057417D01*
X0154563Y0050427D02*
X0157356Y0050427D01*
X0157204Y0049429D02*
X0155561Y0049429D01*
X0156560Y0048430D02*
X0157204Y0048430D01*
X0155851Y0046028D02*
X0163629Y0046028D01*
X0177576Y0032081D01*
X0183639Y0032081D01*
X0187307Y0032454D02*
X0187450Y0032454D01*
X0187450Y0033452D02*
X0187307Y0033452D01*
X0187307Y0034451D02*
X0187450Y0034451D01*
X0187450Y0035449D02*
X0187307Y0035449D01*
X0186400Y0036448D02*
X0188358Y0036448D01*
X0188919Y0037446D02*
X0175321Y0037446D01*
X0176320Y0036448D02*
X0180877Y0036448D01*
X0179970Y0035449D02*
X0177318Y0035449D01*
X0178317Y0034451D02*
X0179970Y0034451D01*
X0174323Y0038445D02*
X0188919Y0038445D01*
X0186332Y0039443D02*
X0173324Y0039443D01*
X0172326Y0040442D02*
X0186279Y0040442D01*
X0186279Y0041440D02*
X0171327Y0041440D01*
X0157544Y0041440D02*
X0110838Y0041440D01*
X0111252Y0042439D02*
X0157204Y0042439D01*
X0157204Y0043437D02*
X0111479Y0043437D01*
X0105879Y0048000D02*
X0069694Y0011815D01*
X0027300Y0011815D01*
X0009579Y0037446D02*
X0092214Y0037446D01*
X0093212Y0038445D02*
X0009579Y0038445D01*
X0009579Y0039443D02*
X0055616Y0039443D01*
X0055707Y0039353D02*
X0057765Y0038500D01*
X0059993Y0038500D01*
X0062051Y0039353D01*
X0063626Y0040928D01*
X0064479Y0042986D01*
X0064479Y0053014D01*
X0063626Y0055072D01*
X0062051Y0056647D01*
X0059993Y0057500D01*
X0057765Y0057500D01*
X0055707Y0056647D01*
X0054131Y0055072D01*
X0053432Y0053385D01*
X0035569Y0053385D01*
X0035255Y0054145D01*
X0033785Y0055615D01*
X0031864Y0056410D01*
X0022736Y0056410D01*
X0020815Y0055615D01*
X0019345Y0054145D01*
X0018550Y0052224D01*
X0018550Y0050146D01*
X0019345Y0048225D01*
X0020815Y0046755D01*
X0022736Y0045960D01*
X0031864Y0045960D01*
X0033785Y0046755D01*
X0035255Y0048225D01*
X0035569Y0048985D01*
X0053279Y0048985D01*
X0053279Y0042986D01*
X0054131Y0040928D01*
X0055707Y0039353D01*
X0054617Y0040442D02*
X0009579Y0040442D01*
X0009579Y0041440D02*
X0053919Y0041440D01*
X0053505Y0042439D02*
X0009579Y0042439D01*
X0009579Y0043437D02*
X0053279Y0043437D01*
X0053279Y0044436D02*
X0009579Y0044436D01*
X0009579Y0045434D02*
X0053279Y0045434D01*
X0053279Y0046433D02*
X0033006Y0046433D01*
X0034461Y0047432D02*
X0053279Y0047432D01*
X0053279Y0048430D02*
X0035339Y0048430D01*
X0035554Y0053423D02*
X0053448Y0053423D01*
X0053862Y0054421D02*
X0034978Y0054421D01*
X0033980Y0055420D02*
X0054479Y0055420D01*
X0055477Y0056418D02*
X0009579Y0056418D01*
X0009579Y0055420D02*
X0020620Y0055420D01*
X0019622Y0054421D02*
X0009579Y0054421D01*
X0009579Y0053423D02*
X0019046Y0053423D01*
X0018633Y0052424D02*
X0009579Y0052424D01*
X0009579Y0051426D02*
X0018550Y0051426D01*
X0018550Y0050427D02*
X0009579Y0050427D01*
X0009579Y0049429D02*
X0018847Y0049429D01*
X0019261Y0048430D02*
X0009579Y0048430D01*
X0009579Y0047432D02*
X0020139Y0047432D01*
X0021594Y0046433D02*
X0009579Y0046433D01*
X0009579Y0057417D02*
X0057564Y0057417D01*
X0060194Y0057417D02*
X0104564Y0057417D01*
X0102477Y0056418D02*
X0062280Y0056418D01*
X0063279Y0055420D02*
X0101479Y0055420D01*
X0100862Y0054421D02*
X0063896Y0054421D01*
X0064309Y0053423D02*
X0100448Y0053423D01*
X0100279Y0052424D02*
X0064479Y0052424D01*
X0064479Y0051426D02*
X0100279Y0051426D01*
X0100279Y0050427D02*
X0064479Y0050427D01*
X0064479Y0049429D02*
X0100279Y0049429D01*
X0100279Y0048430D02*
X0064479Y0048430D01*
X0064479Y0047432D02*
X0100279Y0047432D01*
X0100279Y0046433D02*
X0064479Y0046433D01*
X0064479Y0045434D02*
X0100202Y0045434D01*
X0099203Y0044436D02*
X0064479Y0044436D01*
X0064479Y0043437D02*
X0098205Y0043437D01*
X0097206Y0042439D02*
X0064252Y0042439D01*
X0063838Y0041440D02*
X0096208Y0041440D01*
X0095209Y0040442D02*
X0063140Y0040442D01*
X0062142Y0039443D02*
X0094211Y0039443D01*
X0100433Y0039443D02*
X0102616Y0039443D01*
X0101617Y0040442D02*
X0101432Y0040442D01*
X0058879Y0048000D02*
X0055694Y0051185D01*
X0027300Y0051185D01*
X0027300Y0076815D02*
X0022064Y0076815D01*
X0021145Y0081381D02*
X0020609Y0081381D01*
X0020521Y0092365D02*
X0014579Y0092365D01*
X0014579Y0093363D02*
X0019523Y0093363D01*
X0019005Y0094362D02*
X0014579Y0094362D01*
X0014579Y0095360D02*
X0018592Y0095360D01*
X0018550Y0096359D02*
X0014579Y0096359D01*
X0014579Y0097357D02*
X0018550Y0097357D01*
X0018888Y0098356D02*
X0014579Y0098356D01*
X0014579Y0099354D02*
X0019302Y0099354D01*
X0020238Y0100353D02*
X0014579Y0100353D01*
X0014579Y0101351D02*
X0021833Y0101351D01*
X0020236Y0112335D02*
X0014579Y0112335D01*
X0014579Y0113333D02*
X0019301Y0113333D01*
X0018887Y0114332D02*
X0014579Y0114332D01*
X0014579Y0115330D02*
X0018550Y0115330D01*
X0018550Y0116329D02*
X0014579Y0116329D01*
X0014579Y0117327D02*
X0018593Y0117327D01*
X0019006Y0118326D02*
X0014579Y0118326D01*
X0014579Y0119324D02*
X0019525Y0119324D01*
X0020524Y0120323D02*
X0014579Y0120323D01*
X0014579Y0121321D02*
X0022522Y0121321D01*
X0044021Y0148281D02*
X0060279Y0148281D01*
X0071479Y0148281D02*
X0132679Y0148281D01*
X0132679Y0147283D02*
X0071479Y0147283D01*
X0071479Y0146284D02*
X0132679Y0146284D01*
X0131280Y0145286D02*
X0071479Y0145286D01*
X0071703Y0144287D02*
X0090332Y0144287D01*
X0089334Y0143289D02*
X0072701Y0143289D01*
X0073700Y0142290D02*
X0088335Y0142290D01*
X0092561Y0140293D02*
X0130817Y0140293D01*
X0131786Y0139295D02*
X0092553Y0139295D01*
X0092553Y0138296D02*
X0131707Y0138296D01*
X0131596Y0138232D02*
X0131316Y0137953D01*
X0131119Y0137610D01*
X0131017Y0137229D01*
X0131017Y0135744D01*
X0134591Y0135744D01*
X0134591Y0138531D01*
X0132319Y0138531D01*
X0131938Y0138429D01*
X0131596Y0138232D01*
X0131035Y0137298D02*
X0092553Y0137298D01*
X0092553Y0136299D02*
X0131017Y0136299D01*
X0131017Y0134302D02*
X0092553Y0134302D01*
X0092553Y0133303D02*
X0131119Y0133303D01*
X0134591Y0133303D02*
X0135166Y0133303D01*
X0135166Y0134302D02*
X0134591Y0134302D01*
X0134591Y0135301D02*
X0092553Y0135301D01*
X0092133Y0132305D02*
X0172572Y0132305D01*
X0173571Y0133303D02*
X0138639Y0133303D01*
X0138741Y0134302D02*
X0216465Y0134302D01*
X0215467Y0135301D02*
X0135166Y0135301D01*
X0135166Y0136299D02*
X0134591Y0136299D01*
X0134591Y0137298D02*
X0135166Y0137298D01*
X0135166Y0138296D02*
X0134591Y0138296D01*
X0138723Y0137298D02*
X0213470Y0137298D01*
X0214468Y0136299D02*
X0138741Y0136299D01*
X0138941Y0140293D02*
X0170474Y0140293D01*
X0169476Y0141292D02*
X0155282Y0141292D01*
X0156280Y0142290D02*
X0168477Y0142290D01*
X0167479Y0143289D02*
X0157279Y0143289D01*
X0158277Y0144287D02*
X0166480Y0144287D01*
X0166429Y0145286D02*
X0159276Y0145286D01*
X0160274Y0146284D02*
X0166429Y0146284D01*
X0166429Y0147283D02*
X0161273Y0147283D01*
X0162271Y0148281D02*
X0166429Y0148281D01*
X0163996Y0149280D02*
X0163270Y0149280D01*
X0160043Y0152275D02*
X0137079Y0152275D01*
X0137079Y0151277D02*
X0159044Y0151277D01*
X0158046Y0150278D02*
X0137079Y0150278D01*
X0137079Y0149280D02*
X0157047Y0149280D01*
X0156049Y0148281D02*
X0137079Y0148281D01*
X0137079Y0147283D02*
X0155050Y0147283D01*
X0154052Y0146284D02*
X0137079Y0146284D01*
X0138478Y0145286D02*
X0153053Y0145286D01*
X0161041Y0153274D02*
X0137079Y0153274D01*
X0137079Y0154272D02*
X0163779Y0154272D01*
X0163779Y0155271D02*
X0137079Y0155271D01*
X0137079Y0156269D02*
X0164025Y0156269D01*
X0163779Y0157268D02*
X0137079Y0157268D01*
X0137079Y0158266D02*
X0163779Y0158266D01*
X0163779Y0159265D02*
X0137079Y0159265D01*
X0137079Y0160263D02*
X0163779Y0160263D01*
X0163779Y0161262D02*
X0137079Y0161262D01*
X0137079Y0162260D02*
X0163779Y0162260D01*
X0163779Y0163259D02*
X0137079Y0163259D01*
X0137079Y0164257D02*
X0164533Y0164257D01*
X0168629Y0160240D02*
X0173639Y0160240D01*
X0177379Y0156500D01*
X0179796Y0154272D02*
X0202429Y0154272D01*
X0202429Y0153274D02*
X0178797Y0153274D01*
X0180663Y0155271D02*
X0202429Y0155271D01*
X0202429Y0156269D02*
X0180663Y0156269D01*
X0180663Y0157268D02*
X0202429Y0157268D01*
X0202429Y0158266D02*
X0180257Y0158266D01*
X0179259Y0159265D02*
X0202429Y0159265D01*
X0202429Y0160263D02*
X0176727Y0160263D01*
X0175728Y0161262D02*
X0202429Y0161262D01*
X0202050Y0162260D02*
X0174730Y0162260D01*
X0173478Y0163259D02*
X0201052Y0163259D01*
X0200053Y0164257D02*
X0172724Y0164257D01*
X0173478Y0157268D02*
X0173500Y0157268D01*
X0173232Y0156269D02*
X0174094Y0156269D01*
X0174094Y0155271D02*
X0173478Y0155271D01*
X0173478Y0154272D02*
X0174962Y0154272D01*
X0175960Y0153274D02*
X0173478Y0153274D01*
X0173478Y0152275D02*
X0202429Y0152275D01*
X0206829Y0152275D02*
X0273502Y0152275D01*
X0274501Y0151277D02*
X0263737Y0151277D01*
X0263941Y0150278D02*
X0275499Y0150278D01*
X0272504Y0153274D02*
X0206829Y0153274D01*
X0206829Y0154272D02*
X0271505Y0154272D01*
X0270507Y0155271D02*
X0206829Y0155271D01*
X0206829Y0156269D02*
X0269508Y0156269D01*
X0268510Y0157268D02*
X0206829Y0157268D01*
X0206829Y0158266D02*
X0267511Y0158266D01*
X0266513Y0159265D02*
X0206829Y0159265D01*
X0206829Y0160263D02*
X0265514Y0160263D01*
X0264515Y0161262D02*
X0206829Y0161262D01*
X0206829Y0162260D02*
X0263517Y0162260D01*
X0262518Y0163259D02*
X0206829Y0163259D01*
X0206276Y0164257D02*
X0221833Y0164257D01*
X0221004Y0165256D02*
X0205277Y0165256D01*
X0204279Y0166254D02*
X0221004Y0166254D01*
X0225459Y0167760D02*
X0251129Y0167760D01*
X0252735Y0166254D02*
X0259523Y0166254D01*
X0260521Y0165256D02*
X0229915Y0165256D01*
X0229086Y0164257D02*
X0261520Y0164257D01*
X0258524Y0167253D02*
X0253733Y0167253D01*
X0254732Y0168251D02*
X0257526Y0168251D01*
X0256021Y0151277D02*
X0254556Y0151277D01*
X0225944Y0172245D02*
X0224975Y0172245D01*
X0224975Y0173244D02*
X0225944Y0173244D01*
X0225944Y0174242D02*
X0224975Y0174242D01*
X0224975Y0176239D02*
X0225944Y0176239D01*
X0225944Y0177238D02*
X0224975Y0177238D01*
X0224975Y0178237D02*
X0225944Y0178237D01*
X0191416Y0178237D02*
X0190841Y0178237D01*
X0190841Y0179235D02*
X0191416Y0179235D01*
X0191416Y0177238D02*
X0190841Y0177238D01*
X0190841Y0176239D02*
X0191416Y0176239D01*
X0191416Y0175241D02*
X0190841Y0175241D01*
X0190841Y0174242D02*
X0191416Y0174242D01*
X0188261Y0168251D02*
X0137079Y0168251D01*
X0137079Y0167253D02*
X0188261Y0167253D01*
X0188310Y0166254D02*
X0137079Y0166254D01*
X0137079Y0165256D02*
X0189154Y0165256D01*
X0192701Y0151277D02*
X0173478Y0151277D01*
X0173478Y0150278D02*
X0192429Y0150278D01*
X0192429Y0149280D02*
X0173261Y0149280D01*
X0170829Y0148281D02*
X0192429Y0148281D01*
X0192429Y0147283D02*
X0170829Y0147283D01*
X0170829Y0146284D02*
X0192429Y0146284D01*
X0192429Y0145286D02*
X0171704Y0145286D01*
X0172703Y0144287D02*
X0180521Y0144287D01*
X0184236Y0144287D02*
X0192429Y0144287D01*
X0192429Y0143289D02*
X0185235Y0143289D01*
X0185663Y0142290D02*
X0192429Y0142290D01*
X0193133Y0141292D02*
X0185663Y0141292D01*
X0175043Y0128311D02*
X0174801Y0128311D01*
X0174044Y0127312D02*
X0173802Y0127312D01*
X0173046Y0126314D02*
X0172804Y0126314D01*
X0172679Y0125315D02*
X0172079Y0125315D01*
X0172079Y0124317D02*
X0172679Y0124317D01*
X0172679Y0123318D02*
X0172079Y0123318D01*
X0172079Y0122320D02*
X0172679Y0122320D01*
X0173411Y0121321D02*
X0171347Y0121321D01*
X0170348Y0120323D02*
X0174409Y0120323D01*
X0177379Y0114000D02*
X0177379Y0106893D01*
X0189347Y0094925D01*
X0214229Y0094925D01*
X0214229Y0098075D02*
X0197176Y0098075D01*
X0194782Y0097357D02*
X0190026Y0097357D01*
X0189027Y0098356D02*
X0193784Y0098356D01*
X0192785Y0099354D02*
X0188029Y0099354D01*
X0187030Y0100353D02*
X0191787Y0100353D01*
X0190788Y0101351D02*
X0186032Y0101351D01*
X0197091Y0087372D02*
X0197666Y0087372D01*
X0197666Y0086373D02*
X0197091Y0086373D01*
X0197091Y0085375D02*
X0197666Y0085375D01*
X0197666Y0084376D02*
X0197091Y0084376D01*
X0197091Y0083378D02*
X0197666Y0083378D01*
X0197666Y0082379D02*
X0197091Y0082379D01*
X0193463Y0080382D02*
X0175741Y0080382D01*
X0167499Y0078385D02*
X0167259Y0078385D01*
X0167307Y0079384D02*
X0167450Y0079384D01*
X0167450Y0080382D02*
X0167307Y0080382D01*
X0167307Y0081381D02*
X0167450Y0081381D01*
X0167450Y0082379D02*
X0167307Y0082379D01*
X0167307Y0083378D02*
X0167450Y0083378D01*
X0167450Y0084376D02*
X0167307Y0084376D01*
X0166498Y0085375D02*
X0168259Y0085375D01*
X0150978Y0089369D02*
X0210029Y0089369D01*
X0214229Y0085476D02*
X0214229Y0079600D01*
X0208629Y0074000D01*
X0206372Y0076388D02*
X0202058Y0076388D01*
X0201441Y0077387D02*
X0208904Y0077387D01*
X0209903Y0078385D02*
X0201441Y0078385D01*
X0201441Y0079384D02*
X0210901Y0079384D01*
X0211900Y0080382D02*
X0201294Y0080382D01*
X0203057Y0075390D02*
X0205374Y0075390D01*
X0205344Y0074391D02*
X0204055Y0074391D01*
X0205054Y0073393D02*
X0205344Y0073393D01*
X0163629Y0061972D02*
X0150351Y0075250D01*
X0141279Y0093363D02*
X0132030Y0093363D01*
X0132287Y0094362D02*
X0141395Y0094362D01*
X0141279Y0095360D02*
X0132287Y0095360D01*
X0132287Y0100353D02*
X0141279Y0100353D01*
X0141627Y0101351D02*
X0131477Y0101351D01*
X0079704Y0139295D02*
X0076695Y0139295D01*
X0075697Y0140293D02*
X0079704Y0140293D01*
X0079776Y0141292D02*
X0074698Y0141292D01*
X0071479Y0149280D02*
X0132679Y0149280D01*
X0132679Y0150278D02*
X0071479Y0150278D01*
X0071479Y0151277D02*
X0132679Y0151277D01*
X0132679Y0152275D02*
X0071370Y0152275D01*
X0070957Y0153274D02*
X0132679Y0153274D01*
X0132679Y0154272D02*
X0111091Y0154272D01*
X0113348Y0155271D02*
X0132679Y0155271D01*
X0132679Y0156269D02*
X0114883Y0156269D01*
X0115882Y0157268D02*
X0132679Y0157268D01*
X0132679Y0158266D02*
X0116801Y0158266D01*
X0117378Y0159265D02*
X0132679Y0159265D01*
X0132679Y0160263D02*
X0117954Y0160263D01*
X0118333Y0161262D02*
X0132679Y0161262D01*
X0132679Y0162260D02*
X0118600Y0162260D01*
X0118868Y0163259D02*
X0132679Y0163259D01*
X0132679Y0164257D02*
X0118921Y0164257D01*
X0118921Y0165256D02*
X0132679Y0165256D01*
X0132679Y0166254D02*
X0118921Y0166254D01*
X0118691Y0167253D02*
X0132679Y0167253D01*
X0132679Y0168251D02*
X0118423Y0168251D01*
X0118149Y0169250D02*
X0132679Y0169250D01*
X0132679Y0170248D02*
X0117573Y0170248D01*
X0116996Y0171247D02*
X0132679Y0171247D01*
X0132679Y0172245D02*
X0116219Y0172245D01*
X0115220Y0173244D02*
X0132679Y0173244D01*
X0132679Y0174242D02*
X0115783Y0174242D01*
X0116781Y0175241D02*
X0132679Y0175241D01*
X0132679Y0176239D02*
X0117780Y0176239D01*
X0118778Y0177238D02*
X0131244Y0177238D01*
X0131131Y0178237D02*
X0119777Y0178237D01*
X0120775Y0179235D02*
X0131131Y0179235D01*
X0134879Y0178921D02*
X0135981Y0180024D01*
X0134879Y0178921D02*
X0134879Y0142543D01*
X0104454Y0154272D02*
X0070426Y0154272D01*
X0069428Y0155271D02*
X0102197Y0155271D01*
X0100662Y0156269D02*
X0067550Y0156269D01*
X0088769Y0166254D02*
X0089768Y0166254D01*
X0089768Y0167253D02*
X0088769Y0167253D01*
X0088769Y0168251D02*
X0089768Y0168251D01*
X0089768Y0169250D02*
X0088769Y0169250D01*
X0088769Y0170248D02*
X0089768Y0170248D01*
X0089768Y0171247D02*
X0088769Y0171247D01*
X0088769Y0172245D02*
X0089768Y0172245D01*
X0089768Y0173244D02*
X0088769Y0173244D01*
X0088769Y0174242D02*
X0089768Y0174242D01*
X0083790Y0186225D02*
X0068742Y0186225D01*
X0069921Y0187223D02*
X0086088Y0187223D01*
X0015258Y0203199D02*
X0009579Y0203199D01*
X0009579Y0202201D02*
X0014260Y0202201D01*
X0013771Y0201202D02*
X0009579Y0201202D01*
X0009579Y0200204D02*
X0013357Y0200204D01*
X0013279Y0199205D02*
X0009579Y0199205D01*
X0009579Y0198207D02*
X0013279Y0198207D01*
X0013279Y0197208D02*
X0009579Y0197208D01*
X0009579Y0196210D02*
X0013279Y0196210D01*
X0012979Y0195211D02*
X0009579Y0195211D01*
X0009579Y0194213D02*
X0011980Y0194213D01*
X0010982Y0193214D02*
X0009579Y0193214D01*
X0009579Y0192216D02*
X0010179Y0192216D01*
X0010179Y0191217D02*
X0009579Y0191217D01*
X0009579Y0190219D02*
X0010179Y0190219D01*
X0010179Y0189220D02*
X0009579Y0189220D01*
X0009579Y0188222D02*
X0010179Y0188222D01*
X0010179Y0187223D02*
X0009579Y0187223D01*
X0009579Y0186225D02*
X0010179Y0186225D01*
X0010179Y0185226D02*
X0009579Y0185226D01*
X0009579Y0184228D02*
X0010179Y0184228D01*
X0010179Y0183229D02*
X0009579Y0183229D01*
X0009579Y0182231D02*
X0010179Y0182231D01*
X0010179Y0181232D02*
X0009579Y0181232D01*
X0009579Y0180234D02*
X0010179Y0180234D01*
X0010179Y0179235D02*
X0009579Y0179235D01*
X0009579Y0178237D02*
X0010179Y0178237D01*
X0010179Y0177238D02*
X0009579Y0177238D01*
X0009579Y0176239D02*
X0010179Y0176239D01*
X0010179Y0175241D02*
X0009579Y0175241D01*
X0009579Y0174242D02*
X0010179Y0174242D01*
X0010179Y0173244D02*
X0009579Y0173244D01*
X0009579Y0172245D02*
X0010179Y0172245D01*
X0010179Y0171247D02*
X0009579Y0171247D01*
X0009579Y0170248D02*
X0010179Y0170248D01*
X0010179Y0169250D02*
X0009579Y0169250D01*
X0009579Y0168251D02*
X0010179Y0168251D01*
X0010179Y0167253D02*
X0009579Y0167253D01*
X0009579Y0214183D02*
X0192893Y0214183D01*
X0192893Y0215181D02*
X0009579Y0215181D01*
X0009579Y0216180D02*
X0192893Y0216180D01*
X0192893Y0217178D02*
X0009579Y0217178D01*
X0178426Y0187223D02*
X0188629Y0187223D01*
X0187219Y0186225D02*
X0178426Y0186225D01*
X0178426Y0185226D02*
X0187067Y0185226D01*
X0187067Y0184228D02*
X0178426Y0184228D01*
X0178426Y0183229D02*
X0187067Y0183229D01*
X0187067Y0182231D02*
X0178426Y0182231D01*
X0178426Y0181232D02*
X0187349Y0181232D01*
X0229504Y0117327D02*
X0229604Y0117327D01*
X0229604Y0116329D02*
X0229504Y0116329D01*
X0229504Y0115330D02*
X0229604Y0115330D01*
X0229604Y0114332D02*
X0229504Y0114332D01*
X0191129Y0042760D02*
X0191119Y0042750D01*
X0191119Y0032081D01*
X0187450Y0031455D02*
X0187307Y0031455D01*
X0187307Y0030457D02*
X0187450Y0030457D01*
X0187450Y0029458D02*
X0187307Y0029458D01*
X0187146Y0028460D02*
X0187611Y0028460D01*
X0187863Y0027461D02*
X0186894Y0027461D01*
X0186894Y0026463D02*
X0187863Y0026463D01*
X0187863Y0025464D02*
X0186894Y0025464D01*
X0186894Y0022469D02*
X0187863Y0022469D01*
X0187863Y0021470D02*
X0186894Y0021470D01*
X0186894Y0020472D02*
X0187863Y0020472D01*
X0187863Y0019473D02*
X0186894Y0019473D01*
D34*
X0242379Y0031500D03*
X0292379Y0056500D03*
X0258629Y0075250D03*
X0251129Y0075250D03*
X0241129Y0087750D03*
X0232379Y0096500D03*
X0227379Y0106500D03*
X0207379Y0106500D03*
X0219879Y0087750D03*
X0222379Y0074000D03*
X0208629Y0074000D03*
X0150351Y0075250D03*
X0147379Y0106500D03*
X0182379Y0141500D03*
X0177379Y0156500D03*
X0232704Y0126825D03*
X0239003Y0121500D03*
X0247379Y0121500D03*
X0277379Y0106500D03*
X0299879Y0117750D03*
X0302379Y0101500D03*
X0324879Y0112750D03*
X0284879Y0139000D03*
D35*
X0216798Y0171500D02*
X0215066Y0173232D01*
X0215066Y0203163D01*
X0207379Y0202976D02*
X0207192Y0203163D01*
X0207379Y0202976D02*
X0207379Y0191500D01*
X0199672Y0183793D01*
X0191129Y0183793D01*
X0191129Y0193793D01*
X0173422Y0211500D01*
X0147379Y0211500D01*
X0135981Y0200102D01*
X0135981Y0197976D01*
X0107772Y0169768D01*
X0107772Y0164925D01*
M02*
