%
M48
M72
T01C0.0197
T02C0.0315
T03C0.0400
T04C0.0470
T05C0.0520
T06C0.1181
%
T01
X15035Y7525
X14738Y10650
X18238Y14150
X17738Y15650
X23270Y12682
X23900Y12150
X24738Y12150
X22738Y10650
X23238Y9650
X24113Y8775
X25113Y7525
X25863Y7525
X29238Y5650
X24238Y3150
X22238Y7400
X20863Y7400
X21988Y8775
X20738Y10650
X27738Y10650
X29988Y11775
X30238Y10150
X32488Y11275
X28488Y13900
T02
X26863Y8900
X27863Y8900
X28863Y8900
X29863Y8900
T03
X14738Y11400
X15738Y11400
X16738Y11400
X17738Y11400
X18738Y11400
X19738Y11400
X19738Y12400
X18738Y12400
X17738Y12400
X16738Y12400
X15738Y12400
X14738Y12400
X30113Y4775
X31113Y4775
X32113Y4775
X32113Y2150
X31113Y2150
X30113Y2150
X32363Y7400
X33363Y7400
X33363Y8400
X32363Y8400
X32363Y9400
X33363Y9400
X31613Y11900
X31613Y12900
X31613Y13900
X31613Y14900
X31613Y15900
T04
X2730Y1181
X2730Y3150
X2730Y5119
X2730Y7681
X2730Y9650
X2730Y11619
T05
X5888Y4800
X10588Y4800
X10588Y9600
X8238Y10400
X5888Y9600
X4238Y13900
X6588Y14700
X1888Y14700
X1888Y19500
X6588Y19500
T06
X10777Y16493
X8927Y17674
X10777Y18815
M30
