G75*
%MOIN*%
%OFA0B0*%
%FSLAX25Y25*%
%IPPOS*%
%LPD*%
%AMOC8*
5,1,8,0,0,1.08239X$1,22.5*
%
%ADD10C,0.01000*%
%ADD11OC8,0.05550*%
%ADD12C,0.05550*%
%ADD13C,0.06400*%
%ADD14C,0.06400*%
%ADD15OC8,0.06400*%
%ADD16C,0.07450*%
%ADD17C,0.19298*%
%ADD18C,0.08200*%
D10*
X0007379Y0001500D02*
X0007379Y0221500D01*
X0342379Y0221500D01*
X0342379Y0001500D01*
X0007379Y0001500D01*
D11*
X0298629Y0089000D03*
D12*
X0288629Y0089000D03*
X0278629Y0089000D03*
X0268629Y0089000D03*
D13*
X0313129Y0119000D02*
X0319129Y0119000D01*
X0319129Y0129000D02*
X0313129Y0129000D01*
X0313129Y0139000D02*
X0319129Y0139000D01*
X0319129Y0149000D02*
X0313129Y0149000D01*
X0313129Y0159000D02*
X0319129Y0159000D01*
X0321129Y0050750D02*
X0321129Y0044750D01*
X0311129Y0044750D02*
X0311129Y0050750D01*
X0301129Y0050750D02*
X0301129Y0044750D01*
X0301129Y0024500D02*
X0301129Y0018500D01*
X0311129Y0018500D02*
X0311129Y0024500D01*
X0321129Y0024500D02*
X0321129Y0018500D01*
D14*
X0333629Y0074000D03*
D15*
X0323629Y0074000D03*
X0323629Y0084000D03*
X0333629Y0084000D03*
X0333629Y0094000D03*
X0323629Y0094000D03*
X0197379Y0114000D03*
X0187379Y0114000D03*
X0177379Y0114000D03*
X0167379Y0114000D03*
X0157379Y0114000D03*
X0147379Y0114000D03*
X0147379Y0124000D03*
X0157379Y0124000D03*
X0167379Y0124000D03*
X0177379Y0124000D03*
X0187379Y0124000D03*
X0197379Y0124000D03*
D16*
X0030825Y0116185D02*
X0023775Y0116185D01*
X0023775Y0096500D02*
X0030825Y0096500D01*
X0030825Y0076815D02*
X0023775Y0076815D01*
X0023775Y0051185D02*
X0030825Y0051185D01*
X0030825Y0031500D02*
X0023775Y0031500D01*
X0023775Y0011815D02*
X0030825Y0011815D01*
D17*
X0107772Y0164925D03*
X0089269Y0176736D03*
X0107772Y0188154D03*
D18*
X0065879Y0191100D02*
X0065879Y0198900D01*
X0018879Y0198900D02*
X0018879Y0191100D01*
X0018879Y0150900D02*
X0018879Y0143100D01*
X0042379Y0142900D02*
X0042379Y0135100D01*
X0065879Y0143100D02*
X0065879Y0150900D01*
X0082379Y0107900D02*
X0082379Y0100100D01*
X0105879Y0099900D02*
X0105879Y0092100D01*
X0058879Y0092100D02*
X0058879Y0099900D01*
X0058879Y0051900D02*
X0058879Y0044100D01*
X0105879Y0044100D02*
X0105879Y0051900D01*
M02*
